<?xml version="1.0" standalone="no"?>
<!DOCTYPE svg PUBLIC "-//W3C//DTD SVG 1.1//EN" "http://www.w3.org/Graphics/SVG/1.1/DTD/svg11.dtd" >
<svg xmlns="http://www.w3.org/2000/svg" xmlns:xlink="http://www.w3.org/1999/xlink" version="1.1">
<metadata>
Created by FontForge 20181014 at Mon Apr 15 10:47:13 2019
 By convertio
Copyright csturoe 2019
</metadata>
<defs>
<font id="Lauvinko-Bubble" horiz-adv-x="3584" >
  <font-face 
    font-family="Lauvinko Bubble"
    font-weight="400"
    font-stretch="normal"
    units-per-em="4096"
    panose-1="0 0 4 0 0 0 0 0 0 0"
    ascent="4096"
    descent="0"
    x-height="1024"
    cap-height="4096"
    bbox="-4608 -1536 4096 5632"
    underline-thickness="204"
    underline-position="307"
    unicode-range="U+0020-201D"
  />
<missing-glyph horiz-adv-x="3662" 
d="M3081 50l-1506 1978l-1506 -1978h3012zM50 69l1506 1979l-1506 1978v-3957v0zM3100 69v3957l-1506 -1978l1506 -1979v0zM1575 2067l1506 1979h-3012l1506 -1979v0zM0 0v4096h3150v-4096h-3150z" />
    <glyph glyph-name=".notdef" horiz-adv-x="3662" 
d="M3081 50l-1506 1978l-1506 -1978h3012zM50 69l1506 1979l-1506 1978v-3957v0zM3100 69v3957l-1506 -1978l1506 -1979v0zM1575 2067l1506 1979h-3012l1506 -1979v0zM0 0v4096h3150v-4096h-3150z" />
    <glyph glyph-name="glyph1" horiz-adv-x="512" 
 />
    <glyph glyph-name="glyph2" horiz-adv-x="512" 
 />
    <glyph glyph-name="space" unicode=" " horiz-adv-x="1536" 
 />
    <glyph glyph-name="quotedbl" unicode="&#x22;" horiz-adv-x="2560" 
d="M2048 0l-2048 2048l2048 2048v-1024l-1024 -1024l1024 -1024v-1024v0z" />
    <glyph glyph-name="quotesingle" unicode="'" horiz-adv-x="2560" 
d="M0 0v1024l1024 1024l-1024 1024v1024l2048 -2048l-2048 -2048v0z" />
    <glyph glyph-name="comma" unicode="," horiz-adv-x="3072" 
d="M0 512v512q0 212 150 361q150 151 362 151h512v-512q0 -213 -151 -362q-150 -150 -361 -150h-512zM1536 1536v512q0 212 150 361q150 151 362 151h512v-512q0 -213 -151 -362q-150 -150 -361 -150h-512zM0 2048v512q0 212 150 361q150 151 362 151h512v-512
q0 -213 -151 -362q-150 -150 -361 -150h-512z" />
    <glyph glyph-name="period" unicode="." 
d="M1024 1536q-213 0 -362 150q-150 150 -150 362t150 361q150 151 362 151h1024q212 0 361 -151q151 -150 151 -361q0 -213 -151 -362q-150 -150 -361 -150h-1024z" />
    <glyph glyph-name="zero" unicode="0" horiz-adv-x="3072" 
d="M1280 1536q105 0 181 74q75 76 75 182v512q0 105 -75 181q-76 75 -181 75q-106 0 -182 -75q-74 -76 -74 -181v-512q0 -106 74 -182q76 -74 182 -74v0zM512 512q-213 0 -362 150q-150 150 -150 362v2048q0 212 150 361q150 151 362 151h1536q212 0 361 -151
q151 -150 151 -361v-2048q0 -213 -151 -362q-150 -150 -361 -150h-1536z" />
    <glyph glyph-name="one" unicode="1" horiz-adv-x="1536" 
d="M512 0q-213 0 -362 150q-150 150 -150 362v3072q0 212 150 361q150 151 362 151t361 -151q151 -150 151 -361v-3072q0 -213 -151 -362q-150 -150 -361 -150v0z" />
    <glyph glyph-name="two" unicode="2" horiz-adv-x="3072" 
d="M512 0q-213 0 -362 150q-150 150 -150 362v1536q0 212 150 361q150 151 362 151h768q105 0 181 74q75 76 75 182q0 105 -75 181q-76 75 -181 75h-768q-213 0 -362 150q-150 150 -150 362t150 361q150 151 362 151h1536q212 0 361 -151q151 -150 151 -361v-1536
q0 -213 -151 -362q-150 -150 -361 -150h-768q-106 0 -182 -75q-74 -76 -74 -181q0 -106 74 -182q76 -74 182 -74h256v-512q0 -213 -151 -362q-150 -150 -361 -150h-512z" />
    <glyph glyph-name="three" unicode="3" horiz-adv-x="3072" 
d="M512 -1536q-213 0 -362 151q-150 150 -150 361v1536q0 212 150 361q150 151 362 151h768q105 0 181 74q75 76 75 182v1536q0 105 -75 181q-76 75 -181 75h-768q-213 0 -362 150q-150 150 -150 362t150 361q150 151 362 151h1536q212 0 361 -151q151 -150 151 -361v-3072
q0 -213 -151 -362q-150 -150 -361 -150h-768q-106 0 -182 -74q-74 -76 -74 -182q0 -105 74 -181q76 -75 182 -75h256v-512q0 -212 -151 -361q-150 -151 -361 -151h-512z" />
    <glyph glyph-name="four" unicode="4" horiz-adv-x="3072" 
d="M1280 1024q105 0 181 74q75 76 75 182v512q0 105 -75 181q-76 75 -181 75q-106 0 -182 -75q-74 -76 -74 -181v-512q0 -106 74 -182q76 -74 182 -74v0zM512 0q-213 0 -362 150q-150 150 -150 362v2048q0 212 150 361q150 151 362 151h768q105 0 181 74q75 76 75 182v256
q0 212 150 361q150 151 362 151t361 -151q151 -150 151 -361v-3072q0 -213 -151 -362q-150 -150 -361 -150h-1536z" />
    <glyph glyph-name="five" unicode="5" horiz-adv-x="3072" 
d="M2048 0q-213 0 -362 150q-150 150 -150 362v768q0 105 -75 181q-76 75 -181 75h-768q-213 0 -362 150q-150 150 -150 362v1536q0 212 150 361q150 151 362 151t361 -151q151 -150 151 -361v-768q0 -106 74 -182q76 -74 182 -74q105 0 181 74q75 76 75 182v768
q0 212 150 361q150 151 362 151t361 -151q151 -150 151 -361v-3072q0 -213 -151 -362q-150 -150 -361 -150v0z" />
    <glyph glyph-name="six" unicode="6" horiz-adv-x="3072" 
d="M512 0q-213 0 -362 150q-150 150 -150 362v3072q0 212 150 361q150 151 362 151h1536q212 0 361 -151q151 -150 151 -361q0 -213 -151 -362q-150 -150 -361 -150h-768q-106 0 -182 -75q-74 -76 -74 -181q0 -106 74 -182q76 -74 182 -74h256q212 0 361 -151
q151 -150 151 -361q0 -213 -151 -362q-150 -150 -361 -150h-256q-106 0 -182 -75q-74 -76 -74 -181q0 -106 74 -182q76 -74 182 -74h768q212 0 361 -151q151 -150 151 -361q0 -213 -151 -362q-150 -150 -361 -150h-1536z" />
    <glyph glyph-name="seven" unicode="7" horiz-adv-x="3072" 
d="M2048 0q-213 0 -362 150q-150 150 -150 362v2304q0 105 -75 181q-76 75 -181 75h-768q-213 0 -362 150q-150 150 -150 362t150 361q150 151 362 151h1536q212 0 361 -151q151 -150 151 -361v-3072q0 -213 -151 -362q-150 -150 -361 -150v0z" />
    <glyph glyph-name="eight" unicode="8" horiz-adv-x="3072" 
d="M2048 0q-213 0 -362 150q-150 150 -150 362v768q0 105 -75 181q-76 75 -181 75h-768q-213 0 -362 150q-150 150 -150 362v1536q0 212 150 361q150 151 362 151t361 -151q151 -150 151 -361v-768q0 -106 74 -182q76 -74 182 -74h768q212 0 361 -151q151 -150 151 -361
v-1536q0 -213 -151 -362q-150 -150 -361 -150v0z" />
    <glyph glyph-name="nine" unicode="9" horiz-adv-x="3072" 
d="M1280 2048q105 0 181 74q75 76 75 182v512q0 105 -75 181q-76 75 -181 75q-106 0 -182 -75q-74 -76 -74 -181v-512q0 -106 74 -182q76 -74 182 -74v0zM512 0q-213 0 -362 150q-150 150 -150 362v3072q0 212 150 361q150 151 362 151h1536q212 0 361 -151
q151 -150 151 -361v-2048q0 -213 -151 -362q-150 -150 -361 -150h-768q-106 0 -182 -75q-74 -76 -74 -181v-256q0 -213 -151 -362q-150 -150 -361 -150v0z" />
    <glyph glyph-name="A" unicode="A" 
d="M512 0q-213 0 -362 150q-150 150 -150 362v3072q0 212 150 361q150 151 362 151t361 -151q151 -150 151 -361v-768q0 -106 74 -182q76 -74 182 -74h512q105 0 181 74q75 76 75 182v768q0 212 150 361q150 151 362 151t361 -151q151 -150 151 -361v-3072q0 -213 -151 -362
q-150 -150 -361 -150q-213 0 -362 150q-150 150 -150 362v768q0 105 -75 181q-76 75 -181 75h-512q-106 0 -182 -75q-74 -76 -74 -181v-768q0 -213 -151 -362q-150 -150 -361 -150v0z" />
    <glyph glyph-name="B" unicode="B" horiz-adv-x="512" 
 />
    <glyph glyph-name="E" unicode="E" horiz-adv-x="4608" 
d="M512 0q-213 0 -362 150q-150 150 -150 362v3072q0 212 150 361q150 151 362 151h3072q212 0 361 -151q151 -150 151 -361v-3072q0 -213 -151 -362q-150 -150 -361 -150h-1536q-213 0 -362 150q-150 150 -150 362v1024q0 212 150 361q150 151 362 151t361 -151
q151 -150 151 -361v-512h512v1792q0 105 -75 181q-76 75 -181 75h-1536q-106 0 -182 -75q-74 -76 -74 -181v-2304q0 -213 -151 -362q-150 -150 -361 -150v0z" />
    <glyph glyph-name="H" unicode="H" horiz-adv-x="1536" 
d="M0 512v512q0 212 150 361q150 151 362 151h512v-512q0 -213 -151 -362q-150 -150 -361 -150h-512zM0 2048v512q0 212 150 361q150 151 362 151h512v-512q0 -213 -151 -362q-150 -150 -361 -150h-512z" />
    <glyph glyph-name="I" unicode="I" horiz-adv-x="4608" 
d="M0 0v512q0 212 150 361q150 151 362 151h512v-512q0 -213 -151 -362q-150 -150 -361 -150h-512zM1536 0v512q0 212 150 361q150 151 362 151h512v-512q0 -213 -151 -362q-150 -150 -361 -150h-512zM3072 0v2816q0 105 -75 181q-76 75 -181 75h-1536q-106 0 -182 -75
q-74 -76 -74 -181q0 -106 74 -182q76 -74 182 -74h256v-512q0 -213 -151 -362q-150 -150 -361 -150h-512q-213 0 -362 150q-150 150 -150 362v1536q0 212 150 361q150 151 362 151h3072q212 0 361 -151q151 -150 151 -361v-3072q0 -213 -151 -362q-150 -150 -361 -150h-512z
" />
    <glyph glyph-name="K" unicode="K" 
d="M512 0q-213 0 -362 150q-150 150 -150 362v3072q0 212 150 361q150 151 362 151h2048q212 0 361 -151q151 -150 151 -361v-3072q0 -213 -151 -362q-150 -150 -361 -150q-213 0 -362 150q-150 150 -150 362v2304q0 105 -75 181q-76 75 -181 75h-512q-106 0 -182 -75
q-74 -76 -74 -181v-1536q0 -106 74 -182q76 -74 182 -74h256v-512q0 -213 -151 -362q-150 -150 -361 -150h-512z" />
    <glyph glyph-name="M" unicode="M" horiz-adv-x="1536" 
d="M0 1536v512q0 212 150 361q150 151 362 151h512v-512q0 -213 -151 -362q-150 -150 -361 -150h-512z" />
    <glyph glyph-name="N" unicode="N" 
d="M512 0q-213 0 -362 150q-150 150 -150 362t150 361q150 151 362 151h1280q105 0 181 74q75 76 75 182v1536q0 105 -75 181q-76 75 -181 75h-1280q-213 0 -362 150q-150 150 -150 362t150 361q150 151 362 151h2048q212 0 361 -151q151 -150 151 -361v-3072
q0 -213 -151 -362q-150 -150 -361 -150h-2048z" />
    <glyph glyph-name="O" unicode="O" 
d="M512 0q-213 0 -362 150q-150 150 -150 362v1536q0 212 150 361q150 151 362 151h1280q105 0 181 74q75 76 75 182q0 105 -75 181q-76 75 -181 75h-1280q-213 0 -362 150q-150 150 -150 362t150 361q150 151 362 151h2048q212 0 361 -151q151 -150 151 -361v-1536
q0 -213 -151 -362q-150 -150 -361 -150h-1280q-106 0 -182 -75q-74 -76 -74 -181q0 -106 74 -182q76 -74 182 -74h1280q212 0 361 -151q151 -150 151 -361q0 -213 -151 -362q-150 -150 -361 -150h-2048z" />
    <glyph glyph-name="Q" unicode="Q" 
d="M512 0q-213 0 -362 150q-150 150 -150 362t150 361q150 151 362 151h1280q105 0 181 74q75 76 75 182q0 105 -75 181q-76 75 -181 75h-1280q-213 0 -362 150q-150 150 -150 362v1536q0 212 150 361q150 151 362 151t361 -151q151 -150 151 -361v-768q0 -106 74 -182
q76 -74 182 -74h512q105 0 181 74q75 76 75 182v768q0 212 150 361q150 151 362 151t361 -151q151 -150 151 -361v-3072q0 -213 -151 -362q-150 -150 -361 -150h-2048z" />
    <glyph glyph-name="U" unicode="U" 
d="M512 0q-213 0 -362 150q-150 150 -150 362v1536q0 212 150 361q150 151 362 151h256q105 0 181 74q75 76 75 182v768q0 212 150 361q150 151 362 151t361 -151q151 -150 151 -361v-1536q0 -213 -151 -362q-150 -150 -361 -150h-256q-106 0 -182 -75q-74 -76 -74 -181
q0 -106 74 -182q76 -74 182 -74h1280q212 0 361 -151q151 -150 151 -361q0 -213 -151 -362q-150 -150 -361 -150h-2048z" />
    <glyph glyph-name="V" unicode="V" 
d="M512 0q-213 0 -362 150q-150 150 -150 362v3072q0 212 150 361q150 151 362 151t361 -151q151 -150 151 -361v-768q0 -106 74 -182q76 -74 182 -74h512q105 0 181 74q75 76 75 182v768q0 212 150 361q150 151 362 151t361 -151q151 -150 151 -361v-1536q0 -213 -151 -362
q-150 -150 -361 -150h-1280q-106 0 -182 -75q-74 -76 -74 -181q0 -106 74 -182q76 -74 182 -74h1280q212 0 361 -151q151 -150 151 -361q0 -213 -151 -362q-150 -150 -361 -150h-2048z" />
    <glyph glyph-name="W" unicode="W" 
d="M512 0q-213 0 -362 150q-150 150 -150 362v3072q0 212 150 361q150 151 362 151t361 -151q151 -150 151 -361v-768q0 -106 74 -182q76 -74 182 -74h512q105 0 181 74q75 76 75 182v768q0 212 150 361q150 151 362 151t361 -151q151 -150 151 -361v-1536q0 -213 -151 -362
q-150 -150 -361 -150h-1280q-106 0 -182 -75q-74 -76 -74 -181q0 -106 74 -182q76 -74 182 -74h1280q212 0 361 -151q151 -150 151 -361q0 -213 -151 -362q-150 -150 -361 -150h-2048z" />
    <glyph glyph-name="X" unicode="X" horiz-adv-x="0" 
d="M-4096 4608q-212 0 -361 150q-151 150 -151 362t151 361q150 151 361 151h3072q213 0 362 -151q150 -150 150 -361q0 -213 -150 -362q-150 -150 -362 -150h-3072z" />
    <glyph glyph-name="Y" unicode="Y" 
d="M512 0q-213 0 -362 150q-150 150 -150 362v3072q0 212 150 361q150 151 362 151h2048q212 0 361 -151q151 -150 151 -361q0 -213 -151 -362q-150 -150 -361 -150h-1280q-106 0 -182 -75q-74 -76 -74 -181v-1536q0 -106 74 -182q76 -74 182 -74h512q105 0 181 74
q75 76 75 182v768q0 212 150 361q150 151 362 151t361 -151q151 -150 151 -361v-1536q0 -213 -151 -362q-150 -150 -361 -150h-2048z" />
    <glyph glyph-name="Z" unicode="Z" horiz-adv-x="0" 
d="M-4096 -1536q-212 0 -361 151q-151 150 -151 361q0 213 151 362q150 150 361 150h2304q106 0 182 75q74 76 74 181v768q0 212 151 361q150 151 361 151q213 0 362 -151q150 -150 150 -361v-1536q0 -212 -150 -361q-150 -151 -362 -151h-3072z" />
    <glyph glyph-name="a" unicode="a" horiz-adv-x="1536" 
d="M512 -1024q-213 0 -362 151q-150 150 -150 361v2048h-1024q-212 0 -361 150q-151 150 -151 362t151 361q150 151 361 151h1536q212 0 361 -151q151 -150 151 -361v-1792q0 -106 74 -182q76 -74 182 -74h256v-512q0 -212 -151 -361q-150 -151 -361 -151h-512z" />
    <glyph glyph-name="b" unicode="b" 
d="M512 0q-213 0 -362 150q-150 150 -150 362v3072q0 212 150 361q150 151 362 151t361 -151q151 -150 151 -361v-2304q0 -106 74 -182q76 -74 182 -74h512q105 0 181 74q75 76 75 182v2304q0 212 150 361q150 151 362 151t361 -151q151 -150 151 -361v-3072
q0 -213 -151 -362q-150 -150 -361 -150h-2048z" />
    <glyph glyph-name="c" unicode="c" 
d="M512 0q-213 0 -362 150q-150 150 -150 362v3072q0 212 150 361q150 151 362 151h2048q212 0 361 -151q151 -150 151 -361q0 -213 -151 -362q-150 -150 -361 -150h-1280q-106 0 -182 -75q-74 -76 -74 -181q0 -106 74 -182q76 -74 182 -74h768q212 0 361 -151
q151 -150 151 -361q0 -213 -151 -362q-150 -150 -361 -150h-768q-106 0 -182 -75q-74 -76 -74 -181q0 -106 74 -182q76 -74 182 -74h1280q212 0 361 -151q151 -150 151 -361q0 -213 -151 -362q-150 -150 -361 -150h-2048z" />
    <glyph glyph-name="d" unicode="d" horiz-adv-x="4608" 
d="M1280 1024q105 0 181 74q75 76 75 182v1536q0 105 -75 181q-76 75 -181 75q-106 0 -182 -75q-74 -76 -74 -181v-1536q0 -106 74 -182q76 -74 182 -74v0zM512 0q-213 0 -362 150q-150 150 -150 362v3072q0 212 150 361q150 151 362 151h3072q212 0 361 -151
q151 -150 151 -361v-3072q0 -213 -151 -362q-150 -150 -361 -150q-213 0 -362 150q-150 150 -150 362v2304q0 105 -75 181q-76 75 -181 75q-106 0 -182 -75q-74 -76 -74 -181v-2304q0 -213 -151 -362q-150 -150 -361 -150h-1536z" />
    <glyph glyph-name="e" unicode="e" horiz-adv-x="2048" 
d="M512 0q-213 0 -362 150q-150 150 -150 362v1536q0 212 150 361q150 151 362 151h1536q212 0 361 -151q151 -150 151 -361q0 -213 -151 -362q-150 -150 -361 -150h-768q-106 0 -182 -75q-74 -76 -74 -181q0 -106 74 -182q76 -74 182 -74h256v-512q0 -213 -151 -362
q-150 -150 -361 -150h-512z" />
    <glyph glyph-name="f" unicode="f" 
d="M512 0q-213 0 -362 150q-150 150 -150 362v3072q0 212 150 361q150 151 362 151t361 -151q151 -150 151 -361v-2304q0 -106 74 -182q76 -74 182 -74h512q105 0 181 74q75 76 75 182v2304q0 212 150 361q150 151 362 151t361 -151q151 -150 151 -361v-3072
q0 -213 -151 -362q-150 -150 -361 -150h-2048z" />
    <glyph glyph-name="g" unicode="g" 
d="M512 0q-213 0 -362 150q-150 150 -150 362v3072q0 212 150 361q150 151 362 151h2048q212 0 361 -151q151 -150 151 -361q0 -213 -151 -362q-150 -150 -361 -150h-1280q-106 0 -182 -75q-74 -76 -74 -181v-1536q0 -106 74 -182q76 -74 182 -74h1280q212 0 361 -151
q151 -150 151 -361q0 -213 -151 -362q-150 -150 -361 -150h-2048z" />
    <glyph glyph-name="h" unicode="h" horiz-adv-x="4608" 
d="M512 0q-213 0 -362 150q-150 150 -150 362v3072q0 212 150 361q150 151 362 151t361 -151q151 -150 151 -361v-2304q0 -106 74 -182q76 -74 182 -74q105 0 181 74q75 76 75 182v2304q0 212 150 361q150 151 362 151h1536q212 0 361 -151q151 -150 151 -361v-3072
q0 -213 -151 -362q-150 -150 -361 -150q-213 0 -362 150q-150 150 -150 362v2304q0 105 -75 181q-76 75 -181 75q-106 0 -182 -75q-74 -76 -74 -181v-2304q0 -213 -151 -362q-150 -150 -361 -150h-1536z" />
    <glyph glyph-name="i" unicode="i" horiz-adv-x="0" 
d="M-3072 4608q-212 0 -361 150q-151 150 -151 362t151 361q150 151 361 151h2048q213 0 362 -151q150 -150 150 -361q0 -213 -150 -362q-150 -150 -362 -150h-2048z" />
    <glyph glyph-name="j" unicode="j" 
d="M512 0q-213 0 -362 150q-150 150 -150 362v3072q0 212 150 361q150 151 362 151h2048q212 0 361 -151q151 -150 151 -361q0 -213 -151 -362q-150 -150 -361 -150h-1280q-106 0 -182 -75q-74 -76 -74 -181q0 -106 74 -182q76 -74 182 -74h768q212 0 361 -151
q151 -150 151 -361q0 -213 -151 -362q-150 -150 -361 -150h-768q-106 0 -182 -75q-74 -76 -74 -181q0 -106 74 -182q76 -74 182 -74h1280q212 0 361 -151q151 -150 151 -361q0 -213 -151 -362q-150 -150 -361 -150h-2048z" />
    <glyph glyph-name="k" unicode="k" horiz-adv-x="4608" 
d="M512 0q-213 0 -362 150q-150 150 -150 362v3072q0 212 150 361q150 151 362 151h3072q212 0 361 -151q151 -150 151 -361v-3072q0 -213 -151 -362q-150 -150 -361 -150q-213 0 -362 150q-150 150 -150 362v2304q0 105 -75 181q-76 75 -181 75q-106 0 -182 -75
q-74 -76 -74 -181v-2304q0 -213 -151 -362q-150 -150 -361 -150q-213 0 -362 150q-150 150 -150 362v2304q0 105 -75 181q-76 75 -181 75q-106 0 -182 -75q-74 -76 -74 -181v-2304q0 -213 -151 -362q-150 -150 -361 -150v0z" />
    <glyph glyph-name="l" unicode="l" horiz-adv-x="4608" 
d="M512 0q-213 0 -362 150q-150 150 -150 362v3072q0 212 150 361q150 151 362 151h1536q212 0 361 -151q151 -150 151 -361v-2304q0 -106 74 -182q76 -74 182 -74q105 0 181 74q75 76 75 182v2304q0 212 150 361q150 151 362 151t361 -151q151 -150 151 -361v-3072
q0 -213 -151 -362q-150 -150 -361 -150h-1536q-213 0 -362 150q-150 150 -150 362v2304q0 105 -75 181q-76 75 -181 75q-106 0 -182 -75q-74 -76 -74 -181v-2304q0 -213 -151 -362q-150 -150 -361 -150v0z" />
    <glyph glyph-name="m" unicode="m" horiz-adv-x="4608" 
d="M512 0q-213 0 -362 150q-150 150 -150 362v3072q0 212 150 361q150 151 362 151t361 -151q151 -150 151 -361v-768q0 -106 74 -182q76 -74 182 -74h768q212 0 361 -151q151 -150 151 -361q0 -213 -151 -362q-150 -150 -361 -150h-768q-106 0 -182 -75q-74 -76 -74 -181
q0 -106 74 -182q76 -74 182 -74h1536q105 0 181 74q75 76 75 182v2304q0 212 150 361q150 151 362 151t361 -151q151 -150 151 -361v-3072q0 -213 -151 -362q-150 -150 -361 -150h-3072z" />
    <glyph glyph-name="n" unicode="n" 
d="M512 0q-213 0 -362 150q-150 150 -150 362v3072q0 212 150 361q150 151 362 151t361 -151q151 -150 151 -361v-2304q0 -106 74 -182q76 -74 182 -74h1280q212 0 361 -151q151 -150 151 -361q0 -213 -151 -362q-150 -150 -361 -150h-2048z" />
    <glyph glyph-name="o" unicode="o" horiz-adv-x="1536" 
d="M512 -1024q-213 0 -362 151q-150 150 -150 361v2048h-1024q-212 0 -361 150q-151 150 -151 362t151 361q150 151 361 151h1536q212 0 361 -151q151 -150 151 -361v-1792q0 -106 74 -182q76 -74 182 -74h256v-512q0 -212 -151 -361q-150 -151 -361 -151h-512z" />
    <glyph glyph-name="p" unicode="p" 
d="M512 0q-213 0 -362 150q-150 150 -150 362v3072q0 212 150 361q150 151 362 151t361 -151q151 -150 151 -361v-2304q0 -106 74 -182q76 -74 182 -74h512q105 0 181 74q75 76 75 182v2304q0 212 150 361q150 151 362 151t361 -151q151 -150 151 -361v-3072
q0 -213 -151 -362q-150 -150 -361 -150h-2048z" />
    <glyph glyph-name="q" unicode="q" horiz-adv-x="0" 
d="M-1024 -1024q-212 0 -361 151q-151 150 -151 361v1024h1024v-256q0 -106 75 -182q76 -74 181 -74h256v-512q0 -212 -150 -361q-150 -151 -362 -151h-512z" />
    <glyph glyph-name="r" unicode="r" horiz-adv-x="4608" 
d="M512 0q-213 0 -362 150q-150 150 -150 362v3072q0 212 150 361q150 151 362 151h1536q212 0 361 -151q151 -150 151 -361v-2304q0 -106 74 -182q76 -74 182 -74q105 0 181 74q75 76 75 182v2304q0 212 150 361q150 151 362 151t361 -151q151 -150 151 -361v-3072
q0 -213 -151 -362q-150 -150 -361 -150h-1536q-213 0 -362 150q-150 150 -150 362v2304q0 105 -75 181q-76 75 -181 75q-106 0 -182 -75q-74 -76 -74 -181v-2304q0 -213 -151 -362q-150 -150 -361 -150v0z" />
    <glyph glyph-name="s" unicode="s" horiz-adv-x="4608" 
d="M512 0q-213 0 -362 150q-150 150 -150 362v3072q0 212 150 361q150 151 362 151h3072q212 0 361 -151q151 -150 151 -361v-3072q0 -213 -151 -362q-150 -150 -361 -150q-213 0 -362 150q-150 150 -150 362v768q0 105 -75 181q-76 75 -181 75h-768q-213 0 -362 150
q-150 150 -150 362t150 361q150 151 362 151h768q105 0 181 74q75 76 75 182q0 105 -75 181q-76 75 -181 75h-1536q-106 0 -182 -75q-74 -76 -74 -181v-1536q0 -106 74 -182q76 -74 182 -74h256v-512q0 -213 -151 -362q-150 -150 -361 -150h-512z" />
    <glyph glyph-name="t" unicode="t" horiz-adv-x="4608" 
d="M1280 1024q105 0 181 74q75 76 75 182v1536q0 105 -75 181q-76 75 -181 75q-106 0 -182 -75q-74 -76 -74 -181v-1536q0 -106 74 -182q76 -74 182 -74v0zM512 0q-213 0 -362 150q-150 150 -150 362v3072q0 212 150 361q150 151 362 151h3072q212 0 361 -151
q151 -150 151 -361v-3072q0 -213 -151 -362q-150 -150 -361 -150q-213 0 -362 150q-150 150 -150 362v2304q0 105 -75 181q-76 75 -181 75q-106 0 -182 -75q-74 -76 -74 -181v-2304q0 -213 -151 -362q-150 -150 -361 -150h-1536z" />
    <glyph glyph-name="u" unicode="u" horiz-adv-x="0" 
d="M-3072 -1536q-212 0 -361 151q-151 150 -151 361q0 213 151 362q150 150 361 150h1280q106 0 182 75q74 76 74 181v768q0 212 151 361q150 151 361 151q213 0 362 -151q150 -150 150 -361v-1536q0 -212 -150 -361q-150 -151 -362 -151h-2048z" />
    <glyph glyph-name="v" unicode="v" 
d="M1792 1024q105 0 181 74q75 76 75 182v1536q0 105 -75 181q-76 75 -181 75h-512q-106 0 -182 -75q-74 -76 -74 -181v-1536q0 -106 74 -182q76 -74 182 -74h512zM512 0q-213 0 -362 150q-150 150 -150 362v3072q0 212 150 361q150 151 362 151h2048q212 0 361 -151
q151 -150 151 -361v-3072q0 -213 -151 -362q-150 -150 -361 -150h-2048z" />
    <glyph glyph-name="w" unicode="w" 
d="M1792 1024q105 0 181 74q75 76 75 182v1536q0 105 -75 181q-76 75 -181 75h-512q-106 0 -182 -75q-74 -76 -74 -181v-1536q0 -106 74 -182q76 -74 182 -74h512zM512 0q-213 0 -362 150q-150 150 -150 362v3072q0 212 150 361q150 151 362 151h2048q212 0 361 -151
q151 -150 151 -361v-3072q0 -213 -151 -362q-150 -150 -361 -150h-2048z" />
    <glyph glyph-name="y" unicode="y" horiz-adv-x="4608" 
d="M512 0q-213 0 -362 150q-150 150 -150 362v3072q0 212 150 361q150 151 362 151t361 -151q151 -150 151 -361v-2304q0 -106 74 -182q76 -74 182 -74q105 0 181 74q75 76 75 182v2304q0 212 150 361q150 151 362 151t361 -151q151 -150 151 -361v-2304q0 -106 74 -182
q76 -74 182 -74q105 0 181 74q75 76 75 182v2304q0 212 150 361q150 151 362 151t361 -151q151 -150 151 -361v-3072q0 -213 -151 -362q-150 -150 -361 -150h-3072z" />
    <glyph glyph-name="z" unicode="z" 
d="M512 0q-213 0 -362 150q-150 150 -150 362v3072q0 212 150 361q150 151 362 151h2048q212 0 361 -151q151 -150 151 -361q0 -213 -151 -362q-150 -150 -361 -150h-1280q-106 0 -182 -75q-74 -76 -74 -181q0 -106 74 -182q76 -74 182 -74h768q212 0 361 -151
q151 -150 151 -361q0 -213 -151 -362q-150 -150 -361 -150h-768q-106 0 -182 -75q-74 -76 -74 -181q0 -106 74 -182q76 -74 182 -74h1280q212 0 361 -151q151 -150 151 -361q0 -213 -151 -362q-150 -150 -361 -150h-2048z" />
    <glyph glyph-name="quoteleft" unicode="&#x2018;" horiz-adv-x="2560" 
d="M2048 0l-2048 2048l2048 2048v-1024l-1024 -1024l1024 -1024v-1024v0z" />
    <glyph glyph-name="quoteright" unicode="&#x2019;" horiz-adv-x="2560" 
d="M0 0v1024l1024 1024l-1024 1024v1024l2048 -2048l-2048 -2048v0z" />
    <glyph glyph-name="quotedblleft" unicode="&#x201c;" horiz-adv-x="2560" 
d="M2048 0l-2048 2048l2048 2048v-1024l-1024 -1024l1024 -1024v-1024v0z" />
    <glyph glyph-name="quotedblright" unicode="&#x201d;" horiz-adv-x="2560" 
d="M0 0v1024l1024 1024l-1024 1024v1024l2048 -2048l-2048 -2048v0z" />
  </font>
</defs>
</svg>
