<?xml version="1.0" standalone="no"?>
<!DOCTYPE svg PUBLIC "-//W3C//DTD SVG 1.1//EN" "http://www.w3.org/Graphics/SVG/1.1/DTD/svg11.dtd" >
<svg xmlns="http://www.w3.org/2000/svg" xmlns:xlink="http://www.w3.org/1999/xlink" version="1.1">
<metadata>
Created by FontForge 20191125 at Fri Feb 23 14:50:30 2018
 By convertio
Copyright 2015 The Mina Project Authors, with Reserved Font Name 'Exo'
</metadata>
<defs>
<font id="Mina-Regular" horiz-adv-x="0" >
  <font-face 
    font-family="Mina"
    font-weight="400"
    font-stretch="normal"
    units-per-em="1000"
    panose-1="2 0 5 3 0 0 0 0 0 0"
    ascent="800"
    descent="-200"
    x-height="531"
    cap-height="732"
    bbox="-636 -487 1440 1002"
    underline-thickness="24"
    underline-position="-48"
    unicode-range="U+0020-FB06"
  />
<missing-glyph horiz-adv-x="364" 
d="M33 0v666h265v-666h-265zM66 33h199v600h-199v-600z" />
    <glyph glyph-name=".notdef" horiz-adv-x="364" 
d="M33 0v666h265v-666h-265zM66 33h199v600h-199v-600z" />
    <glyph glyph-name=".null" 
 />
    <glyph glyph-name="nonmarkingreturn" horiz-adv-x="333" 
 />
    <glyph glyph-name="bnA" unicode="&#x985;" horiz-adv-x="930" 
d="M291 446l-8 53q134 19 214 19q94 0 140 -45.5t46 -113.5q0 -32 -12 -67l-17 -41l113 -42v364h-781v63h960v-63h-106v-573h-73v139l-149 50q-43 -55 -124 -92q-37 -17 -76 -17q-100 0 -197 102q-33 35 -74.5 90t-66.5 92l-26 38l37 27l180 -195q74 -81 145 -81q27 0 53 12
q49 22 85 63t49 76q11 29 11 57q0 46 -32 65.5t-102 19.5h-189z" />
    <glyph glyph-name="bnAA" unicode="&#x986;" horiz-adv-x="1075" 
d="M949 573h-109v-573h-73v139l-149 50q-5 -6 -14 -16.5t-41.5 -35t-68.5 -40.5q-37 -17 -76 -17q-100 0 -197 102q-33 35 -74.5 90t-67.5 92l-25 38l37 27l180 -195q74 -81 145 -81q28 0 53 12q34 15 63.5 42t46 51.5t24.5 45.5q11 29 11 57q0 31 -14.5 49.5t-43.5 27
t-76 8.5h-189l-8 53q134 19 214 19q94 0 140 -45.5t46 -113.5q0 -32 -12 -67l-17 -41l113 -42v364h-781v63h894l72 -8l-4 74h40l23 -66h74v-63h-63v-573h-73v573z" />
    <glyph glyph-name="bnTA" unicode="&#x9a4;" horiz-adv-x="729" 
d="M769 636v-63h-803v63h803zM469 57q-44 -20 -84 -20q-52 0 -97 24t-100 80q-34 35 -73.5 90.5t-61.5 92t-22 37.5l37 27l170 -195q71 -81 145 -81q33 0 61 13q50 23 95.5 73t59.5 88q15 41 15 74q0 44 -31.5 64t-99.5 20h-204l-8 52q158 20 229 20q97 0 140.5 -43
t43.5 -115q0 -41 -16 -84q-27 -73 -79.5 -129.5t-119.5 -87.5z" />
    <glyph glyph-name="bnI" unicode="&#x987;" horiz-adv-x="585" 
d="M314 443h-210l-8 53q124 21 219 21q50 0 85 -11t53.5 -27t28 -45.5t11.5 -53t2 -63.5q0 -24 -16.5 -46t-42.5 -38.5t-57.5 -30.5t-63 -23t-57.5 -15.5t-42.5 -9.5l-16.5 -3q93 -53 293 -169l-25 -47q-27 11 -72 30.5t-150 71t-171 93.5l8 78q4 1 11.5 2t31 4.5t46 8
t53 11.5t57 14.5t53 18t45.5 21.5t31 25t12 29q0 67 -23.5 84t-84.5 17zM406 636q0 41 -14 56.5t-50 15.5h-261l-4 50q211 14 271 14q46 0 75 -18t41 -47.5t12 -70.5h120v-63h-610v63h420z" />
    <glyph glyph-name="e" unicode="e" horiz-adv-x="525" 
d="M50 268q0 88 12 141.5t43.5 81t70 36t106.5 8.5q55 0 86 -5t61 -23t43 -57t13 -103q0 -122 -137 -122h-224q0 -93 21 -124.5t80 -31.5h21h21q140 0 208 10v-56q-99 -28 -250 -28q-101 0 -138 58t-37 215zM124 298h224q63 0 63 49q0 77 -22.5 95.5t-105.5 18.5
q-35 0 -51.5 -1t-39 -5.5t-32 -14.5t-20 -28t-13.5 -46t-3 -68z" />
    <glyph glyph-name="bnHA" unicode="&#x9b9;" horiz-adv-x="565" 
d="M314 443h-210l-8 53q124 21 219 21q50 0 85 -11t53.5 -27t28 -45.5t11.5 -53t2 -63.5q0 -24 -16.5 -46t-42.5 -38.5t-57.5 -30.5t-63 -23t-57.5 -15.5t-42.5 -9.5l-16.5 -3q93 -53 293 -169l-25 -47q-27 11 -72 30.5t-150 71t-171 93.5l8 78q4 1 11.5 2t31 4.5t46 8
t53 11.5t57 14.5t53 18t45.5 21.5t31 25t12 29q0 67 -23.5 84t-84.5 17zM576 636v-63h-590v63h590z" />
    <glyph glyph-name="bnU" unicode="&#x989;" horiz-adv-x="750" 
d="M527 636q0 40 -14 54.5t-50 14.5h-326l-4 53q277 14 336 14q128 0 128 -136h162v-63h-361v-161q84 16 152 16q66 0 102.5 -34.5t36.5 -82.5q0 -138 -152 -265q-55 -46 -125 -46q-81 0 -167 97q-55 62 -97.5 137t-57.5 120l-16 44l47 18q102 -174 164 -249
q25 -30 40 -45.5t40 -30.5t50 -15q44 0 87 39q115 101 115 185q0 56 -73 56q-24 0 -79 -4t-97 -8l-43 -4v233h-339v63h541z" />
    <glyph glyph-name="bnDDA" unicode="&#x9a1;" horiz-adv-x="735" 
d="M746 636v-63h-359v-161q84 16 152 16q45 0 77 -17t47 -43t15 -57q0 -138 -152 -265q-56 -46 -125 -46q-81 0 -167 97q-109 124 -166 285l-5 16l47 18q103 -174 164 -249q9 -10 14.5 -17t14 -16.5t15.5 -15.5t15.5 -13.5t16 -12t16.5 -8.5t18.5 -6t19.5 -2q43 0 87 39
q116 101 116 185q0 56 -74 56q-54 0 -219 -16v233h-328v63h760z" />
    <glyph glyph-name="bnDDxA" unicode="&#x9dc;" horiz-adv-x="740" 
d="M749 636v-63h-372v-161q84 16 152 16q45 0 77 -17t47 -43t15 -57q0 -138 -152 -265q-16 -14 -35 -24t-42.5 -16t-47.5 -6q-81 0 -167 97q-109 124 -166 285l-5 16l47 18q103 -174 164 -249q24 -29 39.5 -45.5t40.5 -31t50 -14.5q43 0 87 39q116 101 116 185q0 56 -74 56
q-54 0 -219 -16v233h-318v63h763zM301 -137v67q0 10 2.5 13t12.5 3h64q11 0 13.5 -3t2.5 -13v-67q0 -11 -3 -13t-13 -2h-64q-9 0 -12 3t-3 12z" />
    <glyph glyph-name="bnUU" unicode="&#x98a;" horiz-adv-x="750" 
d="M256 86q-56 46 -108 103.5t-76 91.5l-23 34l37 33l146 -163q-15 14 -37 72t-37 109l-15 51l49 18q61 -194 117 -268q68 -91 130 -91q44 0 87 39q115 101 115 185q0 56 -73 56q-24 0 -79 -4t-97 -8l-43 -4v233h-363v63h565q0 40 -14 54.5t-50 14.5h-326l-4 53
q277 14 336 14q128 0 128 -136h138v-63h-337v-161q84 16 152 16q66 0 102.5 -34.5t36.5 -82.5q0 -138 -152 -265q-55 -46 -125 -46q-75 0 -180 86z" />
    <glyph glyph-name="bnKA" unicode="&#x995;" horiz-adv-x="860" 
d="M521 457v-457h-73l-372 276v86l372 170v41h-457v63h886v-63h-356v-41l187 -64q26 -8 47.5 -23.5t37 -41t15.5 -55.5q0 -34 -19 -71q-14 -28 -35 -56.5t-35 -42.5l-14 -14l-48 33l64 110q14 23 14 40q0 42 -78 65zM448 89v365l-301 -143z" />
    <glyph glyph-name="bnvR" unicode="&#x98b;" horiz-adv-x="790" 
d="M638 160l-121 37v-197h-73l-388 240v81l280 122l-29 62q-77 -54 -146 -54q-51 0 -80 28t-29 74q0 41 30 61q15 10 36.5 16t35.5 8l14 1l9 -40q-15 -4 -43 -16q-18 -8 -18 -29q0 -18 13 -31q11 -11 34 -11q57 0 164 71l2 2q6 4 8 0l55 -117l52 23v145l73 -1v-365l121 -43
v409l-5 66h41l23 -66h105v-63h-91v-534h-73v121zM444 82v336l-317 -143z" />
    <glyph glyph-name="bnJHA" unicode="&#x99d;" horiz-adv-x="780" 
d="M520 271l121 -44v409l-5 66h44l23 -66h91v-63h-80v-534h-73v121l-121 38v-198h-73l-378 281v81l378 170v41h-461v63h534v-365zM447 82v377l-307 -143z" />
    <glyph glyph-name="bnDHA" unicode="&#x9a7;" horiz-adv-x="575" 
d="M447 94v360l-303 -140zM279 455l168 75v106l-4 66h44l23 -66h77v-63h-67v-573h-73l-378 281v79l136 62q-5 1 -13.5 4.5t-29.5 14.5t-37.5 24t-30 33.5t-13.5 41.5q0 39 26.5 80t62.5 41q24 0 53 -6t46 -12l17 -6l-10 -42q-52 10 -83 10q-21 0 -35 -19.5t-14 -43.5
q0 -20 34 -41.5t68 -33.5z" />
    <glyph glyph-name="bnBA" unicode="&#x9ac;" horiz-adv-x="585" 
d="M520 573v-573h-73l-378 273v89l378 170v41h-461v63h609v-63h-75zM447 94v360l-303 -140z" />
    <glyph glyph-name="bnRA" unicode="&#x9b0;" horiz-adv-x="585" 
d="M128 6v67q0 10 2.5 13t12.5 3h64q8 0 11 -1t4 -4t1 -11v-67q0 -10 -3 -12.5t-13 -2.5h-64q-9 0 -12 3t-3 12zM521 573l-1 -573h-73l-378 273v89l378 170v41h-461v63h609v-63h-74zM447 94v360l-303 -140z" />
    <glyph glyph-name="bnE" unicode="&#x98f;" horiz-adv-x="675" 
d="M181 420l-30 38q23 23 39 38.5t40.5 38.5t45.5 37.5t46 29t50 21.5t50 7q34 0 65.5 -9t59 -27.5t44 -52.5t16.5 -78v-463h-73v84q-14 -9 -37 -23t-80.5 -37.5t-99.5 -23.5q-34 0 -57.5 2.5t-65 24t-69.5 62.5q-37 54 -70 165l42 22l82 -131q46 -73 141 -73q40 0 93.5 22
t86.5 44l34 22v297q0 12 -3.5 24t-9.5 23t-15 20.5t-20.5 16.5t-26 11t-30.5 4q-35 0 -97 -34t-106 -68z" />
    <glyph glyph-name="bnAI" unicode="&#x990;" horiz-adv-x="800" 
d="M596 279v-279h-73v84q-14 -9 -37 -23t-80.5 -37.5t-99.5 -23.5q-33 0 -56.5 2.5t-64 24t-68.5 62.5q-42 61 -73 165l42 22l82 -131q46 -73 141 -73q40 0 93.5 22t87.5 44l33 22v297q0 12 -3.5 24t-9.5 23t-15 20.5t-20.5 16.5t-26 11t-30.5 4q-35 0 -97 -34t-106 -68
l-45 -34l-30 38q23 23 39 38.5t40.5 38.5t45.5 37.5t46 29t50 21.5t50 7q34 0 65.5 -9t59 -27.5t44 -52.5t16.5 -78v-114q41 0 59 14.5t18 49.5v326l59 4q14 -278 14 -336q0 -128 -150 -128z" />
    <glyph glyph-name="bnNYA" unicode="&#x99e;" horiz-adv-x="925" 
d="M627 500q9 2 23 5t45 8.5t47 5.5q31 0 46.5 -2t35 -12t28 -34.5t8.5 -65.5v-8q0 -79 -45 -86q44 -8 44 -87v-9q0 -32 -7.5 -54.5t-16.5 -33.5t-27.5 -16.5t-30.5 -6.5t-35 -1q-24 0 -53 4.5t-45 8.5l-17 5v-121h-74v84q-14 -9 -37 -23t-80.5 -37.5t-99.5 -23.5
q-34 0 -57.5 2.5t-65 24t-69.5 62.5q-37 54 -70 165l40 25l84 -134q46 -73 141 -73q40 0 93.5 22t87.5 44l33 22v297q0 18 -7.5 35t-20.5 31t-33.5 22t-43.5 8q-22 0 -55.5 -13.5t-66 -33.5t-61.5 -39.5t-47 -32.5l-18 -14l-30 38q63 72 134.5 122t136.5 50q32 0 60 -7
t46.5 -18.5t33.5 -25.5t23 -28t13.5 -25.5t7.5 -18.5zM627 174q75 -8 115 -8q46 0 46 42v21q0 28 -12 38.5t-41 10.5h-53v60h53q29 0 41 10.5t12 38.5v25q0 42 -44 42q-18 0 -47.5 -2.5t-49.5 -5.5l-20 -2v-270z" />
    <glyph glyph-name="bnTTA" unicode="&#x99f;" horiz-adv-x="600" 
d="M409 403q52 0 81 -30t29 -77q0 -30 -22 -82q-40 -93 -135 -153.5t-161 -60.5q-55 0 -91.5 37t-36.5 122v414h-96v63h448q0 96 -64 96h-375l-4 53q317 14 385 14q44 0 74 -25t42 -60.5t12 -77.5h115v-63h-464v-404q0 -49 12 -72t47 -23q45 0 109.5 39.5t103.5 99.5
q30 46 30 78q0 46 -58 46h-98l-6 60q89 6 123 6z" />
    <glyph glyph-name="bnDDHA" unicode="&#x9a2;" horiz-adv-x="620" 
d="M700 636v-63h-473v-404q0 -49 12.5 -72t46.5 -23q21 0 49 10t57.5 27.5t58.5 44t48 57.5q30 46 30 78q0 17 -8.5 27.5t-21 14.5t-28.5 4h-98l-6 60q89 6 123 6q52 0 81 -30t29 -77q0 -30 -22 -82q-17 -40 -46.5 -75.5t-62.5 -60t-68.5 -43t-66 -27t-52.5 -8.5
q-55 0 -91.5 37t-36.5 122v414h-87v63h633z" />
    <glyph glyph-name="bnDDHxA" unicode="&#x9dd;" horiz-adv-x="600" 
d="M141 -139v67q0 10 2.5 13t12.5 3h64q11 0 13.5 -3t2.5 -13v-67q0 -11 -3 -13t-13 -2h-64q-9 0 -12 3t-3 12zM74 573h-87v63h625v-63h-465v-404q0 -49 12 -72t47 -23q45 0 109.5 39.5t103.5 99.5q30 46 30 78q0 46 -58 46h-98l-6 60q89 6 123 6q52 0 81 -30t29 -77
q0 -30 -22 -82q-40 -93 -135 -153.5t-161 -60.5q-55 0 -91.5 37t-36.5 122v414z" />
    <glyph glyph-name="bnYA" unicode="&#x9af;" horiz-adv-x="665" 
d="M603 573v-573h-73l-374 197v75q178 74 178 117q0 7 -12 18.5t-31 25t-41.5 28.5t-45.5 28.5t-42 24.5t-31 17l-12 7l16 35h-103v63h641v-63h-70zM530 573h-360q101 -44 171 -86q22 -13 35.5 -23.5t26 -29t12.5 -39.5q0 -44 -34.5 -77.5t-130.5 -83.5l280 -149v488z" />
    <glyph glyph-name="bnYxA" unicode="&#x9df;" horiz-adv-x="625" 
d="M184 -21v67q0 10 2.5 13t12.5 3h64q11 0 13.5 -3t2.5 -13v-67q0 -11 -3 -13t-13 -2h-64q-9 0 -12 3t-3 12zM563 573v-573h-73l-373 197l-1 75q7 3 19 8.5t43 20.5t54.5 28.5t42.5 30.5t19 29q0 14 -53.5 51.5t-107.5 67.5l-54 30l16 35h-103v63h641v-63h-70zM490 573
h-360q101 -44 171 -86q22 -13 35.5 -23.5t26 -29t12.5 -39.5q0 -44 -34.5 -77.5t-130.5 -83.5l280 -149v488z" />
    <glyph glyph-name="bnSSA" unicode="&#x9b7;" horiz-adv-x="625" 
d="M553 573v-573h-73l-374 197v75q7 3 19 8.5t43 20.5t54.5 28.5t42.5 30.5t19 29q0 14 -53.5 51.5t-107.5 67.5l-54 30l16 35h-93v63h645v-63h-84zM291 487q113 -58 189 -58v144h-360q101 -50 171 -86zM363 374q0 -3 -1 -7.5t-10 -19.5t-24.5 -30.5t-50 -38.5t-81.5 -45
l284 -148v268q-23 0 -52.5 5t-46.5 11z" />
    <glyph glyph-name="bnPHA" unicode="&#x9ab;" horiz-adv-x="845" 
d="M109 573q101 -44 171 -86q22 -13 35.5 -23.5t26 -29t12.5 -39.5q0 -45 -34 -78.5t-129 -82.5l272 -149v408h168q156 0 156 -123q0 -30 -21 -72q-10 -20 -31 -46t-37 -42l-17 -16l-51 34q42 62 62 93q19 29 19 54q0 46 -77 46h-98v-421h-73l-367 197v75q7 3 19 8.5
t42.5 20.5t54 28.5t42.5 30.5t19 29q0 14 -53.5 51.5t-107.5 67.5l-54 30l16 35h-88v63h869v-63h-746z" />
    <glyph glyph-name="bnGHA" unicode="&#x998;" horiz-adv-x="693" 
d="M260 573q-2 -3 -5 -8.5t-11.5 -20t-15 -26.5t-12 -25.5t-5.5 -20.5q0 -17 8 -26q5 -5 16.5 -8.5t29 -5.5t36.5 -2.5t44 -0.5h39h40h16l21 -87l-206 -117l301 -143v491h-296zM629 573v-573h-73l-384 185v75l198 105h-50q-137 0 -169 43q-13 18 -13 43q0 23 14.5 53.5
t28.5 49.5l14 19h-112v63h621v-63h-75z" />
    <glyph glyph-name="bnBHA" unicode="&#x9ad;" horiz-adv-x="825" 
d="M432 264q-83 0 -123 26t-40 93q0 91 27 117q17 16 69 16q15 0 36 -2.5t34 -4.5l13 -3l-6 -54h-74q-25 0 -25 -76q0 -24 19.5 -30.5t63.5 -6.5q22 0 46 16.5t42 35.5t39.5 35.5t39.5 16.5q43 0 97 -64t54 -102q0 -49 -65.5 -112.5t-143.5 -103.5q-57 -29 -114 -29
q-100 0 -208 108q-36 36 -74 87.5t-58 84.5l-20 33l42 31l150 -166q88 -99 164 -99q47 0 92 24q53 28 102.5 70t49.5 72q0 16 -25.5 48t-44.5 32q-8 0 -23.5 -14.5t-32 -32t-44.5 -32t-59 -14.5zM834 573h-845v63h845v-63z" />
    <glyph glyph-name="bnKHA" unicode="&#x996;" horiz-adv-x="670" 
d="M470 386l-258 -115l330 -186v551l-5 66h44l23 -66h74v-63h-63v-573h-73l-409 233v83l255 111q-14 33 -23 56q-5 12 -14 12q-6 0 -36 -13.5t-64.5 -26.5t-52.5 -13q-22 0 -35 6.5t-30 23.5q-13 14 -23 36.5t-10 41.5t6.5 35.5t19.5 28.5q15 14 39.5 20t41.5 4l17 -1
l12 -40q-18 -7 -46 -20q-21 -10 -21 -28q0 -7 9 -24q4 -7 6 -10t8 -6t16 -3q16 0 82.5 33.5t86.5 33.5q31 0 41 -27z" />
    <glyph glyph-name="bnTHA" unicode="&#x9a5;" horiz-adv-x="661" 
d="M244 529h-149l-8 57l85 14q41 5 73 5q59 0 95.5 -9.5t55.5 -31.5t25 -49.5t6 -73.5q0 -80 -156 -146q-40 -17 -73 -26l324 -187v629h46l19 -75h82v-63h-74v-573h-73l-405 231v87l82 25q155 54 156 111q0 33 -7 47t-30 21t-74 7z" />
    <glyph glyph-name="bnCA" unicode="&#x99a;" horiz-adv-x="706" 
d="M239 405v-239q0 -47 14.5 -71t50.5 -24q43 0 114 48.5t111 109.5q30 46 30 78q0 24 -13.5 33t-44.5 15zM239 463q71 -8 109 -12q144 -17 172 -22q110 -19 110 -117q0 -39 -25 -86q-49 -92 -140.5 -159t-162.5 -67q-26 0 -49 8t-43.5 25.5t-32 49.5t-11.5 76v414h-94v63
h645v-63h-478v-110z" />
    <glyph glyph-name="bnCHA" unicode="&#x99b;" horiz-adv-x="660" 
d="M343 344q20 17 20 41q0 19 -14 30t-25 13.5t-41 7.5l-137 24v-140q1 -29 16 -41.5t33 -12.5q54 0 148 78zM430 405q4 -15 4 -24q0 -44 -59 -92q-112 -91 -188 -91q-38 0 -76 29t-38 85v261h-87v63h686v-63h-526v-57q88 -12 146 -20q123 -18 183 -32q58 -14 87 -40t29 -79
q0 -31 -12 -98q-4 -22 -31.5 -45.5t-63 -40.5t-71.5 -31t-59.5 -21t-24.5 -7l246 -99l-16 -47q-235 66 -331 118v72q11 3 29.5 7.5t66 19.5t84.5 30t69.5 36.5t37.5 41.5q6 25 6 59q0 21 -8.5 31.5t-36.5 20.5q-12 5 -24 8t-17 4z" />
    <glyph glyph-name="bnNGA" unicode="&#x999;" horiz-adv-x="690" 
d="M305 290v148q-74 21 -128 49l-36 19l23 46l141 -52q0 72 26 102q17 19 38 27t64 8q31 0 48.5 -1t38 -6.5t31 -16.5t17.5 -31t7 -50q0 -53 -19 -77t-73 -24h-113v-82q113 11 155 11q26 0 48 -7t36.5 -19.5t23 -30t8.5 -36.5q0 -60 -48.5 -116t-122.5 -101
q-25 -15 -56.5 -24.5t-54.5 -9.5q-79 0 -159 90q-42 47 -84.5 120.5t-63.5 123.5l-22 51l47 18q104 -180 172 -255q34 -38 59 -56t51 -18q14 0 33 5t36 15q141 80 141 147q0 33 -65 33h-199zM370 491h96q47 0 47 34q0 32 -10.5 39t-62.5 7q-48 0 -59 -11.5t-11 -68.5z" />
    <glyph glyph-name="bnNA" unicode="&#x9a8;" horiz-adv-x="670" 
d="M538 288q-7 3 -20 8t-48.5 17t-66.5 21.5t-65.5 17t-54.5 7.5q-7 0 -13 -1t-11.5 -3t-10.5 -5.5t-9 -7t-7.5 -8t-6.5 -9.5t-5.5 -10.5t-4 -11t-2 -11.5t-0.5 -11t0.5 -9t1.5 -8.5t2.5 -8t3.5 -7.5q12 -20 34.5 -46t39.5 -41l16 -16l-35 -45q-70 52 -91 73q-46 47 -46 116
q0 65 44 104q24 22 50.5 30.5t63.5 8.5q34 0 94 -19t104.5 -38t42.5 -19v217h-472v63h614v-63h-69v-573h-73v288z" />
    <glyph glyph-name="bnNNA" unicode="&#x9a3;" horiz-adv-x="575" 
d="M505 573v-573h-73v460q-14 8 -38 20t-82 32t-99 20q-12 0 -23 -5t-20.5 -13.5t-18 -19t-14.5 -22t-9 -22.5t-3 -21q0 -24 23.5 -60t47.5 -60l24 -24l-36 -40q-53 31 -91 73q-13 14 -23 30.5t-16.5 37t-6.5 40.5q0 36 23 80t47 65q8 6 15 11t13.5 9t13.5 6.5t14 4.5
t14.5 3t14.5 1.5t16 0.5q32 0 63 -8q35 -9 72.5 -23.5t58.5 -25.5l20 -10v96l22 83h51v-83h81v-63h-81z" />
    <glyph glyph-name="bnGA" unicode="&#x997;" horiz-adv-x="540" 
d="M401 502l-137 29q-3 1 -11.5 3t-14.5 3t-15.5 3t-17.5 3.5t-16.5 3t-16 2t-12.5 0.5q-16 0 -37 -30.5t-21 -51.5q0 -12 14 -19.5t47.5 -18t51.5 -17.5q28 -11 39 -21.5t18 -29.5q5 -12 11.5 -44t6.5 -53q0 -7 -5.5 -16t-15.5 -18t-22 -18.5t-26 -19t-28 -18t-26 -15.5
t-22 -12.5t-15 -8.5l-6 -3l-32 51l7.5 5t17.5 12t24.5 17.5t26 19.5t25 20t17.5 17.5t7 12.5q0 19 -6 33.5t-21 20.5q-12 5 -42 15q-92 32 -115 58q-13 15 -13 31q0 37 25.5 87t44.5 65q26 22 69 22q42 0 102.5 -15.5t99.5 -30.5l40 -15v75l-8 66h41l26 -66h91v-63h-78v-573
h-72v502z" />
    <glyph glyph-name="bnPA" unicode="&#x9aa;" horiz-adv-x="710" 
d="M496 464q-30 29 -51 46q-47 38 -82 38q-24 0 -65 -25q-7 -4 -18.5 -12.5t-23 -18t-22.5 -18t-17 -14.5l-7 -5l120 -143zM642 0h-73v399l-22 21l-203 -187l-45 7l-145 177l-44 -30l-36 47q112 101 190 152q54 35 96 35q43 0 88 -31q23 -16 53.5 -42t48.5 -44l19 -18v150
l-7 66h42l26 -66h95v-63h-83v-573z" />
    <glyph glyph-name="bnLA" unicode="&#x9b2;" horiz-adv-x="725" 
d="M588 425v148h-602v63h755v-63h-80v-573h-73v288q0 27 -3.5 44.5t-19.5 33t-45 15.5q-55 0 -81.5 -18.5t-34.5 -74.5l-11 -82h-56l-3 48q-3 84 -28.5 105.5t-109.5 21.5q-74 0 -74 -79q0 -48 38 -185l-46 -17q-8 11 -19 31.5t-29.5 78.5t-18.5 112q0 41 13 69t35.5 42
t45 19.5t48.5 5.5q76 0 122.5 -14t59.5 -59q19 41 53 54.5t91 13.5q25 0 43.5 -7t23.5 -14z" />
    <glyph glyph-name="bnDA" unicode="&#x9a6;" horiz-adv-x="580" 
d="M65 265v308h-76v63h600v-63h-450v-263l319 150l46 -33l-60 -462h-75l52 392l-311 -149z" />
    <glyph glyph-name="bnSHA" unicode="&#x9b6;" horiz-adv-x="645" 
d="M477 598v38l22 81h51v-81h100v-63h-100v-573h-73v504q0 21 -43.5 38.5t-81.5 17.5q-77 0 -77 -82q0 -47 7 -65.5t33 -33.5q16 -9 38.5 -20t36.5 -17l15 -6l-18 -54q-40 6 -77 21q-18 7 -35 16.5t-25 14.5l-8 6q-20 -19 -66 -37q-18 -7 -43 -13t-41 -8l-15 -3l-15 58
q45 16 87 36q32 15 40.5 35t8.5 75q0 38 -12 56t-40 21q-119 13 -157 13v63h171q32 0 52.5 -7.5t37.5 -29.5q19 22 37 28.5t48 6.5q89 0 142 -36z" />
    <glyph glyph-name="bnMA" unicode="&#x9ae;" horiz-adv-x="565" 
d="M226 446q-25 18 -63.5 41t-63.5 37t-26 14l16 35h-101v63h614v-63h-79v-573h-73v220q-208 76 -233 76q-23 0 -42 -30q-17 -29 -17 -49q0 -13 9 -21l77 -68l-29 -39q-59 29 -93 57q-37 30 -37 65q0 46 25 89q40 70 92 70l39 -3q6 42 6 44q0 20 -21 35zM319 417l-9 -69
l140 -61v286h-325q50 -19 120 -61q74 -44 74 -95z" />
    <glyph glyph-name="bnSA" unicode="&#x9b8;" horiz-adv-x="620" 
d="M490 263q-91 51 -122 51q-9 0 -14.5 -1.5t-15 -11t-16.5 -27.5q-32 -80 -61 -120.5t-74 -40.5q-23 0 -58.5 11.5t-58.5 22.5l-24 11l16 56q92 -26 108 -26q39 0 93 135q11 27 11 50q0 34 -80 91l-101 71l19 38h-121v63h640v-63h-68v-573h-73v263zM490 341v232h-352
q49 -25 62 -32q104 -59 128 -92q8 -11 13.5 -24t6.5 -21l2 -7q13 0 32 -5.5t37 -13.5t32.5 -16t26.5 -14z" />
    <glyph glyph-name="bnJA" unicode="&#x99c;" horiz-adv-x="875" 
d="M297 306v267h-312v63h909v-63h-524v-18q219 -37 305 -64l9 -3q18 -5 27 -8t24.5 -9t24 -10.5t20 -11.5t17.5 -14t12.5 -16.5t9 -21t2.5 -24.5q0 -10 -1.5 -21t-4.5 -23l-101 -345h-73q84 285 99 338q20 72 -53 93l-317 78v-111q58 6 96 6q22 0 42.5 -1.5t40.5 -5t36 -10
t29 -15t20 -21.5t7 -29q0 -105 -141 -224q-17 -14 -35.5 -25t-43 -19t-48.5 -8q-80 0 -170 101q-55 62 -94.5 122t-52.5 89l-12 30l45 25q92 -121 154 -196q26 -31 40 -46.5t39.5 -31.5t50.5 -16q39 0 89 42q99 83 99 128q0 13 -7.5 21t-23.5 11.5t-31 4.5t-39 1t-65 -2.5
t-69 -4.5z" />
    <glyph glyph-name="bnO" unicode="&#x993;" horiz-adv-x="725" 
d="M432 563h-179l-8 53q90 20 187 20q84 0 122.5 -22t38.5 -68q0 -38 -2 -63q0 -5 -1.5 -23.5t-2.5 -27t-3 -22.5t-6 -22t-10 -12q31 -10 55 -58.5t24 -85.5q0 -44 -34.5 -91.5t-102.5 -87.5q-47 -28 -101 -28q-29 0 -50.5 3t-51 13.5t-58.5 36t-56 64.5q-35 51 -69.5 114
t-51.5 101l-18 38l39 24l149 -215q40 -58 77 -82t88 -24q50 0 110 52q53 46 53 96q0 24 -24 55.5t-53 31.5h-125v64h103q19 0 28.5 11t12.5 24t5 42q2 23 2 42q0 29 -20 38t-67 9z" />
    <glyph glyph-name="bnAU" unicode="&#x994;" horiz-adv-x="775" 
d="M601 344q40 -82 40 -112q0 -44 -36 -92t-104 -89q-44 -26 -105 -26q-129 0 -209 117q-35 51 -69.5 114t-51.5 101l-18 38l39 24l152 -221q35 -51 71.5 -75.5t86.5 -24.5t114 52q53 43 53 96q0 24 -24 55.5t-53 31.5h-125v64h103q19 0 28.5 11t12.5 24t5 42q2 23 2 42
q0 29 -20 38t-67 9h-179l-8 53q90 20 187 20q84 0 122.5 -22t38.5 -68q0 -38 -2 -63l-6 -72q81 0 81 75v250l50 4q14 -199 14 -258q0 -64 -33.5 -101t-89.5 -37z" />
    <glyph glyph-name="bnII" unicode="&#x988;" horiz-adv-x="750" 
d="M95 424l-14 54q101 38 199 38q42 0 73 -23t31 -62q0 -37 -31 -87l-38 -64l252 160h96l4 -54l-70 -19l-58 -435h-71l55 389l-370 -227l-26 53l53 53l101 152q30 42 30 66q0 10 -6 17t-15 9.5t-22 2.5q-45 0 -173 -23zM564 636h197v-63h-775v63h508q0 40 -14 55t-50 15
h-312l-4 52q263 14 322 14q28 0 50 -6.5t36.5 -18.5t24 -29.5t13.5 -37.5t4 -44z" />
    <glyph glyph-name="bnvL" unicode="&#x98c;" horiz-adv-x="630" 
d="M150 40l-48 -19l-5.5 11t-10.5 24.5t-9 30.5q-4 17 -5.5 31.5t-1 27.5t4 24.5t9 21t13.5 18t19 15t25 11.5t31 9q18 4 30 6t26 4t25 1.5t23 -3t24 -7.5q41 -15 61 -106q4 -18 7 -35t5 -26l1 -9q56 10 85 16q13 3 23.5 12.5t15.5 23t5 28.5q0 11 -0.5 21.5t-3 25.5
t-7.5 23q-10 14 -57.5 46.5t-97.5 63.5t-90.5 69t-40.5 66q0 30 17.5 64t45.5 64t62 54l35 -38q-28 -29 -48.5 -56.5t-30 -47t-9.5 -30.5t24.5 -31t61 -43t75 -47.5t71.5 -51t45 -47.5q20 -35 20 -111q0 -49 -28 -83.5t-68 -42.5q-49 -11 -152 -18l-18 81q-18 84 -39 101
q-12 10 -57 0q-4 0 -8.5 -1.5t-9.5 -2.5t-9 -2q-21 -4 -33 -14.5t-15 -26.5t-1.5 -30.5t6.5 -35.5z" />
    <glyph glyph-name="bnTTHA" unicode="&#x9a0;" horiz-adv-x="580" 
d="M528 225q0 -30 -22.5 -69.5t-57 -74t-81.5 -58t-91 -23.5t-89.5 34.5t-76 81.5t-49.5 92.5t-19 70.5q114 55 150 95q17 19 25.5 36t8.5 34q0 13 -7 26t-26 39q-2 2 -3 4q-22 31 -22 60h-182v63h183q2 23 27 51q24 26 62.5 58t64.5 51.5t27 19.5l32 -37q-97 -90 -128 -121
q-2 -2 -4 -4.5t-3.5 -4.5l-3 -4t-2.5 -3.5t-2 -2.5t-1 -2v-1h355v-63h-353q0 -22 45 -67.5t99 -90.5t99 -99t45 -91zM452 222q0 14 -17 38t-41 48t-48.5 46t-41.5 35l-17 14q0 -28 -37 -71q-19 -22 -50 -45t-51.5 -34.5t-21.5 -11.5q3 -7 8 -18t20.5 -39t32 -49.5t41 -39
t47.5 -17.5q55 0 115.5 54t60.5 90z" />
    <glyph glyph-name="A" unicode="A" horiz-adv-x="670" 
d="M45 0l269 732h74l257 -732h-88l-63 204h-292l-66 -204h-91zM229 278h239l-118 341z" />
    <glyph glyph-name="B" unicode="B" horiz-adv-x="596" 
d="M80 0v732h282q99 0 144.5 -58t45.5 -132q0 -133 -92 -162q38 -9 67 -53.5t29 -122.5q0 -41 -9 -75.5t-30 -64.5t-60.5 -47t-94.5 -17h-282zM155 74h207q120 0 120 132q0 60 -30 100t-90 40h-207v-272zM155 420h207q116 0 116 122q0 116 -116 116h-207v-238z" />
    <glyph glyph-name="C" unicode="C" horiz-adv-x="578" 
d="M55 368q0 190 51.5 281t192.5 91q109 0 244 -25v-59h-9q-9 1 -24 2t-34.5 2t-42.5 2t-45.5 2t-46 1.5t-42.5 0.5q-65 0 -100.5 -24.5t-52.5 -89t-17 -186.5q0 -298 170 -298l244 7v-59q-118 -22 -244 -22q-244 0 -244 374z" />
    <glyph glyph-name="D" unicode="D" horiz-adv-x="657" 
d="M80 0v732h272q65 0 113.5 -24.5t75.5 -61.5t44 -89t22 -97.5t5 -96.5q0 -52 -8.5 -101.5t-28 -97.5t-48.5 -84t-74 -58t-101 -22h-272zM154 77h198q63 0 106 40.5t61.5 103t18.5 143.5q0 155 -47.5 224.5t-138.5 69.5h-198v-581z" />
    <glyph glyph-name="E" unicode="E" horiz-adv-x="567" 
d="M80 123v479q0 67 33 98.5t85 31.5h4h4l316 -16v-58h-316q-24 0 -36.5 -9.5t-14 -19t-1.5 -27.5v-200l328 -10v-59l-328 -10v-200q0 -18 5 -29.5t15 -16t17.5 -5.5t21.5 -1h1h2h306v-57l-306 -17q-4 0 -8 -0.5t-8 -0.5q-25 0 -45 5.5t-37.5 19t-27.5 39.5t-10 63z" />
    <glyph glyph-name="F" unicode="F" horiz-adv-x="567" 
d="M80 0v602q0 67 33 98.5t85 31.5h4h4l316 -16v-58h-316q-24 0 -36.5 -9.5t-14 -19t-1.5 -27.5v-200l328 -10v-59l-328 -10v-323h-74z" />
    <glyph glyph-name="G" unicode="G" horiz-adv-x="614" 
d="M55 370q0 83 9 143.5t33 115t72 83t120 28.5q39 0 120.5 -8.5t133.5 -18.5v-59q-1 0 -18.5 1t-45 3t-59.5 4t-67.5 3t-63.5 1q-95 0 -127.5 -68.5t-32.5 -229.5q0 -167 36 -233t128 -67h2q22 0 49 4.5t51 11.5t45 14l33 11l12 5v200h-168v50q91 25 174 25q32 0 68 -3
v-386h-56l-16 49q-98 -54 -194 -54h-4q-59 0 -102 19.5t-68 51t-40 82t-19.5 101.5t-4.5 121z" />
    <glyph glyph-name="H" unicode="H" horiz-adv-x="638" 
d="M80 0v732h74v-341h350v341h74v-732h-74v317h-350v-317h-74z" />
    <glyph glyph-name="I" unicode="I" horiz-adv-x="214" 
d="M80 0v732h74v-732h-74z" />
    <glyph glyph-name="J" unicode="J" horiz-adv-x="359" 
d="M35 21l4 54q66 -16 95 -16q90 0 91 106v567h74v-567q0 -114 -52 -147q-18 -12 -45 -18t-56 -6q-70 0 -111 27z" />
    <glyph glyph-name="K" unicode="K" horiz-adv-x="591" 
d="M80 0v732h74v-328h82l230 328h90l-252 -365l252 -367h-90l-230 330h-81v-330h-75z" />
    <glyph glyph-name="L" unicode="L" horiz-adv-x="557" 
d="M80 126v606h74v-606q0 -11 2 -19t4.5 -13.5t7.5 -9.5t9.5 -6t11.5 -3t11.5 -1h12.5h1h2h306v-74h-306q-29 0 -50 4t-42 16t-32.5 39t-11.5 67z" />
    <glyph glyph-name="M" unicode="M" horiz-adv-x="801" 
d="M55 0l48 732h102l195 -609l189 609h101l56 -732h-74l-45 598l-188 -598h-76l-194 598l-40 -598h-74z" />
    <glyph glyph-name="N" unicode="N" horiz-adv-x="680" 
d="M80 0v732h76l390 -594v594h74v-732h-74l-391 594v-594h-75z" />
    <glyph glyph-name="O" unicode="O" horiz-adv-x="676" 
d="M65 361q0 84 9 146.5t28 103.5t41.5 66.5t57.5 38.5t68 17t80 4q41 0 70.5 -3t61 -12t52.5 -25t41 -44t31.5 -67.5t18.5 -95.5t7 -129q0 -95 -12.5 -161.5t-34 -106.5t-59 -61.5t-77.5 -28.5t-99 -7q-50 0 -84 4t-69 16.5t-57 37t-40 64.5t-26 100.5t-8 142.5zM139 361
q0 -97 9.5 -154t37 -88t63.5 -40t100 -9q50 0 82 6.5t58 24t40 50.5t21 83.5t7 126.5q0 50 -3 89.5t-7 69.5t-14 52.5t-18 37.5t-24 25.5t-27.5 16t-34 8t-37.5 3t-43 0.5t-42.5 -0.5t-37 -3t-34.5 -8t-28 -16t-24.5 -25.5t-18.5 -37.5t-14.5 -52.5t-7.5 -70t-3 -89z" />
    <glyph glyph-name="P" unicode="P" horiz-adv-x="581" 
d="M60 0v732h301q175 0 175 -212q0 -60 -11.5 -103t-28 -65.5t-42.5 -35t-46 -15.5t-47 -3q-29 0 -126 9t-101 11v-318h-74zM134 372h227q48 0 74 29t26 119q-1 46 -11 76t-27.5 42t-30.5 15.5t-31 3.5h-227v-285z" />
    <glyph glyph-name="Q" unicode="Q" horiz-adv-x="676" 
d="M65 361q0 101 13.5 171t35.5 110t60.5 61.5t76.5 27.5t96 6q49 0 82 -4t68 -17t57.5 -38.5t41 -66.5t27 -103.5t8.5 -146.5q0 -95 -13 -161.5t-34.5 -106.5t-59.5 -61.5t-78 -28.5t-99 -7q-50 0 -84 4t-69 16.5t-56 37t-39 64.5t-26 100.5t-8 142.5zM139 361
q0 -97 9.5 -154t36 -88t62.5 -40t100 -9q63 0 99.5 10.5t63.5 42t37 88t10 150.5q0 50 -3 89.5t-7.5 69.5t-14 52.5t-18 37.5t-24.5 25.5t-27.5 16t-34.5 8t-38 3t-43 0.5t-42.5 -0.5t-37 -3t-34 -8t-27.5 -16t-24 -25.5t-18 -37.5t-14.5 -52.5t-7.5 -70t-3 -89zM317 -33h52
q26 -18 49.5 -26.5t46.5 -8.5q31 0 72 15v-80q-26 -10 -60 -10q-26 0 -52 6.5t-49 19.5t-39 35t-20 49z" />
    <glyph glyph-name="R" unicode="R" horiz-adv-x="593" 
d="M60 0v732h312q169 0 169 -220q0 -192 -127 -210l154 -302h-80l-154 299l-200 14v-313h-74zM134 379h238q18 0 28 1t24.5 7.5t22 20t13.5 40t6 64.5q0 88 -26 116.5t-68 28.5h-238v-278z" />
    <glyph glyph-name="S" unicode="S" horiz-adv-x="584" 
d="M65 494v66q0 101 52 139.5t146 38.5q68 0 250 -24v-60l-250 10q-12 1 -21 1q-51 0 -77 -21.5t-26 -83.5v-66q0 -62 24.5 -80t77.5 -18h142q156 0 156 -172v-68q0 -51 -17 -85t-48 -50.5t-63 -22.5t-74 -6q-35 0 -123.5 9t-126.5 16v60q110 -11 250 -11q128 0 128 90v68
q0 47 -18 72.5t-64 25.5h-140q-57 0 -94.5 14t-54.5 41t-23 53.5t-6 63.5z" />
    <glyph glyph-name="T" unicode="T" horiz-adv-x="578" 
d="M45 658v74h508v-74h-220v-658h-74v658h-214z" />
    <glyph glyph-name="U" unicode="U" horiz-adv-x="677" 
d="M80 320v412h74v-412q0 -40 3 -73t7.5 -57.5t13 -43.5t16.5 -31.5t21.5 -21.5t24.5 -13.5t29 -7t31.5 -3t35.5 -0.5h4.5h5.5h5q21 0 33 0.5t31 2.5t30 6.5t26 13t24 21t19 31.5t15.5 43.5t9 58t3.5 74.5v412h75v-412q0 -93 -17.5 -157.5t-40 -96.5t-64 -49t-68.5 -19.5
t-76 -2.5h-4.5h-4.5h-5h-5q-34 0 -55 1t-51 7.5t-48 19t-39 36t-32.5 58t-19 86t-7.5 117.5z" />
    <glyph glyph-name="V" unicode="V" horiz-adv-x="670" 
d="M45 732h81l214 -614l224 614h81l-269 -732h-74z" />
    <glyph glyph-name="W" unicode="W" horiz-adv-x="962" 
d="M45 732h81l213 -603l181 603h84l-68 -234l133 -375l187 609h81l-229 -732h-74l-137 374l-121 -374h-74z" />
    <glyph glyph-name="X" unicode="X" horiz-adv-x="596" 
d="M45 732h81l180 -307l184 307h81l-216 -361l211 -371h-81l-179 308l-177 -308h-81l209 371z" />
    <glyph glyph-name="Y" unicode="Y" horiz-adv-x="630" 
d="M45 732h81l189 -384l209 384h81l-253 -472v-260h-74v260z" />
    <glyph glyph-name="Z" unicode="Z" horiz-adv-x="563" 
d="M35 0v74l396 584h-396v74h493v-74l-396 -584h396v-74h-493z" />
    <glyph glyph-name="a" unicode="a" horiz-adv-x="519" 
d="M40 126v61q0 61 35.5 97t97.5 36h164h42.5h15.5v49v7v5.5v4v1.5q0 82 -82 82q-90 0 -256 -12v54q101 28 259 30h3q66 0 108 -38.5t42 -115.5v-387h-55l-19 64l-15 -7q-14 -7 -38 -17.5t-52 -21t-60 -17.5t-57 -7q-57 0 -95 35t-38 97zM114 131q0 -63 59 -63q36 0 91.5 13
t93.5 25l37 13v143l-222 -16q-30 -3 -44.5 -21t-14.5 -44v-50z" />
    <glyph glyph-name="b" unicode="b" horiz-adv-x="554" 
d="M60 0v785h72v-286q45 18 102.5 29t94.5 11q54 0 90.5 -23t54 -65.5t24 -86t6.5 -101.5q0 -51 -7.5 -94.5t-25.5 -85t-54 -65.5t-88 -24q-46 0 -108.5 23.5t-87.5 41.5l-20 -59h-53zM133 114q113 -46 196 -46q101 0 101 195q0 116 -24.5 159t-76.5 43q-96 0 -196 -26v-325
z" />
    <glyph glyph-name="c" unicode="c" horiz-adv-x="500" 
d="M50 266q0 84 12.5 139.5t37.5 83t54 37.5t71 10q88 0 228 -26v-54q-139 6 -228 6q-27 0 -42 -5t-30.5 -23.5t-22 -60.5t-6.5 -111q0 -112 22.5 -152.5t78.5 -40.5q41 0 99.5 2.5t97.5 5.5l38 3v-56q-96 -27 -235 -29q-41 0 -69.5 10t-54 37.5t-38.5 83.5t-13 140z" />
    <glyph glyph-name="d" unicode="d" horiz-adv-x="554" 
d="M50 263q0 58 6.5 101.5t24 86t54 65.5t90.5 23q37 0 94 -11t102 -29v286h73v-785h-53l-20 59q-25 -18 -87.5 -41.5t-108.5 -23.5q-52 0 -88 24t-54 65.5t-25.5 85t-7.5 94.5zM124 263q0 -195 101 -195q83 0 196 46v325q-100 26 -196 26q-52 0 -76.5 -43t-24.5 -159z" />
    <glyph glyph-name="f" unicode="f" horiz-adv-x="400" 
d="M20 457v57l97 17v99q0 22 1 37.5t8 40t19 40t36.5 27t58.5 11.5q62 0 140 -24v-49l-123 1h-3q-22 0 -35.5 -6t-19 -19t-7 -25t-1.5 -34v-99h148v-74h-148v-457h-74v457h-97z" />
    <glyph glyph-name="g" unicode="g" horiz-adv-x="554" 
d="M48 115q0 28 15 52.5t44 30.5q-58 37 -58 146q0 93 45.5 141t127.5 48h312v-56l-81 -18q1 -2 7 -12.5t9 -17t7 -19t6 -29t2 -37.5q0 -28 -6.5 -57t-22.5 -62.5t-51 -54.5t-85 -21h-156q-41 0 -41 -30q0 -34 41 -34h213q61 0 95 -37.5t34 -100.5v-63q0 -27 -5.5 -50
t-20 -48.5t-46.5 -40.5t-78 -15h-150q-73 0 -116.5 39t-43.5 115v85l40 65q-37 26 -37 81zM119 -116q0 -80 86 -80h150q76 0 76 80v58q0 38 -13.5 53.5t-54.5 15.5h-199q-14 0 -25 2t-15 4l-5 2v-135zM123 344q0 -21 4 -40t13 -38.5t28.5 -31t46.5 -11.5h98q27 0 47 11
t30.5 29t15 36.5t4.5 37.5v7q-3 58 -23 86.5t-75 28.5h-90q-99 0 -99 -115z" />
    <glyph glyph-name="h" unicode="h" horiz-adv-x="544" 
d="M60 0v784h74v-315q3 1 22 12.5t23.5 13.5t21.5 11.5t24 11.5t23 8t26.5 8t25.5 4t30 2q76 0 120 -50t44 -120v-370h-74v370q0 48 -24.5 72t-65.5 24q-38 0 -72 -8t-54.5 -16.5t-69.5 -32.5v-409h-74z" />
    <glyph glyph-name="i" unicode="i" horiz-adv-x="197" 
d="M50 617v54q0 25 24 25h50q23 0 23 -25v-54q0 -23 -23 -23h-50q-24 0 -24 23zM60 0v531h74v-531h-74z" />
    <glyph glyph-name="j" unicode="j" horiz-adv-x="217" 
d="M60 617v54q0 25 24 25h50q23 0 23 -25v-54q0 -23 -23 -23h-50q-24 0 -24 23zM71 -270v801h74v-535v-16v-15q0 -151 -26 -235h-48z" />
    <glyph glyph-name="k" unicode="k" horiz-adv-x="500" 
d="M60 0v782h74v-440h40l203 189h103l-236 -226l236 -305h-92l-214 268h-40v-268h-74z" />
    <glyph glyph-name="l" unicode="l" horiz-adv-x="300" 
d="M60 189v594h74v-594q0 -61 14 -84.5t43 -30.5q82 -21 89 -21v-53h-88q-132 0 -132 189z" />
    <glyph glyph-name="m" unicode="m" horiz-adv-x="898" 
d="M60 0v531h52l22 -64q6 4 24.5 14.5t26 15t24 12.5t27 11.5l25.5 8.5t30.5 6.5t31.5 1.5q50 0 90 -21t57 -57q94 78 214 78q70 0 117 -48t47 -123v-366h-74v366q0 44 -25.5 70.5t-64.5 26.5q-60 0 -103.5 -12t-92.5 -44v-39v-368h-74v366q0 44 -25.5 70.5t-65.5 26.5
q-37 0 -69.5 -8t-50.5 -15.5t-69 -32.5v-407h-74z" />
    <glyph glyph-name="n" unicode="n" horiz-adv-x="544" 
d="M60 0v531h52l22 -62q3 1 22 12.5t23.5 13.5t21.5 11.5t24 11.5t23 8t26.5 8t25.5 4t30 2q76 0 120 -50t44 -120v-370h-74v370q0 47 -25 71.5t-65 24.5q-38 0 -72 -8t-54.5 -16.5t-69.5 -32.5v-409h-74z" />
    <glyph glyph-name="o" unicode="o" horiz-adv-x="568" 
d="M50 258q0 161 51 219.5t183 58.5q134 0 184 -59.5t50 -218.5q0 -149 -50 -206t-184 -57q-132 0 -183 59t-51 204zM124 258q0 -65 9.5 -104t33 -57t48 -23t69.5 -5q46 0 71.5 5t48 23.5t31.5 57t9 103.5q0 71 -7.5 112t-29.5 61.5t-47.5 25.5t-75.5 5q-38 0 -60 -3
t-44 -14t-32.5 -33t-17 -59.5t-6.5 -94.5z" />
    <glyph glyph-name="p" unicode="p" horiz-adv-x="554" 
d="M60 -270v801h53l19 -59q25 18 88 41.5t109 23.5q52 0 88 -24t54 -65.5t25.5 -85t7.5 -94.5q0 -58 -6.5 -101.5t-24 -86t-54 -65.5t-90.5 -23q-37 0 -94.5 11t-102.5 29v-302h-72zM132 92q100 -26 197 -26q52 0 76.5 43t24.5 159q0 195 -101 195q-84 0 -197 -46v-325z" />
    <glyph glyph-name="q" unicode="q" horiz-adv-x="555" 
d="M50 268q0 129 46 199t138 70q47 0 99.5 -4.5t101 -11t60.5 -7.5v-784h-74v299q-96 -39 -187 -39q-56 0 -93 20.5t-56.5 60t-27 86.5t-7.5 111zM124 268v-4.5v-4.5v-4v-4q0 -27 1 -44t4 -41.5t10 -40.5t19 -31t31 -22.5t45 -7.5q56 0 90.5 4.5t96.5 20.5v374h-187
q-110 0 -110 -195z" />
    <glyph glyph-name="r" unicode="r" horiz-adv-x="426" 
d="M60 0v531h52l22 -67q5 3 25.5 15t27 15.5t24.5 12.5t28.5 12.5t27 8.5t32.5 7t33 2q58 0 74 -8v-73q-24 6 -74 6q-38 0 -72.5 -8t-55 -17t-70.5 -33v-404h-74z" />
    <glyph glyph-name="s" unicode="s" horiz-adv-x="506" 
d="M40 358v46q0 65 32 98.5t106 33.5q95 0 261 -16v-57h-261q-23 0 -37 -4t-19.5 -13.5t-6.5 -17.5t-1 -24v-46q0 -20 4.5 -32t14.5 -17t19 -6.5t26 -1.5h158q63 0 96.5 -35.5t33.5 -93.5v-49q0 -74 -36 -101t-94 -27q-93 0 -274 19v55h274h4q7 0 14 1.5t16.5 6.5t15.5 17
t6 29v49q0 28 -12.5 41.5t-43.5 13.5h-158q-73 0 -105.5 28t-32.5 103z" />
    <glyph glyph-name="t" unicode="t" horiz-adv-x="378" 
d="M20 458v56l99 18l18 148h56v-148h155v-74h-155v-268q0 -61 14 -84.5t43 -30.5q82 -21 89 -21v-53h-88q-132 0 -132 189v268h-99z" />
    <glyph glyph-name="u" unicode="u" horiz-adv-x="544" 
d="M50 161v370h74v-370q0 -47 25 -71.5t65 -24.5q38 0 72 8t54.5 16.5t69.5 32.5v409h74v-531h-52l-22 62q-3 -1 -22 -12.5t-23.5 -13.5t-21.5 -11.5t-24 -11.5t-23 -8t-26.5 -8t-25.5 -4t-30 -2q-76 0 -120 50t-44 120z" />
    <glyph glyph-name="v" unicode="v" horiz-adv-x="536" 
d="M20 531h81l166 -422l168 422h81l-213 -531h-74z" />
    <glyph glyph-name="w" unicode="w" horiz-adv-x="801" 
d="M20 531h81l157 -422l138 422h80l-54 -170l116 -252l162 422h81l-203 -531h-74l-118 260l-87 -260h-80z" />
    <glyph glyph-name="x" unicode="x" horiz-adv-x="524" 
d="M24 0l192 266l-192 265h92l144 -204l148 204h92l-194 -268l186 -263h-84l-146 202l-146 -202h-92z" />
    <glyph glyph-name="y" unicode="y" horiz-adv-x="554" 
d="M21 531h81l129 -415q7 -24 20.5 -33t28.5 -9q17 0 17 3l152 454h83l-234 -699l-75 -102h-46l94 270q-86 0 -120 110z" />
    <glyph glyph-name="z" unicode="z" horiz-adv-x="456" 
d="M30 457v74h396v-74l-284 -382h284v-20v-23v-22v-9h-381v74l289 382h-304z" />
    <glyph glyph-name="bnmAA" unicode="&#x9be;" horiz-adv-x="200" 
d="M-10 573v63h55l43 -5l-4 65h41l23 -60h63v-63h-52v-573h-74v573h-95z" />
    <glyph glyph-name="bnmI" unicode="&#x9bf;" horiz-adv-x="200" 
d="M135 706q0 -19 1 -28t7 -21t19 -21h49v-63h-46v-573h-73v573h-104v63h26l78 -8q-30 20 -30 76v60q0 62 32.5 89t93.5 27q30 0 73.5 -7t71.5 -13t91 -21q60 -14 130.5 -32.5t111.5 -30.5l41 -12l-15 -49l-410 83q-53 10 -78 10q-33 0 -51 -10.5t-18 -41.5v-50z" />
    <glyph glyph-name="bnmII" unicode="&#x9c0;" horiz-adv-x="238" 
d="M148 628l51 8h54v-63h-105v-573h-73v573h-92v63h90q0 23 -2.5 47.5t-11 53.5t-22 51.5t-36.5 37.5t-54 15q-61 0 -195.5 -4.5t-162.5 -6.5h-8q-30 -2 -35.5 -8t-5.5 -39q0 -25 10.5 -29t72.5 -3q45 1 76 1q53 0 84.5 -2t59.5 -8.5t41.5 -20t21 -34t7.5 -52.5h-73
q0 31 -32.5 38t-134.5 7q-40 0 -64 0.5t-48.5 2t-37 4t-25 8.5t-17 12t-8.5 18.5t-5 25t-1 32.5q0 38 4.5 59t19 33t33.5 15.5t56 5.5q297 19 348 19q57 0 98.5 -18.5t64.5 -46.5t36.5 -68.5t17 -75.5t3.5 -78z" />
    <glyph glyph-name="bnmE" unicode="&#x9c7;" horiz-adv-x="229" 
d="M176 573q-3 -7 -9 -19t-20 -50t-25 -75.5t-20 -90.5t-9 -101q0 -42 12.5 -71.5t49.5 -52.5l136 -95l-23 -42q-112 53 -151 76q-55 33 -76.5 74t-21.5 100q0 139 76 336l5 11h-155v63h297v-63h-66z" />
    <glyph glyph-name="bnmAI" unicode="&#x9c8;" horiz-adv-x="270" 
d="M213 636h70v-63h-66q-3 -7 -9 -19t-20 -50t-25 -76t-20 -91t-9 -100q0 -28 4 -46.5t18 -39t40 -39.5l136 -94l-23 -42q-112 54 -151 77q-55 32 -76.5 72.5t-21.5 99.5q0 31 4.5 67t11.5 68.5t16 65t17.5 58.5t15.5 46t11.5 31.5l4.5 11.5h-155v63h159q0 40 -14.5 55
t-50.5 15h-220l-4 53q160 14 230 14q67 0 97 -37t30 -100z" />
    <glyph glyph-name="bnmO" unicode="&#x9cb;" horiz-adv-x="820" 
d="M616 573v63h55l43 -5l-4 65h41l23 -60h63v-63h-52v-573h-74v573h-95zM216 573q-3 -7 -9 -19t-20 -50t-25 -75.5t-20 -90.5t-9 -101q0 -42 12.5 -71.5t49.5 -52.5l136 -95l-23 -42q-112 53 -151 76q-55 33 -76.5 74t-21.5 100q0 139 76 336l5 11h-155v63h297v-63h-66z" />
    <glyph glyph-name="bnmAU" unicode="&#x9cc;" horiz-adv-x="820" 
d="M731 636h101v-63h-99v-573h-73v573h-84v63h26l58 -6q0 18 -2 33t-6.5 27.5t-12 21t-18.5 13.5t-25 5h-342l-4 56q293 14 352 14q36 0 62 -14.5t40 -38.5t20.5 -51.5t6.5 -59.5zM176 573q-3 -7 -9 -19t-20 -50t-25 -75.5t-20 -90.5t-9 -101q0 -42 12.5 -71.5t49.5 -52.5
l136 -95l-23 -42q-112 53 -151 76q-55 33 -76.5 74t-21.5 100q0 139 76 336l5 11h-155v63h297v-63h-66z" />
    <glyph glyph-name="bnAUlntmk" unicode="&#x9d7;" horiz-adv-x="233" 
d="M145 636h101v-63h-99v-573h-73v573h-84v63h26l58 -6q0 18 -2 33t-6.5 27.5t-12 21t-18.5 13.5t-25 5h-342l-4 56q293 14 352 14q36 0 62 -14.5t40 -38.5t20.5 -51.5t6.5 -59.5z" />
    <glyph glyph-name="bnNukta" unicode="&#x9bc;" 
d="M-204 -165v67q0 10 2.5 13t12.5 3h64q11 0 13.5 -3t2.5 -13v-67q0 -10 -3 -12.5t-13 -2.5h-64q-9 0 -12 3t-3 12z" />
    <glyph glyph-name="bnmU" unicode="&#x9c1;" 
d="M-132 0v18h72v-18l-28 -102q12 -7 51 -39.5t69.5 -59.5t32.5 -29l-23 -31l-150 94q-5 -11 -13.5 -27.5t-32.5 -43.5t-44 -27q-26 0 -60.5 10t-65 33t-30.5 53q0 19 9 48.5t31 57.5t50 28q18 0 46 -9t47 -17l18 -9zM-171 -134q-1 0 -3 1.5t-8 5t-11.5 6.5t-13.5 7t-15 7
t-14.5 4.5t-13.5 1.5q-16 0 -27.5 -20t-11.5 -34q0 -18 28.5 -31t46.5 -13q10 0 20.5 16t16.5 32z" />
    <glyph glyph-name="bnmUU" unicode="&#x9c2;" 
d="M-152 0l-59 -123q-45 15 -60 15q-17 0 -26 -16.5t-9 -32.5q0 -18 36 -34.5t69 -16.5q17 0 37.5 22.5t32.5 44.5l12 23h50l167 -104l-25 -38l-156 72q-2 -4 -6 -10t-15.5 -22t-23 -28.5t-28 -22.5t-31.5 -10q-60 0 -125 31t-65 81q0 48 23 90t58 42q11 0 23 -2.5t19 -4.5
l6 -3l23 47v18h73v-18z" />
    <glyph glyph-name="bnmvR" unicode="&#x9c3;" 
d="M38 -327l-374 155l-9 73l183 94v26h73v-67l-153 -81q209 -98 304 -154z" />
    <glyph glyph-name="space" unicode=" " horiz-adv-x="325" 
 />
    <glyph glyph-name="glyph1" horiz-adv-x="589" 
 />
    <glyph glyph-name="bnOne" unicode="&#x9e7;" horiz-adv-x="563" 
d="M264 522q6 -16 46 -53t83 -73.5t78.5 -80.5t35.5 -75q0 -77 -53 -152q-65 -89 -150 -90q-71 0 -143 52q-24 18 -53.5 41.5t-46.5 38.5l-17 15l42 56q61 -42 113 -75q5 -3 17 -11t19.5 -12.5t18.5 -10t21 -8.5t20 -3q58 0 93 48t35 101q0 31 -51 79.5t-109.5 100
t-69.5 83.5q-7 20 -9.5 59.5t-1.5 69.5l1 30l58 7q8 -97 23 -137z" />
    <glyph glyph-name="bnTwo" unicode="&#x9e8;" horiz-adv-x="596" 
d="M467 299q-30 -30 -80.5 -53.5t-85.5 -32.5l-35 -9l251 -175l-30 -56q-24 11 -66 32.5t-153 91.5t-201 143l42 67l64 -42q17 3 45 9t88.5 28t92.5 48q22 18 22 43q0 37 -53 71q-30 19 -243 159l28 52q177 -85 260 -144q1 -1 5 -3q18 -13 29 -22.5t28.5 -27.5t26 -41
t8.5 -49q0 -47 -43 -89z" />
    <glyph glyph-name="bnThree" unicode="&#x9e9;" horiz-adv-x="825" 
d="M538 591q36 0 67.5 -7.5t54.5 -21t41.5 -32t30 -40.5t17.5 -45.5t6 -48.5q0 -46 -10 -95t-33 -101t-57 -92t-87.5 -65.5t-119.5 -25.5q-124 0 -237 142q-40 51 -78 110.5t-55 93.5l-18 34l47 32l151 -202q93 -125 188 -125q72 0 124.5 48t75 112t22.5 131q0 58 -41.5 89
t-109.5 31q-25 0 -87.5 -5t-112.5 -10l-50 -5l-11 63q147 35 282 35z" />
    <glyph glyph-name="bnFour" unicode="&#x9ea;" horiz-adv-x="680" 
d="M419 392q52 0 52 44v75q-1 26 -13.5 36t-37.5 10h-180q-51 0 -52 -46v-76q0 -43 52 -43h179zM435 636q56 0 88.5 -23.5t32.5 -94.5v-62q0 -79 -39 -94q66 -20 67 -83v-155v-4q0 -70 -28.5 -95.5t-104.5 -25.5h-240q-69 0 -104 26t-35 97v152q0 66 74 89q-43 15 -43 93v64
q0 67 35.5 91.5t97.5 24.5h199zM159 125q0 -29 18 -38t50 -9h204q39 0 53.5 12.5t14.5 35.5v133q0 26 -15 38.5t-53 12.5h-204q-35 0 -51.5 -10.5t-16.5 -42.5v-132z" />
    <glyph glyph-name="bnSix" unicode="&#x9ec;" horiz-adv-x="725" 
d="M302 614h73v-199q93 10 152 10q75 0 108 -29t33 -89q0 -38 -22 -89.5t-59 -100.5t-94 -83t-119 -34q-88 0 -170 94q-40 46 -80 121t-60 127l-20 52l47 22q100 -183 164 -269q51 -68 116 -68q46 0 88.5 27t69.5 64.5t43.5 74.5t16.5 61q0 25 -17 33t-55 8q-46 0 -215 -13
v280z" />
    <glyph glyph-name="bnNine" unicode="&#x9ef;" horiz-adv-x="688" 
d="M335 0q-5 93 -25 166q-11 41 -27.5 66t-44.5 25q-22 0 -68 -23q-20 -9 -28.5 -21t-6.5 -29.5t6.5 -30.5t14.5 -35l21 -47l-49 -28q-48 70 -55 88q-50 118 71 172q33 15 56 22t46 7q73 0 114 -82q10 -20 19 -56t13 -60.5t4 -26.5q24 0 83.5 50.5t59.5 92.5q0 29 -32.5 77
t-78.5 96.5t-92 93t-78 72.5l-33 28l37 46q210 -171 285 -258t75 -155q0 -57 -50 -117t-117.5 -96.5t-119.5 -36.5z" />
    <glyph glyph-name="bnEight" unicode="&#x9ee;" horiz-adv-x="655" 
d="M123 336v-164q0 -94 69 -94q46 0 103 42.5t105 108.5q32 44 32 78q0 25 -16.5 36.5t-40.5 11.5q-39 0 -252 -19zM46 636h77v-235q24 5 61 11q46 8 87.5 12.5t59.5 5.5t52.5 2t37.5 1q13 0 64 10.5t96 20.5l45 10l10 -46q-48 -31 -139 -61q2 -2 4 -5t6 -16.5t4 -30.5
q0 -21 -6.5 -43t-18.5 -42q-56 -98 -139 -164t-163 -66q-57 0 -97.5 37.5t-40.5 121.5v477z" />
    <glyph glyph-name="bnSeven" unicode="&#x9ed;" horiz-adv-x="548" 
d="M390 97v151q-118 -9 -232 -9q-58 0 -91.5 36t-33.5 94q0 45 24 84q53 87 131.5 133t140.5 46q57 0 96.5 -37.5t39.5 -121.5v-356q0 -45 33 -108l-42 -30q-7 6 -18 16t-29.5 41t-18.5 61zM390 316v146q0 48 -14 71.5t-51 23.5q-32 0 -86 -32.5t-91 -76.5q-38 -45 -38 -78
q0 -25 18 -39.5t40 -14.5h222z" />
    <glyph glyph-name="bnZero" unicode="&#x9e6;" horiz-adv-x="600" 
d="M68 295q0 161 51 219.5t183 58.5q134 0 184 -59.5t50 -218.5q0 -149 -50 -206t-184 -57q-132 0 -183 59t-51 204zM153 295q0 -66 8 -104t29 -56t44 -22.5t68 -4.5q46 0 69.5 4.5t44.5 23t28 56.5t7 103q0 72 -6 111.5t-25.5 60.5t-43.5 25.5t-74 4.5q-48 0 -71.5 -4.5
t-44 -25t-27 -60.5t-6.5 -112z" />
    <glyph glyph-name="bnFive" unicode="&#x9eb;" horiz-adv-x="585" 
d="M156 662l-5 -76l275 -79l41 81l47 -16q-76 -195 -76 -261q0 -15 9.5 -31.5t23 -31t27 -28t23 -27t9.5 -22.5q0 -25 -36 -58.5t-91.5 -60t-114.5 -44.5t-112 -14t-78 33q-45 53 -45 207q0 39 3 84t7 85.5t9.5 80.5t11 72.5t10 57.5t6.5 38l3 14zM400 442l-252 70
q-12 -154 -12 -265q0 -139 17 -159q21 -25 69.5 -20.5t97.5 22.5t86.5 42.5t37.5 39.5q0 6 -11.5 20.5t-25 29.5t-25 35t-11.5 36q0 19 7.5 56t14.5 65z" />
    <glyph glyph-name="bnCandrabindu" unicode="&#x981;" 
d="M-270 763l38 43q4 -3 10 -9t23.5 -20t33 -25t33.5 -20.5t29 -9.5q4 0 7.5 1t7.5 3q41 24 130 109l32 -31q-55 -72 -105 -115q-24 -20 -38.5 -27t-37.5 -5q-26 2 -67 28.5t-68 51.5zM-111 771l-31 24q-13 10 -4 22l24 32q9 12 23 2l31 -23q12 -9 3 -22l-24 -32
q-9 -11 -22 -3z" />
    <glyph glyph-name="bnAnusvara" unicode="&#x982;" horiz-adv-x="445" 
d="M88 279l5.5 0.5t12.5 1.5t16 2t18.5 2t18 1.5t16 1t11.5 0.5q95 0 151 -102q4 -7 20.5 -36.5t28 -51.5t25 -55t20.5 -60l-43 -16l-113 182q-43 70 -108 70l-74 -6zM92 490q0 83 31 111t101 28q72 0 102.5 -27.5t30.5 -111.5q0 -77 -31 -104t-102 -27q-70 0 -101 28
t-31 103zM158 490q0 -49 12.5 -60t53.5 -11q43 0 55 11t12 60q0 55 -12.5 67t-54.5 12q-22 0 -31.5 -1.5t-19 -9t-12.5 -23.5t-3 -45z" />
    <glyph glyph-name="bnVisarga" unicode="&#x983;" horiz-adv-x="445" 
d="M158 140q0 -49 12.5 -60t53.5 -11q43 0 55 11t12 60q0 55 -12.5 67t-54.5 12q-22 0 -31.5 -1.5t-19 -9t-12.5 -23.5t-3 -45zM158 490q0 -49 12.5 -60t53.5 -11q43 0 55 11t12 60q0 55 -12.5 67t-54.5 12q-22 0 -31.5 -1.5t-19 -9t-12.5 -23.5t-3 -45zM92 140q0 43 8 71
t26 42.5t40.5 19.5t57.5 5q36 0 59 -5t41 -19.5t25.5 -42t7.5 -71.5q0 -77 -30.5 -104t-102.5 -27q-70 0 -101 28t-31 103zM92 490q0 30 3.5 51.5t11.5 37t18.5 25.5t26 15.5t32.5 7.5t40 2q82 0 109 -35q24 -31 24 -104q0 -40 -7.5 -65.5t-25.5 -40t-41 -20t-59 -5.5
q-28 0 -48 4t-36.5 12.5t-26.5 23.5t-15.5 37.5t-5.5 53.5z" />
    <glyph glyph-name="bnVirama" unicode="&#x9cd;" 
d="M-163 -13q10 -5 46 -31q122 -86 195 -150l-28 -37l-249 155z" />
    <glyph glyph-name="bnTAkhanda" unicode="&#x9ce;" horiz-adv-x="500" 
d="M412 545q-162 14 -195 14q-41 0 -54 -37.5t-13 -118.5q0 -23 28 -42.5t67.5 -35.5t79.5 -34t68 -45.5t28 -62.5q0 -34 -9 -83.5t-18 -81.5l-9 -33l-55 9q3 13 6.5 33t10 63.5t6.5 65.5q0 30 -71 63q-14 7 -45 20q-104 45 -137 77q-31 31 -31 66q0 50 2 84.5t9.5 69t21 55
t36.5 33.5t55 13q45 0 102 -9.5t92 -19.5l34 -9z" />
    <glyph glyph-name="bnKA.nukt" horiz-adv-x="860" 
d="M521 457v-457h-73l-372 276v86l372 170v41h-457v63h886v-63h-356v-41l187 -64q26 -8 47.5 -23.5t37 -41t15.5 -55.5q0 -34 -19 -71q-14 -28 -35 -56.5t-35 -42.5l-14 -14l-48 33l64 110q14 23 14 40q0 42 -78 65zM448 89v365l-301 -143zM128 5v67q0 10 2.5 13t12.5 3h64
q11 0 13.5 -3t2.5 -13v-67q0 -10 -3 -12.5t-13 -2.5h-64q-9 0 -12 3t-3 12z" />
    <glyph glyph-name="bnKHA.nukt" horiz-adv-x="670" 
d="M470 386l-258 -115l330 -186v551l-5 66h44l23 -66h74v-63h-63v-573h-73l-409 233v83l255 111q-14 33 -23 56q-5 12 -14 12q-6 0 -36 -13.5t-64.5 -26.5t-52.5 -13q-22 0 -35 6.5t-30 23.5q-13 14 -23 36.5t-10 41.5t6.5 35.5t19.5 28.5q15 14 39.5 20t41.5 4l17 -1
l12 -40q-18 -7 -46 -20q-21 -10 -21 -28q0 -7 9 -24q4 -7 6 -10t8 -6t16 -3q16 0 82.5 33.5t86.5 33.5q31 0 41 -27zM236 -7v67q0 10 2.5 13t12.5 3h64q11 0 13.5 -3t2.5 -13v-67q0 -10 -3 -12.5t-13 -2.5h-64q-9 0 -12 3t-3 12z" />
    <glyph glyph-name="bnGA.nukt" horiz-adv-x="540" 
d="M401 502l-137 29q-3 1 -11.5 3t-14.5 3t-15.5 3t-17.5 3.5t-16.5 3t-16 2t-12.5 0.5q-16 0 -37 -30.5t-21 -51.5q0 -12 14 -19.5t47.5 -18t51.5 -17.5q28 -11 39 -21.5t18 -29.5q5 -12 11.5 -44t6.5 -53q0 -7 -5.5 -16t-15.5 -18t-22 -18.5t-26 -19t-28 -18t-26 -15.5
t-22 -12.5t-15 -8.5l-6 -3l-32 51l7.5 5t17.5 12t24.5 17.5t26 19.5t25 20t17.5 17.5t7 12.5q0 19 -6 33.5t-21 20.5q-12 5 -42 15q-92 32 -115 58q-13 15 -13 31q0 37 25.5 87t44.5 65q26 22 69 22q42 0 102.5 -15.5t99.5 -30.5l40 -15v75l-8 66h41l26 -66h91v-63h-78v-573
h-72v502zM202 -36v67q0 10 2.5 13t12.5 3h64q11 0 13.5 -3t2.5 -13v-67q0 -10 -3 -12.5t-13 -2.5h-64q-9 0 -12 3t-3 12z" />
    <glyph glyph-name="bnGHA.nukt" horiz-adv-x="693" 
d="M260 573q-2 -3 -5 -8.5t-11.5 -20t-15 -26.5t-12 -25.5t-5.5 -20.5q0 -17 8 -26q5 -5 16.5 -8.5t29 -5.5t36.5 -2.5t44 -0.5h39h40h16l21 -87l-206 -117l301 -143v491h-296zM629 573v-573h-73l-384 185v75l198 105h-50q-137 0 -169 43q-13 18 -13 43q0 23 14.5 53.5
t28.5 49.5l14 19h-112v63h621v-63h-75zM228 -14v67q0 10 2.5 13t12.5 3h64q11 0 13.5 -3t2.5 -13v-67q0 -10 -3 -12.5t-13 -2.5h-64q-9 0 -12 3t-3 12z" />
    <glyph glyph-name="bnNGA.nukt" horiz-adv-x="690" 
d="M305 290v148q-74 21 -128 49l-36 19l23 46l141 -52q0 72 26 102q17 19 38 27t64 8q31 0 48.5 -1t38 -6.5t31 -16.5t17.5 -31t7 -50q0 -53 -19 -77t-73 -24h-113v-82q113 11 155 11q26 0 48 -7t36.5 -19.5t23 -30t8.5 -36.5q0 -60 -48.5 -116t-122.5 -101
q-25 -15 -56.5 -24.5t-54.5 -9.5q-79 0 -159 90q-42 47 -84.5 120.5t-63.5 123.5l-22 51l47 18q104 -180 172 -255q34 -38 59 -56t51 -18q14 0 33 5t36 15q141 80 141 147q0 33 -65 33h-199zM370 491h96q47 0 47 34q0 32 -10.5 39t-62.5 7q-48 0 -59 -11.5t-11 -68.5z
M273 -141v67q0 10 2.5 13t12.5 3h64q11 0 13.5 -3t2.5 -13v-67q0 -10 -3 -12.5t-13 -2.5h-64q-9 0 -12 3t-3 12z" />
    <glyph glyph-name="bnCA.nukt" horiz-adv-x="706" 
d="M239 405v-239q0 -47 14.5 -71t50.5 -24q43 0 114 48.5t111 109.5q30 46 30 78q0 24 -13.5 33t-44.5 15zM239 463q71 -8 109 -12q144 -17 172 -22q110 -19 110 -117q0 -39 -25 -86q-49 -92 -140.5 -159t-162.5 -67q-26 0 -49 8t-43.5 25.5t-32 49.5t-11.5 76v414h-94v63
h645v-63h-478v-110zM265 -151v67q0 10 2.5 13t12.5 3h64q11 0 13.5 -3t2.5 -13v-67q0 -10 -3 -12.5t-13 -2.5h-64q-9 0 -12 3t-3 12z" />
    <glyph glyph-name="bnCHA.nukt" horiz-adv-x="660" 
d="M343 344q20 17 20 41q0 19 -14 30t-25 13.5t-41 7.5l-137 24v-140q1 -29 16 -41.5t33 -12.5q54 0 148 78zM430 405q4 -15 4 -24q0 -44 -59 -92q-112 -91 -188 -91q-38 0 -76 29t-38 85v261h-87v63h686v-63h-526v-57q88 -12 146 -20q123 -18 183 -32q58 -14 87 -40t29 -79
q0 -31 -12 -98q-4 -22 -31.5 -45.5t-63 -40.5t-71.5 -31t-59.5 -21t-24.5 -7l246 -99l-16 -47q-235 66 -331 118v72q11 3 29.5 7.5t66 19.5t84.5 30t69.5 36.5t37.5 41.5q6 25 6 59q0 21 -8.5 31.5t-36.5 20.5q-12 5 -24 8t-17 4zM183 -120v67q0 10 2.5 13t12.5 3h64
q11 0 13.5 -3t2.5 -13v-67q0 -10 -3 -12.5t-13 -2.5h-64q-9 0 -12 3t-3 12z" />
    <glyph glyph-name="bnJA.nukt" horiz-adv-x="875" 
d="M439 -121v67q0 10 2.5 13t12.5 3h64q11 0 13.5 -3t2.5 -13v-67q0 -10 -3 -12.5t-13 -2.5h-64q-9 0 -12 3t-3 12zM297 306v267h-312v63h909v-63h-524v-18q219 -37 305 -64l9 -3q18 -5 27 -8t24.5 -9t24 -10.5t20 -11.5t17.5 -14t12.5 -16.5t9 -21t2.5 -24.5
q0 -10 -1.5 -21t-4.5 -23l-101 -345h-73q84 285 99 338q20 72 -53 93l-317 78v-111q58 6 96 6q22 0 42.5 -1.5t40.5 -5t36 -10t29 -15t20 -21.5t7 -29q0 -105 -141 -224q-17 -14 -35.5 -25t-43 -19t-48.5 -8q-80 0 -170 101q-55 62 -94.5 122t-52.5 89l-12 30l45 25
q92 -121 154 -196q26 -31 40 -46.5t39.5 -31.5t50.5 -16q39 0 89 42q99 83 99 128q0 13 -7.5 21t-23.5 11.5t-31 4.5t-39 1t-65 -2.5t-69 -4.5z" />
    <glyph glyph-name="bnJHA.nukt" horiz-adv-x="765" 
d="M122 5v67q0 10 2.5 13t12.5 3h64q11 0 13.5 -3t2.5 -13v-67q0 -10 -3 -12.5t-13 -2.5h-64q-9 0 -12 3t-3 12zM520 271l121 -44v409l-5 66h44l23 -66h91v-63h-80v-534h-73v121l-121 38v-198h-73l-378 281v81l378 170v41h-461v63h534v-365zM447 82v377l-307 -143z" />
    <glyph glyph-name="bnNYA.nukt" horiz-adv-x="925" 
d="M393 -151v67q0 10 2.5 13t12.5 3h64q11 0 13.5 -3t2.5 -13v-67q0 -10 -3 -12.5t-13 -2.5h-64q-9 0 -12 3t-3 12zM627 500q9 2 23 5t45 8.5t47 5.5q31 0 46.5 -2t35 -12t28 -34.5t8.5 -65.5v-8q0 -79 -45 -86q44 -8 44 -87v-9q0 -32 -7.5 -54.5t-16.5 -33.5t-27.5 -16.5
t-30.5 -6.5t-35 -1q-24 0 -53 4.5t-45 8.5l-17 5v-121h-74v84q-14 -9 -37 -23t-80.5 -37.5t-99.5 -23.5q-34 0 -57.5 2.5t-65 24t-69.5 62.5q-37 54 -70 165l40 25l84 -134q46 -73 141 -73q40 0 93.5 22t87.5 44l33 22v297q0 18 -7.5 35t-20.5 31t-33.5 22t-43.5 8
q-22 0 -55.5 -13.5t-66 -33.5t-61.5 -39.5t-47 -32.5l-18 -14l-30 38q63 72 134.5 122t136.5 50q32 0 60 -7t46.5 -18.5t33.5 -25.5t23 -28t13.5 -25.5t7.5 -18.5zM627 174q75 -8 115 -8q46 0 46 42v21q0 28 -12 38.5t-41 10.5h-53v60h53q29 0 41 10.5t12 38.5v25
q0 42 -44 42q-18 0 -47.5 -2.5t-49.5 -5.5l-20 -2v-270z" />
    <glyph glyph-name="bnTTA.nukt" horiz-adv-x="600" 
d="M163 -151v67q0 10 2.5 13t12.5 3h64q11 0 13.5 -3t2.5 -13v-67q0 -10 -3 -12.5t-13 -2.5h-64q-9 0 -12 3t-3 12zM409 403q52 0 81 -30t29 -77q0 -30 -22 -82q-40 -93 -135 -153.5t-161 -60.5q-55 0 -91.5 37t-36.5 122v414h-96v63h448q0 96 -64 96h-375l-4 53
q317 14 385 14q44 0 74 -25t42 -60.5t12 -77.5h115v-63h-464v-404q0 -49 12 -72t47 -23q45 0 109.5 39.5t103.5 99.5q30 46 30 78q0 46 -58 46h-98l-6 60q89 6 123 6z" />
    <glyph glyph-name="bnTTHA.nukt" horiz-adv-x="580" 
d="M167 -142v67q0 10 2.5 13t12.5 3h64q11 0 13.5 -3t2.5 -13v-67q0 -10 -3 -12.5t-13 -2.5h-64q-9 0 -12 3t-3 12zM528 225q0 -30 -22.5 -69.5t-57 -74t-81.5 -58t-91 -23.5t-89.5 34.5t-76 81.5t-49.5 92.5t-19 70.5q114 55 150 95q17 19 25.5 36t8.5 34q0 13 -7 26
t-26 39q-2 2 -3 4q-22 31 -22 60h-182v63h183q2 23 27 51q24 26 62.5 58t64.5 51.5t27 19.5l32 -37q-97 -90 -128 -121q-2 -2 -4 -4.5t-3.5 -4.5l-3 -4t-2.5 -3.5t-2 -2.5t-1 -2v-1h355v-63h-353q0 -22 45 -67.5t99 -90.5t99 -99t45 -91zM452 222q0 14 -17 38t-41 48
t-48.5 46t-41.5 35l-17 14q0 -28 -37 -71q-19 -22 -50 -45t-51.5 -34.5t-21.5 -11.5q3 -7 8 -18t20.5 -39t32 -49.5t41 -39t47.5 -17.5q55 0 115.5 54t60.5 90z" />
    <glyph glyph-name="bnNNA.nukt" horiz-adv-x="575" 
d="M239 11v67q0 10 2.5 13t12.5 3h64q11 0 13.5 -3t2.5 -13v-67q0 -10 -3 -12.5t-13 -2.5h-64q-9 0 -12 3t-3 12zM505 573v-573h-73v460q-14 8 -38 20t-82 32t-99 20q-12 0 -23 -5t-20.5 -13.5t-18 -19t-14.5 -22t-9 -22.5t-3 -21q0 -24 23.5 -60t47.5 -60l24 -24l-36 -40
q-53 31 -91 73q-13 14 -23 30.5t-16.5 37t-6.5 40.5q0 36 23 80t47 65q8 6 15 11t13.5 9t13.5 6.5t14 4.5t14.5 3t14.5 1.5t16 0.5q32 0 63 -8q35 -9 72.5 -23.5t58.5 -25.5l20 -10v96l22 83h51v-83h81v-63h-81z" />
    <glyph glyph-name="bnTA.nukt" horiz-adv-x="729" 
d="M282 -111v67q0 10 2.5 13t12.5 3h64q11 0 13.5 -3t2.5 -13v-67q0 -10 -3 -12.5t-13 -2.5h-64q-9 0 -12 3t-3 12zM769 636v-63h-803v63h803zM469 57q-44 -20 -84 -20q-52 0 -97 24t-100 80q-34 35 -73.5 90.5t-61.5 92t-22 37.5l37 27l170 -195q71 -81 145 -81q33 0 61 13
q50 23 95.5 73t59.5 88q15 41 15 74q0 44 -31.5 64t-99.5 20h-204l-8 52q158 20 229 20q97 0 140.5 -43t43.5 -115q0 -41 -16 -84q-27 -73 -79.5 -129.5t-119.5 -87.5z" />
    <glyph glyph-name="bnTHA.nukt" horiz-adv-x="661" 
d="M195 3v67q0 10 2.5 13t12.5 3h64q11 0 13.5 -3t2.5 -13v-67q0 -10 -3 -12.5t-13 -2.5h-64q-9 0 -12 3t-3 12zM244 529h-149l-8 57l85 14q41 5 73 5q59 0 95.5 -9.5t55.5 -31.5t25 -49.5t6 -73.5q0 -80 -156 -146q-40 -17 -73 -26l324 -187v629h46l19 -75h82v-63h-74v-573
h-73l-405 231v87l82 25q155 54 156 111q0 33 -7 47t-30 21t-74 7z" />
    <glyph glyph-name="bnDA.nukt" horiz-adv-x="580" 
d="M174 -83v67q0 10 2.5 13t12.5 3h64q11 0 13.5 -3t2.5 -13v-67q0 -10 -3 -12.5t-13 -2.5h-64q-9 0 -12 3t-3 12zM65 265v308h-76v63h600v-63h-450v-263l319 150l46 -33l-60 -462h-75l52 392l-311 -149z" />
    <glyph glyph-name="bnDHA.nukt" horiz-adv-x="575" 
d="M137 15v67q0 10 2.5 13t12.5 3h64q11 0 13.5 -3t2.5 -13v-67q0 -10 -3 -12.5t-13 -2.5h-64q-9 0 -12 3t-3 12zM447 94v360l-303 -140zM279 455l168 75v106l-4 66h44l23 -66h77v-63h-67v-573h-73l-378 281v79l136 62q-5 1 -13.5 4.5t-29.5 14.5t-37.5 24t-30 33.5
t-13.5 41.5q0 39 26.5 80t62.5 41q24 0 53 -6t46 -12l17 -6l-10 -42q-52 10 -83 10q-21 0 -35 -19.5t-14 -43.5q0 -20 34 -41.5t68 -33.5z" />
    <glyph glyph-name="bnNA.nukt" horiz-adv-x="670" 
d="M358 -83v67q0 10 2.5 13t12.5 3h64q11 0 13.5 -3t2.5 -13v-67q0 -10 -3 -12.5t-13 -2.5h-64q-9 0 -12 3t-3 12zM538 288q-7 3 -20 8t-48.5 17t-66.5 21.5t-65.5 17t-54.5 7.5q-7 0 -13 -1t-11.5 -3t-10.5 -5.5t-9 -7t-7.5 -8t-6.5 -9.5t-5.5 -10.5t-4 -11t-2 -11.5
t-0.5 -11t0.5 -9t1.5 -8.5t2.5 -8t3.5 -7.5q12 -20 34.5 -46t39.5 -41l16 -16l-35 -45q-70 52 -91 73q-46 47 -46 116q0 65 44 104q24 22 50.5 30.5t63.5 8.5q34 0 94 -19t104.5 -38t42.5 -19v217h-472v63h614v-63h-69v-573h-73v288z" />
    <glyph glyph-name="bnPA.nukt" horiz-adv-x="716" 
d="M290 5v67q0 10 2.5 13t12.5 3h64q11 0 13.5 -3t2.5 -13v-67q0 -10 -3 -12.5t-13 -2.5h-64q-9 0 -12 3t-3 12zM496 464q-30 29 -51 46q-47 38 -82 38q-24 0 -65 -25q-7 -4 -18.5 -12.5t-23 -18t-22.5 -18t-17 -14.5l-7 -5l120 -143zM642 0h-73v399l-22 21l-203 -187l-45 7
l-145 177l-44 -30l-36 47q112 101 190 152q54 35 96 35q43 0 88 -31q23 -16 53.5 -42t48.5 -44l19 -18v150l-7 66h42l26 -66h95v-63h-83v-573z" />
    <glyph glyph-name="bnPHA.nukt" horiz-adv-x="845" 
d="M166 -16v67q0 10 2.5 13t12.5 3h64q11 0 13.5 -3t2.5 -13v-67q0 -10 -3 -12.5t-13 -2.5h-64q-9 0 -12 3t-3 12zM109 573q101 -44 171 -86q22 -13 35.5 -23.5t26 -29t12.5 -39.5q0 -45 -34 -78.5t-129 -82.5l272 -149v408h168q156 0 156 -123q0 -30 -21 -72
q-10 -20 -31 -46t-37 -42l-17 -16l-51 34q42 62 62 93q19 29 19 54q0 46 -77 46h-98v-421h-73l-367 197v75q7 3 19 8.5t42.5 20.5t54 28.5t42.5 30.5t19 29q0 14 -53.5 51.5t-107.5 67.5l-54 30l16 35h-88v63h869v-63h-746z" />
    <glyph glyph-name="bnBHA.nukt" horiz-adv-x="825" 
d="M310 -105v67q0 10 2.5 13t12.5 3h64q11 0 13.5 -3t2.5 -13v-67q0 -10 -3 -12.5t-13 -2.5h-64q-9 0 -12 3t-3 12zM432 264q-83 0 -123 26t-40 93q0 91 27 117q17 16 69 16q15 0 36 -2.5t34 -4.5l13 -3l-6 -54h-74q-25 0 -25 -76q0 -24 19.5 -30.5t63.5 -6.5q22 0 46 16.5
t42 35.5t39.5 35.5t39.5 16.5q43 0 97 -64t54 -102q0 -49 -65.5 -112.5t-143.5 -103.5q-57 -29 -114 -29q-100 0 -208 108q-36 36 -74 87.5t-58 84.5l-20 33l42 31l150 -166q88 -99 164 -99q47 0 92 24q53 28 102.5 70t49.5 72q0 16 -25.5 48t-44.5 32q-8 0 -23.5 -14.5
t-32 -32t-44.5 -32t-59 -14.5zM834 573h-845v63h845v-63z" />
    <glyph glyph-name="bnMA.nukt" horiz-adv-x="585" 
d="M203 -53v67q0 10 2.5 13t12.5 3h64q11 0 13.5 -3t2.5 -13v-67q0 -10 -3 -12.5t-13 -2.5h-64q-9 0 -12 3t-3 12zM226 446q-25 18 -63.5 41t-63.5 37t-26 14l16 35h-101v63h614v-63h-79v-573h-73v220q-208 76 -233 76q-23 0 -42 -30q-17 -29 -17 -49q0 -13 9 -21l77 -68
l-29 -39q-59 29 -93 57q-37 30 -37 65q0 46 25 89q40 70 92 70l39 -3q6 42 6 44q0 20 -21 35zM319 417l-9 -69l140 -61v286h-325q50 -19 120 -61q74 -44 74 -95z" />
    <glyph glyph-name="bnLA.nukt" horiz-adv-x="725" 
d="M294 3v67q0 10 2.5 13t12.5 3h64q11 0 13.5 -3t2.5 -13v-67q0 -10 -3 -12.5t-13 -2.5h-64q-9 0 -12 3t-3 12zM588 425v148h-602v63h755v-63h-80v-573h-73v288q0 27 -3.5 44.5t-19.5 33t-45 15.5q-55 0 -81.5 -18.5t-34.5 -74.5l-11 -82h-56l-3 48q-3 84 -28.5 105.5
t-109.5 21.5q-74 0 -74 -79q0 -48 38 -185l-46 -17q-8 11 -19 31.5t-29.5 78.5t-18.5 112q0 41 13 69t35.5 42t45 19.5t48.5 5.5q76 0 122.5 -14t59.5 -59q19 41 53 54.5t91 13.5q25 0 43.5 -7t23.5 -14z" />
    <glyph glyph-name="bnSHA.nukt" horiz-adv-x="645" 
d="M276 -19v67q0 10 2.5 13t12.5 3h64q11 0 13.5 -3t2.5 -13v-67q0 -10 -3 -12.5t-13 -2.5h-64q-9 0 -12 3t-3 12zM477 598v38l22 81h51v-81h100v-63h-100v-573h-73v504q0 21 -43.5 38.5t-81.5 17.5q-77 0 -77 -82q0 -47 7 -65.5t33 -33.5q16 -9 38.5 -20t36.5 -17l15 -6
l-18 -54q-40 6 -77 21q-18 7 -35 16.5t-25 14.5l-8 6q-20 -19 -66 -37q-18 -7 -43 -13t-41 -8l-15 -3l-15 58q45 16 87 36q32 15 40.5 35t8.5 75q0 38 -12 56t-40 21q-119 13 -157 13v63h171q32 0 52.5 -7.5t37.5 -29.5q19 22 37 28.5t48 6.5q89 0 142 -36z" />
    <glyph glyph-name="bnSSA.nukt" horiz-adv-x="625" 
d="M135 -13v67q0 10 2.5 13t12.5 3h64q11 0 13.5 -3t2.5 -13v-67q0 -10 -3 -12.5t-13 -2.5h-64q-9 0 -12 3t-3 12zM553 573v-573h-73l-374 197v75q7 3 19 8.5t43 20.5t54.5 28.5t42.5 30.5t19 29q0 14 -53.5 51.5t-107.5 67.5l-54 30l16 35h-93v63h645v-63h-84zM291 487
q113 -58 189 -58v144h-360q101 -50 171 -86zM363 374q0 -3 -1 -7.5t-10 -19.5t-24.5 -30.5t-50 -38.5t-81.5 -45l284 -148v268q-23 0 -52.5 5t-46.5 11z" />
    <glyph glyph-name="bnSA.nukt" horiz-adv-x="620" 
d="M266 -29v67q0 10 2.5 13t12.5 3h64q11 0 13.5 -3t2.5 -13v-67q0 -10 -3 -12.5t-13 -2.5h-64q-9 0 -12 3t-3 12zM490 263q-91 51 -122 51q-9 0 -14.5 -1.5t-15 -11t-16.5 -27.5q-32 -80 -61 -120.5t-74 -40.5q-23 0 -58.5 11.5t-58.5 22.5l-24 11l16 56q92 -26 108 -26
q39 0 93 135q11 27 11 50q0 34 -80 91l-101 71l19 38h-121v63h640v-63h-68v-573h-73v263zM490 341v232h-352q49 -25 62 -32q104 -59 128 -92q8 -11 13.5 -24t6.5 -21l2 -7q13 0 32 -5.5t37 -13.5t32.5 -16t26.5 -14z" />
    <glyph glyph-name="bnHA.nukt" horiz-adv-x="565" 
d="M109 -87v67q0 10 2.5 13t12.5 3h64q11 0 13.5 -3t2.5 -13v-67q0 -10 -3 -12.5t-13 -2.5h-64q-9 0 -12 3t-3 12zM314 443h-210l-8 53q124 21 219 21q50 0 85 -11t53.5 -27t28 -45.5t11.5 -53t2 -63.5q0 -24 -16.5 -46t-42.5 -38.5t-57.5 -30.5t-63 -23t-57.5 -15.5
t-42.5 -9.5l-16.5 -3q93 -53 293 -169l-25 -47q-27 11 -72 30.5t-150 71t-171 93.5l8 78q4 1 11.5 2t31 4.5t46 8t53 11.5t57 14.5t53 18t45.5 21.5t31 25t12 29q0 67 -23.5 84t-84.5 17zM576 636v-63h-590v63h590z" />
    <glyph glyph-name="bnK_SSA" horiz-adv-x="960" 
d="M657 377v-377h-73v158q-227 78 -278 95q-18 7 -30 2.5t-24 -23.5q-22 -37 3 -59l67 -61l-31 -42q-52 24 -86 56q-36 34 -39 66.5t24 77.5q22 36 42.5 47.5t45.5 11.5q8 0 21 -3.5t22 -6.5l9 -3q1 1 2 3.5t3.5 9.5t3.5 13t1 13t-3 12q-6 9 -70 39t-101 44q-29 10 -41 -13
q-14 -25 7 -44l38 -37l-23 -39q-29 14 -65 42q-53 41 -12 109q33 58 71 58q13 0 35.5 -7.5t38.5 -14.5l16 -8q13 19 13 35q0 7 -6 17.5t-12 17.5l-7 7h-233v63h984v-63h-313v-127h126q59 0 90.5 -32t30.5 -78t-28 -91q-11 -19 -32 -44.5t-36 -41.5l-15 -16l-49 31l66 100
q27 39 17.5 71t-56.5 32h-114zM584 446v127h-97v-99q0 -28 28 -28h69zM584 377q-39 0 -61.5 1.5t-50.5 12.5t-40 32q-10 17 -10.5 54.5t3.5 66.5l4 29h-145q31 -26 31 -55q0 -9 -4.5 -21t-9.5 -20l-5 -8q10 -6 26 -16t46.5 -32.5t38.5 -35.5q5 -7 5.5 -19t-2 -23.5t-6 -22
t-5.5 -17.5l-3 -6l188 -76v156z" />
    <glyph glyph-name="bnJ_NYA" horiz-adv-x="950" 
d="M420 573l-3 -18l165 -146q14 12 37.5 29t79 46t91.5 29q94 0 94 -119q0 -80 -43 -86q20 -3 30.5 -20.5t12 -32.5t1.5 -40q0 -31 -8.5 -53t-19.5 -33.5t-30.5 -17.5t-33 -7t-34.5 -1q-38 0 -83.5 3.5t-71.5 7.5l-26 4q-37 -29 -54 -44q-27 -23 -60 -35t-70 -12
q-103 0 -182 111q-29 41 -63.5 114t-54 123.5t-19.5 52.5l47 18q102 -193 156 -268q55 -77 116 -77q53 0 97 39q56 49 79 80.5t23 56.5q0 21 -14.5 30t-53.5 9q-24 0 -78.5 -6t-96.5 -12l-43 -5l43 280h-365v63h977v-63h-542zM506 389l-101 91l-16 -110q64 19 117 19z
M626 173h150q22 0 30 8.5t8 32.5q0 35 -10.5 48t-42.5 13h-30v60h30q29 0 41 10.5t12 38.5q0 30 -6.5 40.5t-30.5 10.5q-20 0 -59 -21l-86 -46q1 0 2.5 -1t5.5 -4.5t8 -7.5t9 -10.5t8 -14.5t5.5 -19.5t2.5 -23.5q0 -24 -11.5 -52.5t-23.5 -45.5z" />
    <glyph glyph-name="bnReph" 
d="M-208 705q1 1 3.5 3t13.5 11t28 21q100 72 224 143l25 -39l-248 -191z" />
    <glyph glyph-name="bnRAc2" 
d="M-157 -144q-5 -3 -13 -9t-33 -20.5t-49.5 -25.5t-58.5 -20t-63 -9q-34 0 -57.5 2.5t-65 24t-69.5 62.5q-37 54 -70 165l42 22l82 -131q45 -72 141 -72q40 0 93.5 21.5t87.5 43.5l33 22v167l73 35v-362h-73v84z" />
    <glyph glyph-name="bnBAc2" 
d="M-103 -290h-74l-249 174v91l250 103h73v-368zM-177 -205v205l-181 -75z" />
    <glyph glyph-name="bnKA.half" horiz-adv-x="635" 
d="M386 465v-342h-74l-276 218v88l276 113v31h-324v63h659v-63h-262v-35l141 -38q43 -11 71.5 -43t28.5 -79q0 -8 -1 -16t-3 -17.5t-6 -19t-9 -18.5q-12 -20 -29.5 -43t-29.5 -36l-11 -13l-50 31l44 76q21 35 21 55q0 25 -18 39.5t-59 24.5zM312 212v255l-208 -90z" />
    <glyph glyph-name="bnKHA.half" horiz-adv-x="670" 
d="M610 -17q10 -5 46 -31q122 -86 195 -150l-28 -37l-249 155zM470 387l-258 -115l330 -186v551l-5 66h44l23 -66h74v-63h-63v-573h-73l-409 233v83l255 111q-14 33 -23 56q-5 12 -14 12q-6 0 -36 -13.5t-64.5 -26.5t-52.5 -13q-22 0 -35 6.5t-30 23.5q-13 14 -23 36.5
t-10 41.5t6.5 35.5t19.5 28.5q15 14 39.5 20t41.5 4l17 -1l12 -40q-18 -7 -46 -20q-21 -10 -21 -28q0 -7 9 -24q4 -7 6 -10t8 -6t16 -3q16 0 82.5 33.5t86.5 33.5q31 0 41 -27z" />
    <glyph glyph-name="bnGA.half" horiz-adv-x="360" 
d="M401 564l-27 -57l-110 24q-3 1 -11.5 3t-14.5 3t-15.5 3t-17.5 3.5t-16.5 3t-16 2t-12.5 0.5q-11 0 -25 -14t-23.5 -33.5t-9.5 -32.5q0 -12 13.5 -20t48.5 -19t51 -18q28 -11 40 -21.5t19 -29.5l2.5 -7.5t3 -11.5t3.5 -14.5t3.5 -16t3 -16.5t2 -16.5t0.5 -14.5
q0 -12 -17.5 -30t-42 -34.5t-49 -31.5t-42.5 -24l-17 -9l-30 47l7.5 5t17.5 12t24.5 17.5t26 19.5t25 20t17.5 17.5t7 12.5q0 19 -6.5 35.5t-22.5 22.5q-13 5 -45 16q-94 32 -117 57q-13 15 -13 31q0 20 9 45.5t21.5 47t24.5 39t20 23.5q26 22 69 22q42 0 102.5 -15.5
t99.5 -30.5z" />
    <glyph glyph-name="bnGHA.half" horiz-adv-x="693" 
d="M578 -19q10 -5 46 -31q122 -86 195 -150l-28 -37l-249 155zM260 573q-2 -3 -5 -8.5t-11.5 -20t-15 -26.5t-12 -25.5t-5.5 -20.5q0 -17 8 -26q5 -5 16.5 -8.5t29 -5.5t36.5 -2.5t44 -0.5h39h40h16l21 -87l-206 -117l301 -143v491h-296zM629 573v-573h-73l-384 185v75
l198 105h-50q-137 0 -169 43q-13 18 -13 43q0 23 14.5 53.5t28.5 49.5l14 19h-112v63h621v-63h-75z" />
    <glyph glyph-name="bnNGA.half" horiz-adv-x="590" 
d="M236 573h-246v63h611v-63h-106q3 -10 3 -29q0 -55 -15.5 -78t-69.5 -23h-114v-47q109 16 151 16q56 0 84.5 -25t28.5 -66q0 -106 -163 -176q-52 -22 -104 -22q-41 0 -84 21t-73 70q-33 54 -56.5 110.5t-30.5 85.5l-8 29l47 19q55 -107 100 -188q41 -73 108 -73
q27 0 68 16q124 48 124 100q0 26 -62 27h-201v181q0 14 2 27t4 19zM299 505h91q47 0 47 37q0 30 -9 35.5t-63 5.5q-47 0 -56.5 -10.5t-9.5 -67.5z" />
    <glyph glyph-name="bnCA.half" horiz-adv-x="575" 
d="M153 464v-160q0 -47 15 -71t50 -24q38 0 91 24t95 72q35 40 35 67q0 7 -1 13t-4.5 10.5t-6 7.5t-9 6t-10 5t-11.5 4t-11.5 2.5t-13.5 2t-13 2.5zM153 516q72 -8 109 -12q11 -1 31 -4q93 -11 113 -15q55 -11 80 -33.5t25 -65.5q0 -45 -22 -80q-52 -84 -130.5 -128
t-144.5 -44q-56 0 -95 37.5t-39 121.5v280h-90v63h594v-63h-431v-57z" />
    <glyph glyph-name="bnCHA.half" horiz-adv-x="660" 
d="M372 -15q10 -5 46 -31q122 -86 195 -150l-28 -37l-249 155zM343 344q20 17 20 41q0 19 -14 30t-25 13.5t-41 7.5l-137 24v-140q1 -29 16 -41.5t33 -12.5q54 0 148 78zM430 405q4 -15 4 -24q0 -44 -59 -92q-112 -91 -188 -91q-38 0 -76 29t-38 85v261h-87v63h686v-63h-526
v-57q88 -12 146 -20q123 -18 183 -32q58 -14 87 -40t29 -79q0 -31 -12 -98q-4 -22 -31.5 -45.5t-63 -40.5t-71.5 -31t-59.5 -21t-24.5 -7l246 -99l-16 -47q-235 66 -331 118v72q11 3 29.5 7.5t66 19.5t84.5 30t69.5 36.5t37.5 41.5q6 25 6 59q0 21 -8.5 31.5t-36.5 20.5
q-12 5 -24 8t-17 4z" />
    <glyph glyph-name="bnJA.half" horiz-adv-x="875" 
d="M820 -13q10 -5 46 -31q122 -86 195 -150l-28 -37l-249 155zM297 306v267h-312v63h909v-63h-524v-18q219 -37 305 -64l9 -3q18 -5 27 -8t24.5 -9t24 -10.5t20 -11.5t17.5 -14t12.5 -16.5t9 -21t2.5 -24.5q0 -10 -1.5 -21t-4.5 -23l-101 -345h-73q84 285 99 338
q20 72 -53 93l-317 78v-111q58 6 96 6q22 0 42.5 -1.5t40.5 -5t36 -10t29 -15t20 -21.5t7 -29q0 -105 -141 -224q-17 -14 -35.5 -25t-43 -19t-48.5 -8q-80 0 -170 101q-55 62 -94.5 122t-52.5 89l-12 30l45 25q92 -121 154 -196q26 -31 40 -46.5t39.5 -31.5t50.5 -16
q39 0 89 42q99 83 99 128q0 13 -7.5 21t-23.5 11.5t-31 4.5t-39 1t-65 -2.5t-69 -4.5z" />
    <glyph glyph-name="bnJHA.half" horiz-adv-x="765" 
d="M477 -17q10 -5 46 -31q122 -86 195 -150l-28 -37l-249 155zM520 271l121 -44v409l-5 66h44l23 -66h91v-63h-80v-534h-73v121l-121 38v-198h-73l-378 281v81l378 170v41h-461v63h534v-365zM447 82v377l-307 -143z" />
    <glyph glyph-name="bnNYA.half" horiz-adv-x="925" 
d="M604 -13q10 -5 46 -31q122 -86 195 -150l-28 -37l-249 155zM627 500q9 2 23 5t45 8.5t47 5.5q31 0 46.5 -2t35 -12t28 -34.5t8.5 -65.5v-8q0 -79 -45 -86q44 -8 44 -87v-9q0 -32 -7.5 -54.5t-16.5 -33.5t-27.5 -16.5t-30.5 -6.5t-35 -1q-24 0 -53 4.5t-45 8.5l-17 5v-121
h-74v84q-14 -9 -37 -23t-80.5 -37.5t-99.5 -23.5q-34 0 -57.5 2.5t-65 24t-69.5 62.5q-37 54 -70 165l40 25l84 -134q46 -73 141 -73q40 0 93.5 22t87.5 44l33 22v297q0 18 -7.5 35t-20.5 31t-33.5 22t-43.5 8q-22 0 -55.5 -13.5t-66 -33.5t-61.5 -39.5t-47 -32.5l-18 -14
l-30 38q63 72 134.5 122t136.5 50q32 0 60 -7t46.5 -18.5t33.5 -25.5t23 -28t13.5 -25.5t7.5 -18.5zM627 174q75 -8 115 -8q46 0 46 42v21q0 28 -12 38.5t-41 10.5h-53v60h53q29 0 41 10.5t12 38.5v25q0 42 -44 42q-18 0 -47.5 -2.5t-49.5 -5.5l-20 -2v-270z" />
    <glyph glyph-name="bnTTA.half" horiz-adv-x="571" 
d="M147 304q0 -47 15 -71t50 -24q33 0 87.5 28t92.5 68q43 45 43 76q0 46 -114 46h-65l-6 54q83 8 118 8q66 0 102 -29t36 -79q0 -40 -30 -82q-56 -78 -132.5 -121.5t-135.5 -43.5q-56 0 -95 37.5t-39 121.5v280h-87v63h417q0 28 -6 42.5t-19.5 20.5t-38.5 6h-293l-4 53
q245 14 303 14q67 0 97.5 -36.5t30.5 -99.5h108v-63h-435v-269z" />
    <glyph glyph-name="bnTTHA.half" horiz-adv-x="580" 
d="M315 -13q10 -5 46 -31q122 -86 195 -150l-28 -37l-249 155zM528 225q0 -30 -22.5 -69.5t-57 -74t-81.5 -58t-91 -23.5t-89.5 34.5t-76 81.5t-49.5 92.5t-19 70.5q114 55 150 95q17 19 25.5 36t8.5 34q0 13 -7 26t-26 39q-2 2 -3 4q-22 31 -22 60h-182v63h183q2 23 27 51
q24 26 62.5 58t64.5 51.5t27 19.5l32 -37q-97 -90 -128 -121q-2 -2 -4 -4.5t-3.5 -4.5l-3 -4t-2.5 -3.5t-2 -2.5t-1 -2v-1h355v-63h-353q0 -22 45 -67.5t99 -90.5t99 -99t45 -91zM452 222q0 14 -17 38t-41 48t-48.5 46t-41.5 35l-17 14q0 -28 -37 -71q-19 -22 -50 -45
t-51.5 -34.5t-21.5 -11.5q3 -7 8 -18t20.5 -39t32 -49.5t41 -39t47.5 -17.5q55 0 115.5 54t60.5 90z" />
    <glyph glyph-name="bnTA.half" horiz-adv-x="729" 
d="M432 0q10 -5 46 -31q122 -86 195 -150l-28 -37l-249 155zM769 636v-63h-803v63h803zM469 57q-44 -20 -84 -20q-52 0 -97 24t-100 80q-34 35 -73.5 90.5t-61.5 92t-22 37.5l37 27l170 -195q71 -81 145 -81q33 0 61 13q50 23 95.5 73t59.5 88q15 41 15 74q0 44 -31.5 64
t-99.5 20h-204l-8 52q158 20 229 20q97 0 140.5 -43t43.5 -115q0 -41 -16 -84q-27 -73 -79.5 -129.5t-119.5 -87.5z" />
    <glyph glyph-name="bnTHA.half" horiz-adv-x="661" 
d="M554 -15q10 -5 46 -31q122 -86 195 -150l-28 -37l-249 155zM244 529h-149l-8 57l85 14q41 5 73 5q59 0 95.5 -9.5t55.5 -31.5t25 -49.5t6 -73.5q0 -80 -156 -146q-40 -17 -73 -26l324 -187v629h46l19 -75h82v-63h-74v-573h-73l-405 231v87l82 25q155 54 156 111
q0 33 -7 47t-30 21t-74 7z" />
    <glyph glyph-name="bnDHA.half" horiz-adv-x="575" 
d="M443 -17q10 -5 46 -31q122 -86 195 -150l-28 -37l-249 155zM447 94v360l-303 -140zM279 455l168 75v106l-4 66h44l23 -66h77v-63h-67v-573h-73l-378 281v79l136 62q-5 1 -13.5 4.5t-29.5 14.5t-37.5 24t-30 33.5t-13.5 41.5q0 39 26.5 80t62.5 41q24 0 53 -6t46 -12
l17 -6l-10 -42q-52 10 -83 10q-21 0 -35 -19.5t-14 -43.5q0 -20 34 -41.5t68 -33.5z" />
    <glyph glyph-name="bnPHA.half" horiz-adv-x="845" 
d="M519 -13q10 -5 46 -31q122 -86 195 -150l-28 -37l-249 155zM109 573q101 -44 171 -86q22 -13 35.5 -23.5t26 -29t12.5 -39.5q0 -45 -34 -78.5t-129 -82.5l272 -149v408h168q156 0 156 -123q0 -30 -21 -72q-10 -20 -31 -46t-37 -42l-17 -16l-51 34q42 62 62 93
q19 29 19 54q0 46 -77 46h-98v-421h-73l-367 197v75q7 3 19 8.5t42.5 20.5t54 28.5t42.5 30.5t19 29q0 14 -53.5 51.5t-107.5 67.5l-54 30l16 35h-88v63h869v-63h-746z" />
    <glyph glyph-name="bnBHA.half" horiz-adv-x="825" 
d="M440 -13q10 -5 46 -31q122 -86 195 -150l-28 -37l-249 155zM432 264q-83 0 -123 26t-40 93q0 91 27 117q17 16 69 16q15 0 36 -2.5t34 -4.5l13 -3l-6 -54h-74q-25 0 -25 -76q0 -24 19.5 -30.5t63.5 -6.5q22 0 46 16.5t42 35.5t39.5 35.5t39.5 16.5q43 0 97 -64t54 -102
q0 -49 -65.5 -112.5t-143.5 -103.5q-57 -29 -114 -29q-100 0 -208 108q-36 36 -74 87.5t-58 84.5l-20 33l42 31l150 -166q88 -99 164 -99q47 0 92 24q53 28 102.5 70t49.5 72q0 16 -25.5 48t-44.5 32q-8 0 -23.5 -14.5t-32 -32t-44.5 -32t-59 -14.5zM834 573h-845v63h845
v-63z" />
    <glyph glyph-name="bnYA.half" horiz-adv-x="665" 
d="M576 -13q10 -5 46 -31q122 -86 195 -150l-28 -37l-249 155zM603 573v-573h-73l-374 197v75q178 74 178 117q0 7 -12 18.5t-31 25t-41.5 28.5t-45.5 28.5t-42 24.5t-31 17l-12 7l16 35h-103v63h641v-63h-70zM530 573h-360q101 -44 171 -86q22 -13 35.5 -23.5t26 -29
t12.5 -39.5q0 -44 -34.5 -77.5t-130.5 -83.5l280 -149v488z" />
    <glyph glyph-name="bnDDHA.half" horiz-adv-x="571" 
d="M74 573h-87v63h595v-63h-435v-269q0 -47 15 -71t50 -24q33 0 87.5 28t92.5 68q43 45 43 76q0 46 -114 46h-65l-6 54q83 8 118 8q66 0 102 -29t36 -79q0 -40 -30 -82q-56 -78 -132.5 -121.5t-135.5 -43.5q-56 0 -95 37.5t-39 121.5v280zM-816 39z" />
    <glyph glyph-name="bnBA.half" horiz-adv-x="435" 
d="M390 573v-453h-73l-288 218v91l288 111v33h-329v63h456v-63h-54zM317 211v254l-219 -89z" />
    <glyph glyph-name="bnPA.half" horiz-adv-x="540" 
d="M462 464q-30 29 -51 46q-47 38 -82 38q-24 0 -65 -25q-7 -4 -18.5 -12.5t-23 -18t-22.5 -18t-17 -14.5l-7 -5l120 -143zM541 395l-28 25l-203 -187l-45 7l-145 177l-44 -30l-36 47q112 101 190 152q54 35 96 35q43 0 88 -31q23 -16 65 -52t72 -64l30 -29z" />
    <glyph glyph-name="bnNA.half" horiz-adv-x="450" 
d="M466 356q-7 2 -18 6.5t-43 15t-60 18.5t-60 14.5t-52 6.5q-32 0 -50.5 -23.5t-18.5 -54.5q0 -9 2 -17.5t6 -15.5q12 -20 34.5 -46t38.5 -41l16 -16l-31 -46q-74 52 -95 73q-46 47 -46 117q0 64 44 103q25 22 51 31t63 9q34 0 94 -19t104.5 -38t42.5 -19zM462 573h-475v63
h475v-63z" />
    <glyph glyph-name="bnDA.half" horiz-adv-x="485" 
d="M65 573h-76v63h509v-63h-359v-157l234 107l45 -23l-54 -354h-69l44 288l-238 -110l-36 52v197z" />
    <glyph glyph-name="bnNNA.half" horiz-adv-x="420" 
d="M463 526l-31 -66q-14 8 -38 20t-82 32t-99 20q-12 0 -23 -5t-20.5 -13.5t-18 -19t-14.5 -22t-9 -22.5t-3 -21q0 -24 23.5 -60t47.5 -60l24 -24l-36 -40q-53 31 -91 73q-13 14 -23 30.5t-16.5 37t-6.5 40.5q0 36 23 80t47 65q8 6 15 11t13.5 9t13.5 6.5t14 4.5t14.5 3
t14.5 1.5t16 0.5q32 0 63 -8q35 -9 80.5 -27t73.5 -32z" />
    <glyph glyph-name="bnDDA.half" horiz-adv-x="630" 
d="M333 154q-40 0 -78.5 19t-87.5 78q-26 32 -48 68t-31 56l-9 20l40 28q37 -50 101 -132q51 -65 103 -65q47 0 105 52t58 94q0 19 -9 28.5t-38 9.5q-24 0 -66 -3t-72 -7l-30 -3v176h-286v63h659v-63h-300v-107q48 12 108 12q58 0 81.5 -28t23.5 -68q0 -72 -78 -150
t-146 -78z" />
    <glyph glyph-name="bnMA.half" horiz-adv-x="525" 
d="M392 342q-20 0 -123.5 37.5t-115.5 37.5q-13 0 -29.5 -16.5t-16.5 -38.5q0 -11 12.5 -26.5t24.5 -25.5l12 -9l-25 -39q-44 20 -61 33q-36 27 -36 62q0 51 35.5 92t69.5 41q8 0 19 -2.5t18 -5.5l7 -2q1 2 2 4.5t2.5 8.5t1.5 11q0 9 -17 26.5t-34 29.5l-17 13h-131v63h544
v-63h-85q37 -65 37 -95q0 -34 -35 -85t-59 -51zM250 459q98 -44 118 -44q16 0 30.5 23.5t14.5 41.5q0 13 -7.5 36t-15.5 40l-7 17h-182q7 -4 17 -10t27 -23t17 -30q0 -11 -3 -23.5t-6 -20.5z" />
    <glyph glyph-name="bnLA.half" horiz-adv-x="585" 
d="M630 437l-38 -45q0 1 -1 3t-4.5 7t-9 8.5t-16.5 6.5t-25 3q-55 0 -81.5 -18.5t-34.5 -74.5l-11 -83h-56l-3 49q-2 44 -7.5 68t-23.5 37t-40 16t-67 3q-74 0 -74 -79q0 -48 38 -185l-46 -17q-8 12 -19 32.5t-29.5 79.5t-18.5 113q0 133 142 133q38 0 61 -1.5t51.5 -8
t45.5 -21.5t24 -39q19 41 52.5 53.5t91.5 12.5q23 0 41.5 -5.5t29 -13t17.5 -15.5t9 -14zM595 573h-609v63h609v-63z" />
    <glyph glyph-name="bnSHA.half" horiz-adv-x="440" 
d="M457 608v-98q0 11 -10 21t-25.5 16.5t-34 10.5t-35.5 4q-77 0 -77 -84q0 -46 7 -64.5t33 -34.5q10 -6 23 -12.5t24 -11.5t21 -9.5t16 -6.5l6 -3l-18 -54q-40 6 -77 21q-18 8 -35 17t-25 15l-8 5q-20 -19 -66 -37q-18 -7 -43 -13t-40 -8l-16 -3l-15 55q45 16 87 36
q32 16 40.5 37t8.5 76q0 26 -5.5 42t-16.5 24.5t-30 10.5q-17 2 -56.5 5.5t-70 5.5l-30.5 2v63h171q16 0 28 -1.5t23 -5.5t20.5 -11.5t18.5 -18.5q10 12 19.5 19t20 10.5t20.5 4.5t25 1q24 0 45 -2.5t34.5 -6.5t23.5 -7.5t15 -6.5z" />
    <glyph glyph-name="bnSA.half" horiz-adv-x="710" 
d="M325 482q175 -82 201 -82q14 0 33 23t19 40q0 18 -6 45.5t-12 45.5l-6 19h-189zM550 322q-29 0 -92.5 25t-112.5 51l-49 25q-5 -11 -14.5 -28t-36.5 -45t-51 -28q-28 0 -64 13t-58 27l-23 13l19 48q69 -23 114 -23q17 0 43.5 43t44.5 87l18 43h-298v63h728v-63h-101
q36 -68 36 -112q0 -29 -37 -84t-66 -55z" />
    <glyph glyph-name="bnHA.half" horiz-adv-x="565" 
d="M278 -13q10 -5 46 -31q122 -86 195 -150l-28 -37l-249 155zM314 443h-210l-8 53q124 21 219 21q50 0 85 -11t53.5 -27t28 -45.5t11.5 -53t2 -63.5q0 -24 -16.5 -46t-42.5 -38.5t-57.5 -30.5t-63 -23t-57.5 -15.5t-42.5 -9.5l-16.5 -3q93 -53 293 -169l-25 -47
q-27 11 -72 30.5t-150 71t-171 93.5l8 78q4 1 11.5 2t31 4.5t46 8t53 11.5t57 14.5t53 18t45.5 21.5t31 25t12 29q0 67 -23.5 84t-84.5 17zM576 636v-63h-590v63h590z" />
    <glyph glyph-name="bnSSA.half" horiz-adv-x="505" 
d="M57 367q-9 12 -12.5 30.5t-2.5 37.5t4.5 39t9 37.5t10 31.5t8.5 22l3 8h-91v63h530v-63h-84q37 -84 37 -114q0 -34 -33 -92.5t-57 -63.5q-10 -4 -56.5 -2t-98 6.5t-101 20.5t-66.5 39zM121 505q-1 -3 -2.5 -8.5t-5 -20t-5 -27t-1 -25.5t4.5 -19q6 -9 31.5 -15.5t58 -10
t64 -6t53.5 -2.5l21 -1zM379 426q17 25 17 47q0 12 -8 37t-17 44l-8 19h-220l-6 -14z" />
    <glyph glyph-name="bnK_SSA.half" horiz-adv-x="980" 
d="M641 -23q10 -5 46 -31q122 -86 195 -150l-28 -37l-249 155zM657 377v-377h-73v158q-227 78 -278 95q-18 7 -30 2.5t-24 -23.5q-22 -37 3 -59l67 -61l-31 -42q-52 24 -86 56q-36 34 -39 66.5t24 77.5q22 36 42.5 47.5t45.5 11.5q8 0 21 -3.5t22 -6.5l9 -3q1 1 2 3.5
t3.5 9.5t3.5 13t1 13t-3 12q-6 9 -70 39t-101 44q-29 10 -41 -13q-14 -25 7 -44l38 -37l-23 -39q-29 14 -65 42q-53 41 -12 109q33 58 71 58q13 0 35.5 -7.5t38.5 -14.5l16 -8q13 19 13 35q0 7 -6 17.5t-12 17.5l-7 7h-233v63h984v-63h-313v-127h126q59 0 90.5 -32t30.5 -78
t-28 -91q-11 -19 -32 -44.5t-36 -41.5l-15 -16l-49 31l66 100q27 39 17.5 71t-56.5 32h-114zM584 446v127h-97v-99q0 -28 28 -28h69zM584 377q-39 0 -61.5 1.5t-50.5 12.5t-40 32q-10 17 -10.5 54.5t3.5 66.5l4 29h-145q31 -26 31 -55q0 -9 -4.5 -21t-9.5 -20l-5 -8
q10 -6 26 -16t46.5 -32.5t38.5 -35.5q5 -7 5.5 -19t-2 -23.5t-6 -22t-5.5 -17.5l-3 -6l188 -76v156z" />
    <glyph glyph-name="bnJ_NYA.half" horiz-adv-x="975" 
d="M461 0q10 -5 46 -31q122 -86 195 -150l-28 -37l-249 155zM420 573l-3 -18l165 -146q14 12 37.5 29t79 46t91.5 29q94 0 94 -119q0 -80 -43 -86q20 -3 30.5 -20.5t12 -32.5t1.5 -40q0 -31 -8.5 -53t-19.5 -33.5t-30.5 -17.5t-33 -7t-34.5 -1q-38 0 -83.5 3.5t-71.5 7.5
l-26 4q-37 -29 -54 -44q-27 -23 -60 -35t-70 -12q-103 0 -182 111q-29 41 -63.5 114t-54 123.5t-19.5 52.5l47 18q102 -193 156 -268q55 -77 116 -77q53 0 97 39q56 49 79 80.5t23 56.5q0 21 -14.5 30t-53.5 9q-24 0 -78.5 -6t-96.5 -12l-43 -5l43 280h-365v63h977v-63h-542
zM506 389l-101 91l-16 -110q64 19 117 19zM626 173h150q22 0 30 8.5t8 32.5q0 35 -10.5 48t-42.5 13h-30v60h30q29 0 41 10.5t12 38.5q0 30 -6.5 40.5t-30.5 10.5q-20 0 -59 -21l-86 -46q1 0 2.5 -1t5.5 -4.5t8 -7.5t9 -10.5t8 -14.5t5.5 -19.5t2.5 -23.5q0 -24 -11.5 -52.5
t-23.5 -45.5z" />
    <glyph glyph-name="bnKA.nukt.half" 
d="M521 457v-457h-73l-372 276v86l372 170v41h-457v63h886v-63h-356v-41l187 -64q26 -8 47.5 -23.5t37 -41t15.5 -55.5q0 -34 -19 -71q-14 -28 -35 -56.5t-35 -42.5l-14 -14l-48 33l64 110q14 23 14 40q0 42 -78 65zM448 89v365l-301 -143zM111 4v67q0 10 2.5 13t12.5 3h64
q11 0 13.5 -3t2.5 -13v-67q0 -10 -3 -12.5t-13 -2.5h-64q-9 0 -12 3t-3 12zM497 -21q10 -5 46 -31q122 -86 195 -150l-28 -37l-249 155z" />
    <glyph glyph-name="bnKHA.nukt.half" 
d="M470 386l-258 -115l330 -186v551l-5 66h44l23 -66h74v-63h-63v-573h-73l-409 233v83l255 111q-14 33 -23 56q-5 12 -14 12q-6 0 -36 -13.5t-64.5 -26.5t-52.5 -13q-22 0 -35 6.5t-30 23.5q-13 14 -23 36.5t-10 41.5t6.5 35.5t19.5 28.5q15 14 39.5 20t41.5 4l17 -1
l12 -40q-18 -7 -46 -20q-21 -10 -21 -28q0 -7 9 -24q4 -7 6 -10t8 -6t16 -3q16 0 82.5 33.5t86.5 33.5q31 0 41 -27zM237 -6v67q0 10 2.5 13t12.5 3h64q11 0 13.5 -3t2.5 -13v-67q0 -10 -3 -12.5t-13 -2.5h-64q-9 0 -12 3t-3 12zM631 -22q10 -5 46 -31q122 -86 195 -150
l-28 -37l-249 155z" />
    <glyph glyph-name="bnGA.nukt.half" 
d="M401 502l-137 29q-3 1 -11.5 3t-14.5 3t-15.5 3t-17.5 3.5t-16.5 3t-16 2t-12.5 0.5q-16 0 -37 -30.5t-21 -51.5q0 -12 14 -19.5t47.5 -18t51.5 -17.5q28 -11 39 -21.5t18 -29.5q5 -12 11.5 -44t6.5 -53q0 -7 -5.5 -16t-15.5 -18t-22 -18.5t-26 -19t-28 -18t-26 -15.5
t-22 -12.5t-15 -8.5l-6 -3l-32 51l7.5 5t17.5 12t24.5 17.5t26 19.5t25 20t17.5 17.5t7 12.5q0 19 -6 33.5t-21 20.5q-12 5 -42 15q-92 32 -115 58q-13 15 -13 31q0 37 25.5 87t44.5 65q26 22 69 22q42 0 102.5 -15.5t99.5 -30.5l40 -15v75l-8 66h41l26 -66h91v-63h-78v-573
h-72v502zM182 -37v67q0 10 2.5 13t12.5 3h64q11 0 13.5 -3t2.5 -13v-67q0 -10 -3 -12.5t-13 -2.5h-64q-9 0 -12 3t-3 12zM464 -20q10 -5 46 -31q122 -86 195 -150l-28 -37l-249 155z" />
    <glyph glyph-name="bnGHA.nukt.half" 
d="M260 573q-2 -3 -5 -8.5t-11.5 -20t-15 -26.5t-12 -25.5t-5.5 -20.5q0 -17 8 -26q5 -5 16.5 -8.5t29 -5.5t36.5 -2.5t44 -0.5h39h40h16l21 -87l-206 -117l301 -143v491h-296zM629 573v-573h-73l-384 185v75l198 105h-50q-137 0 -169 43q-13 18 -13 43q0 23 14.5 53.5
t28.5 49.5l14 19h-112v63h621v-63h-75zM178 -25v67q0 10 2.5 13t12.5 3h64q11 0 13.5 -3t2.5 -13v-67q0 -10 -3 -12.5t-13 -2.5h-64q-9 0 -12 3t-3 12zM535 -19q10 -5 46 -31q122 -86 195 -150l-28 -37l-249 155z" />
    <glyph glyph-name="bnNGA.nukt.half" 
d="M305 290v148q-74 21 -128 49l-36 19l23 46l141 -52q0 72 26 102q17 19 38 27t64 8q31 0 48.5 -1t38 -6.5t31 -16.5t17.5 -31t7 -50q0 -53 -19 -77t-73 -24h-113v-82q113 11 155 11q26 0 48 -7t36.5 -19.5t23 -30t8.5 -36.5q0 -60 -48.5 -116t-122.5 -101
q-25 -15 -56.5 -24.5t-54.5 -9.5q-79 0 -159 90q-42 47 -84.5 120.5t-63.5 123.5l-22 51l47 18q104 -180 172 -255q34 -38 59 -56t51 -18q14 0 33 5t36 15q141 80 141 147q0 33 -65 33h-199zM370 491h96q47 0 47 34q0 32 -10.5 39t-62.5 7q-48 0 -59 -11.5t-11 -68.5z
M246 -121v67q0 10 2.5 13t12.5 3h64q11 0 13.5 -3t2.5 -13v-67q0 -10 -3 -12.5t-13 -2.5h-64q-9 0 -12 3t-3 12zM448 -14q10 -5 46 -31q122 -86 195 -150l-28 -37l-249 155z" />
    <glyph glyph-name="bnCA.nukt.half" 
d="M239 405v-239q0 -47 14.5 -71t50.5 -24q43 0 114 48.5t111 109.5q30 46 30 78q0 24 -13.5 33t-44.5 15zM239 463q71 -8 109 -12q144 -17 172 -22q110 -19 110 -117q0 -39 -25 -86q-49 -92 -140.5 -159t-162.5 -67q-26 0 -49 8t-43.5 25.5t-32 49.5t-11.5 76v414h-94v63
h645v-63h-478v-110zM142 -129v67q0 10 2.5 13t12.5 3h64q11 0 13.5 -3t2.5 -13v-67q0 -10 -3 -12.5t-13 -2.5h-64q-9 0 -12 3t-3 12zM348 -21q10 -5 46 -31q122 -86 195 -150l-28 -37l-249 155z" />
    <glyph glyph-name="bnCHA.nukt.half" 
d="M343 344q20 17 20 41q0 19 -14 30t-25 13.5t-41 7.5l-137 24v-140q1 -29 16 -41.5t33 -12.5q54 0 148 78zM430 405q4 -15 4 -24q0 -44 -59 -92q-112 -91 -188 -91q-38 0 -76 29t-38 85v261h-87v63h686v-63h-526v-57q88 -12 146 -20q123 -18 183 -32q58 -14 87 -40t29 -79
q0 -31 -12 -98q-4 -22 -31.5 -45.5t-63 -40.5t-71.5 -31t-59.5 -21t-24.5 -7l246 -99l-16 -47q-235 66 -331 118v72q11 3 29.5 7.5t66 19.5t84.5 30t69.5 36.5t37.5 41.5q6 25 6 59q0 21 -8.5 31.5t-36.5 20.5q-12 5 -24 8t-17 4zM148 -81v67q0 10 2.5 13t12.5 3h64
q11 0 13.5 -3t2.5 -13v-67q0 -10 -3 -12.5t-13 -2.5h-64q-9 0 -12 3t-3 12zM377 -39q10 -5 46 -31q122 -86 195 -150l-28 -37l-249 155z" />
    <glyph glyph-name="bnJA.nukt.half" 
d="M297 306v267h-312v63h909v-63h-524v-18q219 -37 305 -64l9 -3q18 -5 27 -8t24.5 -9t24 -10.5t20 -11.5t17.5 -14t12.5 -16.5t9 -21t2.5 -24.5q0 -10 -1.5 -21t-4.5 -23l-101 -345h-73q84 285 99 338q20 72 -53 93l-317 78v-111q58 6 96 6q22 0 42.5 -1.5t40.5 -5t36 -10
t29 -15t20 -21.5t7 -29q0 -105 -141 -224q-17 -14 -35.5 -25t-43 -19t-48.5 -8q-80 0 -170 101q-55 62 -94.5 122t-52.5 89l-12 30l45 25q92 -121 154 -196q26 -31 40 -46.5t39.5 -31.5t50.5 -16q39 0 89 42q99 83 99 128q0 13 -7.5 21t-23.5 11.5t-31 4.5t-39 1t-65 -2.5
t-69 -4.5zM352 -104v67q0 10 2.5 13t12.5 3h64q11 0 13.5 -3t2.5 -13v-67q0 -10 -3 -12.5t-13 -2.5h-64q-9 0 -12 3t-3 12zM579 -21q10 -5 46 -31q122 -86 195 -150l-28 -37l-249 155z" />
    <glyph glyph-name="bnJHA.nukt.half" 
d="M520 271l121 -44v409l-5 66h44l23 -66h91v-63h-80v-534h-73v121l-121 38v-198h-73l-378 281v81l378 170v41h-461v63h534v-365zM447 82v377l-307 -143zM136 1v67q0 10 2.5 13t12.5 3h64q11 0 13.5 -3t2.5 -13v-67q0 -10 -3 -12.5t-13 -2.5h-64q-9 0 -12 3t-3 12zM494 -22
q10 -5 46 -31q122 -86 195 -150l-28 -37l-249 155z" />
    <glyph glyph-name="bnNYA.nukt.half" 
d="M597 500q9 2 23 5t45 8.5t47 5.5q31 0 46.5 -2t35 -12t28 -34.5t8.5 -65.5v-8q0 -79 -45 -86q44 -8 44 -87v-9q0 -32 -7.5 -54.5t-16.5 -33.5t-27.5 -16.5t-30.5 -6.5t-35 -1q-24 0 -53 4.5t-45 8.5l-17 5v-121h-74v84q-14 -9 -37 -23t-80.5 -37.5t-99.5 -23.5
q-34 0 -57.5 2.5t-65 24t-69.5 62.5q-37 54 -70 165l40 25l84 -134q46 -73 141 -73q40 0 93.5 22t87.5 44l33 22v297q0 18 -7.5 35t-20.5 31t-33.5 22t-43.5 8q-22 0 -55.5 -13.5t-66 -33.5t-61.5 -39.5t-47 -32.5l-18 -14l-30 38q63 72 134.5 122t136.5 50q32 0 60 -7
t46.5 -18.5t33.5 -25.5t23 -28t13.5 -25.5t7.5 -18.5zM597 174q75 -8 115 -8q46 0 46 42v21q0 28 -12 38.5t-41 10.5h-53v60h53q29 0 41 10.5t12 38.5v25q0 42 -44 42q-18 0 -47.5 -2.5t-49.5 -5.5l-20 -2v-270zM337 -145v67q0 10 2.5 13t12.5 3h64q11 0 13.5 -3t2.5 -13
v-67q0 -10 -3 -12.5t-13 -2.5h-64q-9 0 -12 3t-3 12zM551 -19q10 -5 46 -31q122 -86 195 -150l-28 -37l-249 155z" />
    <glyph glyph-name="bnTTA.nukt.half" 
d="M409 403q52 0 81 -30t29 -77q0 -30 -22 -82q-40 -93 -135 -153.5t-161 -60.5q-55 0 -91.5 37t-36.5 122v414h-96v63h448q0 96 -64 96h-375l-4 53q317 14 385 14q44 0 74 -25t42 -60.5t12 -77.5h115v-63h-464v-404q0 -49 12 -72t47 -23q45 0 109.5 39.5t103.5 99.5
q30 46 30 78q0 46 -58 46h-98l-6 60q89 6 123 6zM156 -144v67q0 10 2.5 13t12.5 3h64q11 0 13.5 -3t2.5 -13v-67q0 -10 -3 -12.5t-13 -2.5h-64q-9 0 -12 3t-3 12zM359 -15q10 -5 46 -31q122 -86 195 -150l-28 -37l-249 155z" />
    <glyph glyph-name="bnTTHA.nukt.half" 
d="M528 225q0 -30 -22.5 -69.5t-57 -74t-81.5 -58t-91 -23.5t-89.5 34.5t-76 81.5t-49.5 92.5t-19 70.5q114 55 150 95q17 19 25.5 36t8.5 34q0 13 -7 26t-26 39q-2 2 -3 4q-22 31 -22 60h-182v63h183q2 23 27 51q24 26 62.5 58t64.5 51.5t27 19.5l32 -37q-97 -90 -128 -121
q-2 -2 -4 -4.5t-3.5 -4.5l-3 -4t-2.5 -3.5t-2 -2.5t-1 -2v-1h355v-63h-353q0 -22 45 -67.5t99 -90.5t99 -99t45 -91zM452 222q0 14 -17 38t-41 48t-48.5 46t-41.5 35l-17 14q0 -28 -37 -71q-19 -22 -50 -45t-51.5 -34.5t-21.5 -11.5q3 -7 8 -18t20.5 -39t32 -49.5t41 -39
t47.5 -17.5q55 0 115.5 54t60.5 90zM174 -146v67q0 10 2.5 13t12.5 3h64q11 0 13.5 -3t2.5 -13v-67q0 -10 -3 -12.5t-13 -2.5h-64q-9 0 -12 3t-3 12zM377 -19q10 -5 46 -31q122 -86 195 -150l-28 -37l-249 155z" />
    <glyph glyph-name="bnDDxA.half" horiz-adv-x="640" 
d="M274 5v67q0 10 2.5 13t12.5 3h64q11 0 13.5 -3t2.5 -13v-67q0 -10 -3 -12.5t-13 -2.5h-64q-9 0 -12 3t-3 12zM338 154q-40 0 -78.5 19t-87.5 78q-26 32 -48 68t-31 56l-9 20l40 28q37 -50 101 -132q51 -65 103 -65q47 0 105 52t58 94q0 19 -9 28.5t-38 9.5q-24 0 -66 -3
t-72 -7l-30 -3v176h-286v63h659v-63h-300v-107q48 12 108 12q58 0 81.5 -28t23.5 -68q0 -72 -78 -150t-146 -78z" />
    <glyph glyph-name="bnDDHxA.half" horiz-adv-x="575" 
d="M185 -17v67q0 10 2.5 13t12.5 3h64q11 0 13.5 -3t2.5 -13v-67q0 -10 -3 -12.5t-13 -2.5h-64q-9 0 -12 3t-3 12zM77 573h-87v63h595v-63h-435v-269q0 -47 15 -71t50 -24q33 0 87.5 28t92.5 68q43 45 43 76q0 46 -114 46h-65l-6 54q83 8 118 8q66 0 102 -29t36 -79
q0 -40 -30 -82q-56 -78 -132.5 -121.5t-135.5 -43.5q-56 0 -95 37.5t-39 121.5v280zM-813 39z" />
    <glyph glyph-name="bnNNA.nukt.half" 
d="M505 573v-573h-73v460q-14 8 -38 20t-82 32t-99 20q-12 0 -23 -5t-20.5 -13.5t-18 -19t-14.5 -22t-9 -22.5t-3 -21q0 -24 23.5 -60t47.5 -60l24 -24l-36 -40q-53 31 -91 73q-13 14 -23 30.5t-16.5 37t-6.5 40.5q0 36 23 80t47 65q8 6 15 11t13.5 9t13.5 6.5t14 4.5
t14.5 3t14.5 1.5t16 0.5q32 0 63 -8q35 -9 72.5 -23.5t58.5 -25.5l20 -10v96l22 83h51v-83h81v-63h-81zM242 3v67q0 10 2.5 13t12.5 3h64q11 0 13.5 -3t2.5 -13v-67q0 -10 -3 -12.5t-13 -2.5h-64q-9 0 -12 3t-3 12zM473 -20q10 -5 46 -31q122 -86 195 -150l-28 -37l-249 155
z" />
    <glyph glyph-name="bnTA.nukt.half" 
d="M769 636v-63h-803v63h803zM469 57q-44 -20 -84 -20q-52 0 -97 24t-100 80q-34 35 -73.5 90.5t-61.5 92t-22 37.5l37 27l170 -195q71 -81 145 -81q33 0 61 13q50 23 95.5 73t59.5 88q15 41 15 74q0 44 -31.5 64t-99.5 20h-204l-8 52q158 20 229 20q97 0 140.5 -43
t43.5 -115q0 -41 -16 -84q-27 -73 -79.5 -129.5t-119.5 -87.5zM306 -91v67q0 10 2.5 13t12.5 3h64q11 0 13.5 -3t2.5 -13v-67q0 -10 -3 -12.5t-13 -2.5h-64q-9 0 -12 3t-3 12zM547 -13q10 -5 46 -31q122 -86 195 -150l-28 -37l-249 155z" />
    <glyph glyph-name="bnTHA.nukt.half" 
d="M244 529h-149l-8 57l85 14q41 5 73 5q59 0 95.5 -9.5t55.5 -31.5t25 -49.5t6 -73.5q0 -80 -156 -146q-40 -17 -73 -26l324 -187v629h46l19 -75h82v-63h-74v-573h-73l-405 231v87l82 25q155 54 156 111q0 33 -7 47t-30 21t-74 7zM172 1v67q0 10 2.5 13t12.5 3h64
q11 0 13.5 -3t2.5 -13v-67q0 -10 -3 -12.5t-13 -2.5h-64q-9 0 -12 3t-3 12zM519 -16q10 -5 46 -31q122 -86 195 -150l-28 -37l-249 155z" />
    <glyph glyph-name="bnDA.nukt.half" 
d="M65 265v308h-76v63h600v-63h-450v-263l319 150l46 -33l-60 -462h-75l52 392l-311 -149zM182 -83v67q0 10 2.5 13t12.5 3h64q11 0 13.5 -3t2.5 -13v-67q0 -10 -3 -12.5t-13 -2.5h-64q-9 0 -12 3t-3 12zM385 -51q10 -5 46 -31q122 -86 195 -150l-28 -37l-249 155z" />
    <glyph glyph-name="bnDHA.nukt.half" 
d="M447 94v360l-303 -140zM279 455l168 75v106l-4 66h44l23 -66h77v-63h-67v-573h-73l-378 281v79l136 62q-5 1 -13.5 4.5t-29.5 14.5t-37.5 24t-30 33.5t-13.5 41.5q0 39 26.5 80t62.5 41q24 0 53 -6t46 -12l17 -6l-10 -42q-52 10 -83 10q-21 0 -35 -19.5t-14 -43.5
q0 -20 34 -41.5t68 -33.5zM140 15v67q0 10 2.5 13t12.5 3h64q11 0 13.5 -3t2.5 -13v-67q0 -10 -3 -12.5t-13 -2.5h-64q-9 0 -12 3t-3 12zM461 -21q10 -5 46 -31q122 -86 195 -150l-28 -37l-249 155z" />
    <glyph glyph-name="bnNA.nukt.half" 
d="M538 288q-7 3 -20 8t-48.5 17t-66.5 21.5t-65.5 17t-54.5 7.5q-7 0 -13 -1t-11.5 -3t-10.5 -5.5t-9 -7t-7.5 -8t-6.5 -9.5t-5.5 -10.5t-4 -11t-2 -11.5t-0.5 -11t0.5 -9t1.5 -8.5t2.5 -8t3.5 -7.5q12 -20 34.5 -46t39.5 -41l16 -16l-35 -45q-70 52 -91 73q-46 47 -46 116
q0 65 44 104q24 22 50.5 30.5t63.5 8.5q34 0 94 -19t104.5 -38t42.5 -19v217h-472v63h614v-63h-69v-573h-73v288zM288 -83v67q0 10 2.5 13t12.5 3h64q11 0 13.5 -3t2.5 -13v-67q0 -10 -3 -12.5t-13 -2.5h-64q-9 0 -12 3t-3 12zM527 -15q10 -5 46 -31q122 -86 195 -150
l-28 -37l-249 155z" />
    <glyph glyph-name="bnPA.nukt.half" 
d="M496 464q-30 29 -51 46q-47 38 -82 38q-24 0 -65 -25q-7 -4 -18.5 -12.5t-23 -18t-22.5 -18t-17 -14.5l-7 -5l120 -143zM642 0h-73v399l-22 21l-203 -187l-45 7l-145 177l-44 -30l-36 47q112 101 190 152q54 35 96 35q43 0 88 -31q23 -16 53.5 -42t48.5 -44l19 -18v150
l-7 66h42l26 -66h95v-63h-83v-573zM217 5v67q0 10 2.5 13t12.5 3h64q11 0 13.5 -3t2.5 -13v-67q0 -10 -3 -12.5t-13 -2.5h-64q-9 0 -12 3t-3 12zM590 -19q10 -5 46 -31q122 -86 195 -150l-28 -37l-249 155z" />
    <glyph glyph-name="bnPHA.nukt.half" 
d="M109 573q101 -44 171 -86q22 -13 35.5 -23.5t26 -29t12.5 -39.5q0 -45 -34 -78.5t-129 -82.5l272 -149v408h168q156 0 156 -123q0 -30 -21 -72q-10 -20 -31 -46t-37 -42l-17 -16l-51 34q42 62 62 93q19 29 19 54q0 46 -77 46h-98v-421h-73l-367 197v75q7 3 19 8.5
t42.5 20.5t54 28.5t42.5 30.5t19 29q0 14 -53.5 51.5t-107.5 67.5l-54 30l16 35h-88v63h869v-63h-746zM159 -15v67q0 10 2.5 13t12.5 3h64q11 0 13.5 -3t2.5 -13v-67q0 -10 -3 -12.5t-13 -2.5h-64q-9 0 -12 3t-3 12zM515 -16q10 -5 46 -31q122 -86 195 -150l-28 -37
l-249 155z" />
    <glyph glyph-name="bnRA.half" 
d="M520 573v-573h-73l-378 273v89l378 170v41h-461v63h609v-63h-75zM447 94v360l-303 -140zM130 15v67q0 10 2.5 13t12.5 3h64q11 0 13.5 -3t2.5 -13v-67q0 -10 -3 -12.5t-13 -2.5h-64q-9 0 -12 3t-3 12zM479 -14q10 -5 46 -31q122 -86 195 -150l-28 -37l-249 155z" />
    <glyph glyph-name="bnBHA.nukt.half" 
d="M306 -97v67q0 10 2.5 13t12.5 3h64q11 0 13.5 -3t2.5 -13v-67q0 -10 -3 -12.5t-13 -2.5h-64q-9 0 -12 3t-3 12zM432 264q-83 0 -123 26t-40 93q0 91 27 117q17 16 69 16q15 0 36 -2.5t34 -4.5l13 -3l-6 -54h-74q-25 0 -25 -76q0 -24 19.5 -30.5t63.5 -6.5q22 0 46 16.5
t42 35.5t39.5 35.5t39.5 16.5q43 0 97 -64t54 -102q0 -49 -65.5 -112.5t-143.5 -103.5q-57 -29 -114 -29q-100 0 -208 108q-36 36 -74 87.5t-58 84.5l-20 33l42 31l150 -166q88 -99 164 -99q47 0 92 24q53 28 102.5 70t49.5 72q0 16 -25.5 48t-44.5 32q-8 0 -23.5 -14.5
t-32 -32t-44.5 -32t-59 -14.5zM834 573h-845v63h845v-63zM559 -11q10 -5 46 -31q122 -86 195 -150l-28 -37l-249 155z" />
    <glyph glyph-name="bnMA.nukt.half" 
d="M212 -103v67q0 10 2.5 13t12.5 3h64q11 0 13.5 -3t2.5 -13v-67q0 -10 -3 -12.5t-13 -2.5h-64q-9 0 -12 3t-3 12zM226 446q-25 18 -63.5 41t-63.5 37t-26 14l16 35h-101v63h614v-63h-79v-573h-73v220q-208 76 -233 76q-23 0 -42 -30q-17 -29 -17 -49q0 -13 9 -21l77 -68
l-29 -39q-59 29 -93 57q-37 30 -37 65q0 46 25 89q40 70 92 70l39 -3q6 42 6 44q0 20 -21 35zM319 417l-9 -69l140 -61v286h-325q50 -19 120 -61q74 -44 74 -95zM491 -25q10 -5 46 -31q122 -86 195 -150l-28 -37l-249 155z" />
    <glyph glyph-name="bnYxA.half" 
d="M603 573v-573h-73l-374 197v75q178 74 178 117q0 7 -12 18.5t-31 25t-41.5 28.5t-45.5 28.5t-42 24.5t-31 17l-12 7l16 35h-103v63h641v-63h-70zM530 573h-360q101 -44 171 -86q22 -13 35.5 -23.5t26 -29t12.5 -39.5q0 -44 -34.5 -77.5t-130.5 -83.5l280 -149v488z
M194 -17v67q0 10 2.5 13t12.5 3h64q11 0 13.5 -3t2.5 -13v-67q0 -10 -3 -12.5t-13 -2.5h-64q-9 0 -12 3t-3 12zM551 -17q10 -5 46 -31q122 -86 195 -150l-28 -37l-249 155z" />
    <glyph glyph-name="bnLA.nukt.half" 
d="M588 425v148h-602v63h755v-63h-80v-573h-73v288q0 27 -3.5 44.5t-19.5 33t-45 15.5q-55 0 -81.5 -18.5t-34.5 -74.5l-11 -82h-56l-3 48q-3 84 -28.5 105.5t-109.5 21.5q-74 0 -74 -79q0 -48 38 -185l-46 -17q-8 11 -19 31.5t-29.5 78.5t-18.5 112q0 41 13 69t35.5 42
t45 19.5t48.5 5.5q76 0 122.5 -14t59.5 -59q19 41 53 54.5t91 13.5q25 0 43.5 -7t23.5 -14zM291 3v67q0 10 2.5 13t12.5 3h64q11 0 13.5 -3t2.5 -13v-67q0 -10 -3 -12.5t-13 -2.5h-64q-9 0 -12 3t-3 12zM627 -15q10 -5 46 -31q122 -86 195 -150l-28 -37l-249 155z" />
    <glyph glyph-name="bnSHA.nukt.half" 
d="M477 598v38l22 81h51v-81h100v-63h-100v-573h-73v504q0 21 -43.5 38.5t-81.5 17.5q-77 0 -77 -82q0 -47 7 -65.5t33 -33.5q16 -9 38.5 -20t36.5 -17l15 -6l-18 -54q-40 6 -77 21q-18 7 -35 16.5t-25 14.5l-8 6q-20 -19 -66 -37q-18 -7 -43 -13t-41 -8l-15 -3l-15 58
q45 16 87 36q32 15 40.5 35t8.5 75q0 38 -12 56t-40 21q-119 13 -157 13v63h171q32 0 52.5 -7.5t37.5 -29.5q19 22 37 28.5t48 6.5q89 0 142 -36zM276 -19v67q0 10 2.5 13t12.5 3h64q11 0 13.5 -3t2.5 -13v-67q0 -10 -3 -12.5t-13 -2.5h-64q-9 0 -12 3t-3 12zM523 -15
q10 -5 46 -31q122 -86 195 -150l-28 -37l-249 155z" />
    <glyph glyph-name="bnSSA.nukt.half" 
d="M553 573v-573h-73l-374 197v75q7 3 19 8.5t43 20.5t54.5 28.5t42.5 30.5t19 29q0 14 -53.5 51.5t-107.5 67.5l-54 30l16 35h-93v63h645v-63h-84zM291 487q113 -58 189 -58v144h-360q101 -50 171 -86zM363 374q0 -3 -1 -7.5t-10 -19.5t-24.5 -30.5t-50 -38.5t-81.5 -45
l284 -148v268q-23 0 -52.5 5t-46.5 11zM154 -7v67q0 10 2.5 13t12.5 3h64q11 0 13.5 -3t2.5 -13v-67q0 -10 -3 -12.5t-13 -2.5h-64q-9 0 -12 3t-3 12zM503 -17q10 -5 46 -31q122 -86 195 -150l-28 -37l-249 155z" />
    <glyph glyph-name="bnSA.nukt.half" 
d="M490 263q-91 51 -122 51q-9 0 -14.5 -1.5t-15 -11t-16.5 -27.5q-32 -80 -61 -120.5t-74 -40.5q-23 0 -58.5 11.5t-58.5 22.5l-24 11l16 56q92 -26 108 -26q39 0 93 135q11 27 11 50q0 34 -80 91l-101 71l19 38h-121v63h640v-63h-68v-573h-73v263zM490 341v232h-352
q49 -25 62 -32q104 -59 128 -92q8 -11 13.5 -24t6.5 -21l2 -7q13 0 32 -5.5t37 -13.5t32.5 -16t26.5 -14zM266 -29v67q0 10 2.5 13t12.5 3h64q11 0 13.5 -3t2.5 -13v-67q0 -10 -3 -12.5t-13 -2.5h-64q-9 0 -12 3t-3 12zM591 -15q10 -5 46 -31q122 -86 195 -150l-28 -37
l-249 155z" />
    <glyph glyph-name="bnHA.nukt.half" horiz-adv-x="565" 
d="M314 443h-210l-8 53q124 21 219 21q50 0 85 -11t53.5 -27t28 -45.5t11.5 -53t2 -63.5q0 -24 -16.5 -46t-42.5 -38.5t-57.5 -30.5t-63 -23t-57.5 -15.5t-42.5 -9.5l-16.5 -3q93 -53 293 -169l-25 -47q-27 11 -72 30.5t-150 71t-171 93.5l8 78q4 1 11.5 2t31 4.5t46 8
t53 11.5t57 14.5t53 18t45.5 21.5t31 25t12 29q0 67 -23.5 84t-84.5 17zM576 636v-63h-590v63h590zM126 -83v67q0 10 2.5 13t12.5 3h64q11 0 13.5 -3t2.5 -13v-67q0 -10 -3 -12.5t-13 -2.5h-64q-9 0 -12 3t-3 12zM303 -45q10 -5 46 -31q122 -86 195 -150l-28 -37l-249 155z
" />
    <glyph glyph-name="bnK_RA" horiz-adv-x="875" 
d="M535 160v203q0 81 -81 81q-14 0 -33 -5.5t-39 -14t-40.5 -18.5t-38.5 -20.5t-32.5 -19t-22.5 -14.5l-8 -5l-32 41q147 129 246 129q25 0 47 -5t37 -13.5t27 -18.5t18.5 -20.5t11.5 -19t6 -13.5l2 -5l141 -40q84 -24 84 -107q0 -37 -28 -75q-10 -14 -22.5 -30.5
t-18.5 -24.5l-7 -9l-50 26l40 66q14 24 14 40q0 22 -13.5 32.5t-45.5 19.5l-89 26v-346h-73v84q-14 -9 -37 -23t-80.5 -37.5t-99.5 -23.5q-34 0 -57.5 2.5t-65 24t-69.5 62.5q-37 54 -70 165l42 22l82 -131q45 -72 141 -72q25 0 56.5 9t58.5 21.5t49.5 25.5t36 22zM888 573
h-902v63h902v-63z" />
    <glyph glyph-name="bnKH_RA" horiz-adv-x="660" 
d="M613 -166h-76v75q-13 -9 -35.5 -22.5t-79.5 -36.5t-99 -23q-34 0 -57.5 2.5t-65 24t-69.5 62.5q-37 54 -70 165l42 22l82 -131q45 -72 141 -72q40 0 93.5 21.5t86.5 43.5l34 22v13l-409 233v83l259 111q-14 33 -23 56q-5 12 -14 12q-6 0 -36 -13.5t-64.5 -26.5t-52.5 -13
q-22 0 -35 6.5t-30 23.5q-13 14 -23 36.5t-10 41.5t6.5 35.5t19.5 28.5q15 14 39.5 20t41.5 4l17 -1l12 -40q-18 -7 -46 -20q-21 -10 -21 -28q0 -7 9 -24q4 -7 5.5 -10t8 -6t16.5 -3q16 0 82.5 33.5t86.5 33.5q31 0 41 -27l52 -160l-262 -115l330 -186v551l-5 66h44l23 -66
h74v-63h-63v-739z" />
    <glyph glyph-name="bnG_RA" horiz-adv-x="660" 
d="M593 -18h-72v84q-13 -9 -35 -23t-79.5 -37.5t-102.5 -23.5q-34 0 -57.5 2.5t-65 24t-69.5 62.5q-37 54 -70 165l42 22l82 -131q45 -72 141 -72q25 0 56.5 9t58.5 21.5t49.5 25.5t36 22l13.5 9v360l-137 29q-3 1 -8.5 2t-10.5 2t-12 3t-13 3t-13 2.5t-13 2.5t-12.5 1.5
t-12 1t-9.5 0.5q-16 0 -37 -30.5t-21 -51.5q0 -12 14 -19.5t47.5 -18t51.5 -17.5q28 -11 39 -21.5t18 -29.5q2 -5 5 -16t6 -25t5 -29.5t2 -26.5q0 -19 -41.5 -51.5t-82.5 -54.5l-42 -23l-32 51l7.5 5t17.5 12t24.5 17.5t26 19.5t25 20t17.5 17.5t7 12.5q0 19 -6 33.5
t-21 20.5q-12 5 -33.5 12.5t-38 13t-36 14.5t-32.5 17.5t-21.5 21t-8.5 25.5q0 20 8 45t19.5 46t23 38t19.5 23q26 22 69 22q42 0 106.5 -17t91.5 -27t44 -17v75l-8 66h41l26 -66h91v-63h-78v-591z" />
    <glyph glyph-name="bnGH_RA" horiz-adv-x="650" 
d="M221 573q-49 -76 -49 -101q0 -17 8 -26q5 -5 16.5 -8.5t29 -5.5t36.5 -2.5t44 -0.5h38.5h40.5h16l21 -87l-206 -117l301 -143v491h-296zM590 -171h-75v76q-13 -9 -34.5 -23t-78.5 -37t-102 -23q-34 0 -57.5 2.5t-65 24t-69.5 62.5q-37 54 -70 165l42 22l82 -131
q46 -73 141 -73q19 0 40.5 5t41.5 12.5t40 17t36.5 19t29 17t19.5 12.5l7 5v18l-384 185v75l198 105h-50q-137 0 -169 43q-13 18 -13 43q0 15 6 32.5t14.5 33t16.5 28.5t14 20l6 8h-168v63h677v-63h-75v-744z" />
    <glyph glyph-name="bnNG_RA" horiz-adv-x="690" 
d="M27 403l47 18q104 -180 172 -255q34 -38 59 -56t51 -18q14 0 33 5t36 15q141 80 141 147q0 33 -65 33h-199v148q-74 21 -128 49l-36 19l23 46l141 -52q0 72 26 102q17 19 38 27t64 8q31 0 48.5 -1t38 -6.5t31 -16.5t17.5 -31t7 -50q0 -53 -19 -77t-73 -24h-113v-82
q113 11 155 11q26 0 48 -7t36.5 -19.5t23 -30t8.5 -36.5q0 -17 -5 -37t-10 -31l-5 -12v-328h-73v76q-13 -9 -34.5 -23t-78.5 -37t-102 -23q-34 0 -57.5 2.5t-65 24t-69.5 62.5q-37 54 -70 165l42 22l82 -131q45 -72 141 -72q25 0 56.5 9t58.5 22t49.5 25.5t36.5 21.5t13 9
v94q-45 -36 -83 -58q-20 -12 -33.5 -18t-33 -11t-40.5 -5q-35 0 -71 20t-86 70q-44 44 -87.5 118.5t-64.5 126.5zM367 493h96q47 0 47 34q0 32 -10.5 39t-62.5 7q-48 0 -59 -11.5t-11 -68.5z" />
    <glyph glyph-name="bnNG1_RA" horiz-adv-x="650" 
d="M610 321v-349h-73v84q-14 -9 -37.5 -23t-83.5 -37.5t-105 -23.5q-34 0 -58.5 2.5t-67 24t-70.5 62.5q-37 54 -70 165l42 22l82 -131q46 -73 145 -73q25 0 57.5 9t60.5 22t52 26t38.5 22l14.5 9v69q-40 -32 -97 -56q-52 -22 -104 -22q-41 0 -84 21t-73 70
q-33 54 -56.5 110.5t-30.5 85.5l-8 29l47 19q55 -107 100 -188q41 -73 108 -73q27 0 68 16q124 48 124 100q0 14 -14.5 19.5t-47.5 6.5h-201v182q0 14 2 27t4 19l2 6h-286v63h671v-63h-126q3 -10 3 -29q0 -55 -15.5 -78t-69.5 -23h-114v-47q109 16 151 16q56 0 88 -25
t32 -66zM339 505h91q47 0 47 37q0 30 -9 35.5t-63 5.5q-47 0 -56.5 -10.5t-9.5 -67.5z" />
    <glyph glyph-name="bnC_RA" horiz-adv-x="732" 
d="M261 405v-239q0 -47 15 -70t50 -23q43 0 114 47.5t111 108.5q30 46 30 78q0 24 -13 33t-45 15zM599 160v-332h-73v84q-13 -9 -35 -23t-79.5 -37.5t-102.5 -23.5q-34 0 -57.5 2.5t-65 24t-69.5 62.5q-37 54 -70 165l42 22l82 -131q45 -72 141 -72q40 0 93.5 21.5
t86.5 43.5l34 22v112l-11 -11t-29.5 -24t-45 -30t-55.5 -24t-63 -11q-56 0 -95 37.5t-39 121.5v414h-200v63h751v-63h-478v-110q72 -8 109 -12q144 -17 172 -22q56 -10 84.5 -40.5t28.5 -76.5q0 -54 -56 -151v-1z" />
    <glyph glyph-name="bnCH_RA" horiz-adv-x="680" 
d="M381 344q20 17 20 41q0 19 -13.5 30t-25.5 14t-41 8l-135 24v-137q1 -29 16 -41.5t33 -12.5q30 0 71.5 23t74.5 51zM481 -7q-51 15 -213 81v76q11 2 29.5 7t66 19t84.5 28.5t69.5 35.5t37.5 41q6 25 6 59q0 21 -8.5 31.5t-36.5 20.5q-12 5 -24 8t-17 4l-5 1q4 -15 4 -24
q0 -49 -58 -96q-107 -87 -188 -87q-42 0 -78.5 31.5t-36.5 92.5v251h-127v63h706v-63h-506v-57q88 -12 146 -20q123 -18 183 -32q58 -14 88.5 -40.5t30.5 -78.5q0 -31 -12 -98q-4 -22 -31.5 -45t-63 -39.5t-71.5 -30t-59.5 -20.5t-24.5 -7l243 -102l-16 -47l-45 14v-151h-73
v84q-14 -9 -37.5 -23t-81.5 -37.5t-98 -23.5q-22 0 -36 1.5t-37 9t-45 27t-44 51.5q-11 17 -26.5 52.5t-25 61.5t-9.5 27l47 23l68 -108q16 -25 31.5 -41t31 -22t25 -7.5t23.5 -1.5q76 0 207 83l7 4v14z" />
    <glyph glyph-name="bnJ_RA" horiz-adv-x="875" 
d="M675 491q-38 12 -112.5 28t-129.5 26l-55 10v18zM672 18v69q42 144 68 235q20 72 -53 93l-309 78v-115q50 6 88 6q16 0 31.5 -1t33 -3t33 -6t30 -10t24.5 -14t16.5 -19.5t6.5 -24.5q0 -55 -31 -104.5t-110 -119.5q-25 -22 -58.5 -37t-68.5 -15q-80 0 -170 101
q-55 62 -94.5 122t-52.5 89l-12 30l45 25q92 -121 154 -196q26 -31 40 -46.5t39.5 -31.5t50.5 -16q39 0 89 42q99 83 99 128q0 13 -7.5 21t-23.5 11.5t-31 4.5t-39 1t-63 -2.5t-65 -4.5l-27 -2v267h-320v63h909v-63h-516v-18q211 -37 297 -64q4 -1 11 -3q28 -9 42 -14
t36 -15.5t32.5 -21t18.5 -27t8 -37.5v-8t-0.5 -8.5l-1 -9t-2 -9t-2.5 -9.5l-73 -285v-192h-73v87q-28 -10 -72.5 -24.5t-143 -38.5t-151.5 -24q-125 0 -188 92q-37 54 -70 165l42 22l82 -131q46 -74 137 -74q40 0 131 23t164 46t70 23z" />
    <glyph glyph-name="bnJH_RA" horiz-adv-x="780" 
d="M477 12v18l-378 248v89l378 165v41h-491v63h562v-365l123 -44v409l-5 66h44l23 -66h67v-63h-56v-534h-73v121l-123 38v-348h-73v84q-12 -9 -32.5 -23t-75.5 -37.5t-100 -23.5q-22 0 -35 1.5t-35 9t-43 27t-43 51.5q-11 17 -24 46.5t-20.5 49.5t-7.5 21l46 26l56 -87
q21 -33 43 -50t34.5 -19.5t31.5 -2.5q40 0 92 22.5t84 44.5zM477 119v339l-307 -138z" />
    <glyph glyph-name="bnNY_RA" horiz-adv-x="955" 
d="M666 174q76 -8 116 -8q46 0 46 42v20q0 28 -12 38.5t-41 10.5h-53v62h53q29 0 41 10.5t12 38.5v22q0 42 -44 42q-18 0 -47.5 -2.5t-50.5 -5.5l-20 -2v-268zM593 84q-14 -9 -37 -23t-80.5 -37.5t-99.5 -23.5q-34 0 -57.5 2.5t-65 24t-69.5 62.5q-37 54 -70 165l40 25
l84 -134q45 -72 141 -72q40 0 93.5 21.5t87.5 43.5l33 22v297q0 12 -3.5 24t-9.5 23t-15 20.5t-20.5 16.5t-26 11t-30.5 4q-35 0 -97 -34t-106 -68l-45 -34l-30 38q63 72 134.5 122t136.5 50q44 0 79.5 -13.5t54.5 -32.5t31.5 -38t15.5 -33l4 -13q9 2 23 5t45.5 8.5
t47.5 5.5q25 0 38 -1t31.5 -7t27.5 -17t16 -33.5t7 -55.5v-8q0 -79 -45 -86q44 -8 44 -87v-9q0 -40 -9 -65t-29 -35.5t-36.5 -13t-44.5 -2.5q-24 0 -53 5.5t-46 10.5l-17 5v-285h-73v84q-20 -9 -52 -23t-106 -37.5t-119 -23.5q-34 0 -57.5 2.5t-65 24t-69.5 62.5
q-37 54 -70 165l42 22l82 -131q45 -72 141 -72q25 0 62.5 9t73.5 22t67.5 25.5t51.5 21.5l19 9v89z" />
    <glyph glyph-name="bnTT_RA" horiz-adv-x="700" 
d="M483 636h227v-63h-449v-404q0 -49 12 -72t47 -23q45 0 109.5 39.5t103.5 99.5q30 46 30 78q0 46 -58 46h-98l-6 60q89 6 123 6q52 0 81 -30t29 -77q0 -21 -10 -51t-20 -49l-10 -19v-345h-69v84q-13 -9 -35 -23t-79.5 -37.5t-102.5 -23.5q-34 0 -57.5 2.5t-65 24
t-69.5 62.5q-37 54 -70 165l42 22l82 -131q45 -72 141 -72q40 0 93.5 21.5t87.5 43.5l33 22v103q-4 -4 -12 -10.5t-32.5 -22.5t-48 -28.5t-56 -23t-60.5 -10.5q-55 0 -91.5 37t-36.5 122v414h-201v63h426q0 96 -64 96h-305l-4 53q247 14 315 14q44 0 74 -25t42 -60.5
t12 -77.5z" />
    <glyph glyph-name="bnTTH_RA" horiz-adv-x="635" 
d="M491 93q-3 -3 -9 -9.5t-24.5 -22.5t-37.5 -28.5t-47 -22.5t-54 -10q-30 0 -64.5 22.5t-62.5 57.5t-51 73.5t-36 72.5t-13 53q114 55 150 95q34 38 34 70q0 13 -7 26t-26 39q-2 2 -3 4q-22 31 -22 60h-232v63h234q1 23 26 51q24 26 62.5 58t65.5 51l26 20l32 -37
q-97 -90 -128 -121q-5 -5 -9 -10.5t-5 -8.5l-2 -3h355v-63h-353q0 -16 21.5 -41.5t53.5 -54t69 -62.5t69 -65.5t53.5 -65t21.5 -59.5q0 -7 -4.5 -22.5t-9.5 -26.5l-4 -12v-322h-69v84q-15 -9 -39 -23t-82 -37.5t-96 -23.5q-36 0 -82 21t-83 75q-11 17 -24.5 46.5t-21 49.5
t-7.5 21l48 27l56 -88q49 -79 117 -79q28 0 81.5 21.5t94 43.5t38.5 22v91zM505 222q0 19 -42.5 66t-84.5 84l-43 37q0 -29 -36 -71q-19 -22 -50.5 -46t-52.5 -36l-22 -13q3 -7 9 -18.5t24 -40.5t35 -51t40.5 -40.5t43.5 -18.5q54 0 116.5 58t62.5 90z" />
    <glyph glyph-name="bnDDH_RA" horiz-adv-x="690" 
d="M190 573h-203v63h715v-63h-439v-404q0 -49 12 -72t47 -23q45 0 109.5 39.5t103.5 99.5q30 46 30 78q0 46 -58 46h-98l-6 60q89 6 123 6q52 0 81 -30t29 -77q0 -21 -10 -51t-20 -49l-10 -19v-343h-69v84q-13 -9 -35 -23t-79.5 -37.5t-102.5 -23.5q-34 0 -57.5 2.5t-65 24
t-69.5 62.5q-37 54 -70 165l42 22l82 -131q45 -72 141 -72q40 0 93.5 21.5t87.5 43.5l33 22v101q-4 -4 -12 -10.5t-32.5 -22.5t-48 -28.5t-56 -23t-60.5 -10.5q-55 0 -91.5 37t-36.5 122v414z" />
    <glyph glyph-name="bnNN_RA" horiz-adv-x="655" 
d="M584 -19h-73v84q-12 -9 -32.5 -23t-75 -37.5t-99.5 -23.5q-34 0 -57.5 2.5t-65 24t-69.5 62.5q-37 54 -70 165l42 22l82 -131q45 -72 141 -72q40 0 91 21.5t82 43.5l31 22v319q-14 8 -38 20t-82 32t-99 20q-33 0 -60.5 -35.5t-27.5 -67.5q0 -24 23.5 -60t47.5 -60l24 -24
l-36 -40q-53 31 -91 73q-20 22 -33 50.5t-13 57.5q0 36 23 80t47 65q25 21 47.5 28.5t53.5 7.5q32 0 63 -8q35 -9 72.5 -23.5t57.5 -25.5l21 -10v96l22 94h47v-94h85v-63h-81v-592z" />
    <glyph glyph-name="bnT_RA" horiz-adv-x="675" 
d="M608 372v-372h-73v84q-14 -9 -37 -23t-80.5 -37.5t-99.5 -23.5q-34 0 -57.5 2.5t-65 24t-69.5 62.5q-37 54 -70 165l42 22l82 -131q45 -72 141 -72q25 0 56.5 9t58.5 21.5t49.5 25.5t36 22l13.5 9v206q0 80 -81 80q-19 0 -48 -10t-57 -25t-53 -29.5t-41 -24.5l-15 -10
l-32 41q149 131 246 131q38 0 66.5 -10.5t45 -25.5t26.5 -36t13 -38.5t3 -36.5zM688 573h-702v63h702v-63z" />
    <glyph glyph-name="bnTH_RA" horiz-adv-x="672" 
d="M536 1v19l-405 211v87q10 2 26 6.5t57 18.5t72.5 29t57 37.5t25.5 44.5q0 33 -6.5 47t-30 21t-74.5 7h-149l-8 57q84 19 158 19q59 0 95.5 -9.5t55.5 -32t25 -50t6 -72.5q0 -22 -12.5 -43.5t-32.5 -38t-44.5 -31.5t-49 -25.5t-44.5 -18t-33 -11.5l-13 -4l324 -167v609h46
l19 -75h82v-63h-74v-732h-73v84q-13 -9 -35 -23t-79.5 -37.5t-102.5 -23.5q-34 0 -57.5 2.5t-65 24t-69.5 62.5q-37 54 -70 165l42 22l82 -131q45 -72 141 -72q40 0 94 21.5t87 43.5z" />
    <glyph glyph-name="bnD_RA" horiz-adv-x="680" 
d="M176 264v309h-186v63h701v-63h-441v-263l319 150l46 -33l-37 -286v-197h-72v84q-11 -9 -29.5 -23t-70.5 -37.5t-97 -23.5q-23 0 -38 1.5t-40 9t-48.5 27.5t-45.5 51q-37 54 -70 165l42 22l82 -131q16 -25 33 -41.5t34.5 -22.5t28 -7.5t25.5 -1.5q40 0 88.5 22t77.5 44
l28 22v58l26 195l-311 -149z" />
    <glyph glyph-name="bnDH_RA" horiz-adv-x="635" 
d="M513 115v341l-307 -141zM513 17v13l-378 251v79l136 60q-3 0 -7.5 2t-17.5 8t-25 13t-26.5 17.5t-25 22t-18 26.5t-7.5 31q0 39 28 80t64 41q24 0 53 -6t46 -12l17 -6l-10 -42q-52 10 -83 10q-21 0 -35 -19.5t-14 -43.5q0 -18 34 -40t68 -34l33 -13l168 75v106l-4 66h44
l23 -66h77v-63h-67v-716h-73v84q-13 -9 -35 -23t-79.5 -37.5t-102.5 -23.5q-34 0 -57.5 2.5t-65 24t-69.5 62.5q-37 54 -70 165l42 22l82 -131q45 -72 141 -72q40 0 93.5 21.5t87.5 43.5z" />
    <glyph glyph-name="bnN_RA" horiz-adv-x="650" 
d="M596 -68h-73v84q-2 -2 -6.5 -5t-18.5 -11.5t-28.5 -16.5t-35.5 -18t-41 -16.5t-43 -11.5t-44 -5q-15 0 -25 0.5t-29.5 2.5t-35 8t-34 15.5t-36 25.5t-32.5 37q-36 54 -70 165l42 22l82 -131q46 -73 141 -73q39 0 92.5 22t87.5 44l34 22v253q-4 1 -10.5 4t-27 10t-40.5 14
t-46.5 15t-49 14t-45 10t-36.5 4q-7 0 -13 -1t-11.5 -3t-10.5 -5.5t-9 -7t-7.5 -8t-6.5 -9.5t-5.5 -10.5t-4 -11t-2 -11.5t-0.5 -11t0.5 -9t1.5 -8.5t2.5 -8t3.5 -7.5q12 -20 35 -46t38.5 -41.5t16.5 -15.5l-35 -45q-70 52 -91 73q-46 47 -46 116q0 65 44 104
q24 22 50.5 30.5t63.5 8.5q34 0 94 -19t104.5 -38t42.5 -19v160h-532v63h674v-63h-69v-641z" />
    <glyph glyph-name="bnP_RA" horiz-adv-x="660" 
d="M471 464q-30 29 -51 46q-47 38 -82 38q-24 0 -65 -25q-7 -4 -18.5 -12.5t-23 -18t-22.5 -18t-17 -14.5l-7 -5l120 -143zM617 0h-73v85q-18 -9 -46.5 -23t-97 -37.5t-113.5 -23.5q-19 0 -31 0.5t-36.5 5t-43 13.5t-41 27t-40.5 43q-36 54 -70 165l42 22l82 -131
q45 -72 141 -72q19 0 43 5t47.5 13t47.5 17.5t44.5 19t37 17.5t25.5 13l9 5v236l-22 20l-203 -187l-45 7l-145 177l-44 -30l-36 47q111 102 190 152q55 35 96 35q43 0 88 -31q23 -16 53.5 -41.5t49.5 -42.5l18 -18v148l-7 66h41l26 -66h67v-63h-54v-573z" />
    <glyph glyph-name="bnPH_RA" horiz-adv-x="900" 
d="M606 -153h-73v84q-13 -9 -35 -23t-79.5 -37.5t-102.5 -23.5q-34 0 -57.5 2.5t-65 24t-69.5 62.5q-37 54 -70 165l42 22l82 -131q46 -73 141 -73q40 0 93.5 22t87.5 44l33 22v13l-368 177v75q7 3 19 8.5t43 20.5t54.5 28.5t42.5 30.5t19 29q0 14 -54 51.5t-107 67.5
l-54 30l16 35h-158v63h929v-63h-736q101 -44 171 -86q22 -13 35.5 -23.5t26 -29t12.5 -39.5q0 -45 -34 -78.5t-129 -82.5l272 -129v388h168q156 0 156 -123q0 -30 -21 -72q-10 -20 -31 -46t-37 -42l-17 -16l-51 34q42 62 62 93q19 29 19 54q0 26 -20.5 40t-56.5 14h-98v-582
z" />
    <glyph glyph-name="bnB_RA" horiz-adv-x="646" 
d="M511 115v339l-303 -140zM585 -143h-74v79q-16 -9 -43.5 -22t-93 -35t-110.5 -22q-23 0 -38 1.5t-40 9t-48.5 27.5t-45.5 51q-11 17 -26 52t-24.5 61t-9.5 27l46 24l68 -108q46 -73 121 -73q84 0 237 84l7 4v13l-378 243v89l378 170v41h-525v63h673v-63h-74v-716z" />
    <glyph glyph-name="bnBH_RA" horiz-adv-x="745" 
d="M753 573h-764v63h764v-63zM678 1h-75v84q-19 -9 -49.5 -23t-102.5 -37.5t-117 -23.5q-34 0 -57.5 2.5t-65 24t-69.5 62.5q-37 54 -70 165l42 22l82 -131q44 -71 141 -71q40 0 112 24.5t104 39.5t52 25v113q0 16 -25.5 48t-44.5 32q-8 0 -23.5 -14.5t-32 -32t-44.5 -32
t-59 -14.5q-83 0 -123 26t-40 93q0 90 27 117q16 16 69 16q15 0 36 -2.5t34 -4.5l13 -3l-6 -54h-74q-25 0 -25 -76q0 -24 19.5 -30.5t63.5 -6.5q22 0 46 16.5t42 35.5t39.5 35.5t39.5 16.5q42 0 91.5 -58.5t49.5 -96.5v-287z" />
    <glyph glyph-name="bnM_RA" horiz-adv-x="635" 
d="M343 459q98 -50 118 -50q16 0 33.5 26.5t17.5 44.5q0 13 -8 36t-16 40l-9 17h-185q7 -4 17 -10t27 -23t17 -30q0 -11 -3 -23.5t-6 -20.5zM585 478v-447h-75v84q-12 -10 -32 -24t-74 -37.5t-99 -23.5q-34 0 -57.5 2.5t-65 24t-69.5 62.5q-37 54 -70 165l42 22l82 -131
q45 -72 141 -72q40 0 90.5 22t81.5 44l30 22v161q-18 -16 -32 -16q-20 0 -120 40.5t-112 40.5q-14 0 -30 -15t-16 -40q0 -11 12 -26.5t24 -25.5l13 -9l-25 -39q-44 20 -61 33q-36 27 -36 62q0 51 35.5 92t69.5 41q8 0 19 -2.5t18 -5.5l7 -2q0 1 6 24q0 6 -7 15t-17 18.5
t-20 17.5t-17 13l-7 5h-224v63h657v-63h-105q43 -65 43 -95z" />
    <glyph glyph-name="bnY_RA" horiz-adv-x="675" 
d="M540 573h-360q101 -44 171 -86q22 -13 35.5 -23.5t26 -29t12.5 -39.5q0 -44 -34.5 -77.5t-130.5 -83.5l280 -149v488zM540 -10v10l-374 197v75q7 3 19 8.5t43 20.5t54.5 28.5t42.5 30.5t19 29q0 7 -12 18.5t-31 25t-41.5 28.5t-45.5 28.5t-42 24.5t-31 17l-12 7l16 35
h-153v63h691v-63h-70v-745h-75v84q-13 -9 -35 -23t-79.5 -37.5t-102.5 -23.5q-34 0 -57.5 2.5t-65 24t-69.5 62.5q-37 54 -70 165l42 22l82 -131q46 -73 141 -73q39 0 93 22.5t89 45.5z" />
    <glyph glyph-name="bnR_RA" horiz-adv-x="665" 
d="M521 115v339l-303 -140zM595 -143h-74v79q-16 -9 -43.5 -22t-93 -35t-110.5 -22q-23 0 -38 1.5t-40 9t-48.5 27.5t-45.5 51q-11 17 -26 52t-24.5 61t-9.5 27l46 24l68 -108q46 -73 121 -73q84 0 237 84l7 4v13l-378 243v89l378 170v41h-525v63h676v-63h-77v-716zM246 19
v57q0 21 20 21h54q21 0 21 -21v-57q0 -19 -21 -19h-54q-9 0 -14.5 5t-5.5 14z" />
    <glyph glyph-name="bnL_RA" horiz-adv-x="815" 
d="M682 68v248q0 27 -3.5 44.5t-19.5 33t-45 15.5q-56 0 -82 -18.5t-34 -74.5l-11 -82h-56l-3 48q-3 83 -30.5 105t-111.5 22q-31 0 -50.5 -22t-19.5 -57q0 -48 38 -185l-46 -17q-8 11 -19 31.5t-29.5 78.5t-18.5 112q0 41 13 69t35.5 42t45 19.5t48.5 5.5q76 0 122.5 -14
t59.5 -59q19 41 53 54.5t91 13.5q25 0 43.5 -7t23.5 -14l6 -7v120h-692v63h836v-63h-71v-671h-73v84q-267 -84 -367 -84q-34 0 -57.5 2.5t-65 24t-69.5 62.5q-37 54 -70 165l42 22l84 -131q43 -67 139 -67q85 0 361 87z" />
    <glyph glyph-name="bnSH_RA" horiz-adv-x="665" 
d="M538 164v346q0 21 -34.5 36.5t-70.5 15.5q-77 0 -77 -84q0 -47 7 -65.5t33 -33.5q16 -9 38.5 -20t37.5 -17l14 -6l-18 -54q-40 6 -77 21q-18 7 -35 16.5t-25 14.5l-8 6q-20 -19 -66 -37q-18 -7 -43 -13t-40 -8l-16 -3l-15 55q45 16 87 36q32 15 40.5 36.5t8.5 76.5
q0 38 -12 56t-40 21q-17 2 -76.5 5t-109.5 5.5t-51 2.5v63h251q32 0 52.5 -7.5t37.5 -29.5q19 22 37 28.5t48 6.5q67 0 122 -26v28l22 81h51v-81h65v-63h-65v-573h-73v85q-16 -9 -43 -23t-94.5 -37.5t-117.5 -23.5q-34 0 -57.5 2.5t-65 24t-69.5 62.5q-37 54 -70 165l42 22
l82 -131q45 -72 139 -72q41 0 104.5 22.5t106.5 45.5z" />
    <glyph glyph-name="bnSS_RA" horiz-adv-x="675" 
d="M542 -21v21l-374 197v75q7 3 19 8.5t43 20.5t54.5 28.5t42.5 30.5t19 29q0 7 -12 18.5t-31 25t-41.5 28.5t-45.5 28.5t-42 24.5t-31 17l-12 7l16 35h-155v63h697v-63h-74v-754h-75v84q-13 -9 -35 -23t-79.5 -37.5t-102.5 -23.5q-34 0 -57.5 2.5t-65 24t-69.5 62.5
q-37 54 -70 165l42 22l82 -131q45 -72 141 -72q25 0 57 9t59 22t50 25.5t37 21.5t13 9zM353 487q113 -58 189 -58v144h-360q101 -50 171 -86zM425 374q0 -3 -1 -7.5t-10 -19.5t-24.5 -30.5t-50 -38.5t-81.5 -45l284 -148v268q-23 0 -52.5 5t-46.5 11z" />
    <glyph glyph-name="bnS_RA" horiz-adv-x="710" 
d="M325 482q175 -82 201 -82q14 0 33 23t19 40q0 18 -6 45.5t-12 45.5l-6 19h-189zM550 159v163q-29 0 -92.5 25t-112.5 51l-49 25q-5 -11 -14.5 -28t-36.5 -45t-51 -28q-28 0 -64 13t-58 27l-23 13l19 48q69 -26 114 -26q17 0 43.5 44t44.5 88l18 44h-298v63h728v-63h-101
q36 -68 36 -112q0 -12 -7.5 -32t-15.5 -34l-7 -14v-381h-73v83q-13 -9 -34.5 -23t-78.5 -37t-102 -23q-34 0 -57.5 2.5t-65 24t-69.5 62.5q-31 45 -55 126l49 26l60 -96q45 -72 141 -72q40 0 93 21.5t86 43.5z" />
    <glyph glyph-name="bnH_RA" horiz-adv-x="690" 
d="M509 6q-209 80 -297 136l8 78q7 1 19 2t47.5 6t67.5 11t71.5 16.5t67.5 22.5t47.5 28.5t19.5 35.5q0 36 -6.5 57t-22.5 30.5t-32 11.5t-47 2h-210l-8 53q124 21 219 21q36 0 64 -5.5t47 -14.5t32 -25t20.5 -30.5t11 -37.5t4.5 -41t1 -46q0 -24 -16.5 -45.5t-43.5 -36
t-59 -27t-64 -20t-59 -13t-43 -7.5l-17 -2l299 -144l-25 -47l-29 9v-152h-67v84q-13 -9 -35 -23t-79.5 -37.5t-102.5 -23.5q-34 0 -57.5 2.5t-65 24t-69.5 62.5q-37 54 -70 165l42 22l82 -131q45 -72 141 -72q25 0 56.5 9t58.5 21.5t49.5 25.5t36 22l13.5 9v14zM706 636v-63
h-720v63h720z" />
    <glyph glyph-name="bnDDx_RA" horiz-adv-x="750" 
d="M613 152q-42 -44 -68 -66q-8 -7 -16.5 -12.5t-18.5 -11t-20.5 -9.5t-21.5 -7t-23.5 -4.5t-24.5 -1.5q-81 0 -167 97q-34 39 -64.5 84.5t-49 82t-32.5 68t-19 48.5l-6 18l47 18q103 -174 164 -249q12 -14 19.5 -23t19 -21t21 -19t21 -14t24 -10.5t25.5 -3.5q43 0 87 39
q116 101 116 185q0 56 -74 56q-54 0 -219 -16v193h-343v63h770v-63h-354v-121q84 16 152 16q45 0 77 -17t47 -43t15 -57q0 -24 -3.5 -45t-7.5 -31l-4 -9v-466h-69v84q-13 -9 -35 -23t-79.5 -37.5t-102.5 -23.5q-34 0 -57.5 2.5t-65 24t-69.5 62.5q-37 54 -70 165l42 22
l82 -131q46 -73 141 -73q25 0 56.5 9t58.5 22t49.5 26t36 22l13.5 9v192zM338 -68v57q0 21 20 21h54q21 0 21 -21v-57q0 -20 -21 -20h-54q-20 0 -20 20z" />
    <glyph glyph-name="bnDDx1_RA" horiz-adv-x="630" 
d="M481 232q-8 -9 -22.5 -22t-53.5 -34.5t-71 -21.5q-91 0 -166 97q-25 33 -48.5 71t-34.5 60l-11 21l46 20q37 -50 101 -132q51 -65 103 -65q47 0 105 52t58 94q0 19 -9 28.5t-38 9.5q-24 0 -66 -3t-72 -7l-30 -3v176h-286v63h659v-63h-300v-107q48 12 108 12
q58 0 81.5 -28t23.5 -68q0 -10 -2 -21t-4 -17l-2 -6v-338h-69v84q-12 -9 -32 -23t-72 -37.5t-93 -23.5q-34 0 -57.5 2.5t-65 24t-69.5 62.5q-37 54 -70 165l42 22l82 -131q46 -73 141 -73q36 0 84 22t80 44t30 22v72zM188 -110v57q0 21 20 21h54q21 0 21 -21v-57
q0 -20 -21 -20h-54q-20 0 -20 20z" />
    <glyph glyph-name="bnDDHx_RA" horiz-adv-x="725" 
d="M194 573h-207v63h755v-63h-475v-369q0 -49 12 -72t47 -23q45 0 109.5 39.5t103.5 99.5q30 46 30 78q0 46 -58 46h-98l-6 60q89 6 123 6q52 0 81 -30t29 -77q0 -21 -10 -51t-20 -49l-10 -19v-410h-69v84q-13 -9 -35 -23t-79.5 -37.5t-102.5 -23.5q-34 0 -57.5 2.5t-65 24
t-69.5 62.5q-37 54 -70 165l42 22l82 -131q46 -73 141 -73q40 0 93.5 22t87.5 44l33 22v168q-4 -4 -12 -10.5t-32.5 -22.5t-48 -28.5t-56 -23t-60.5 -10.5q-55 0 -91.5 37t-36.5 122v379zM268 -72v57q0 21 20 21h54q21 0 21 -21v-57q0 -20 -21 -20h-54q-20 0 -20 20z" />
    <glyph glyph-name="bnYx_RA" horiz-adv-x="665" 
d="M540 573h-360q101 -44 171 -86q22 -13 35.5 -23.5t26 -29t12.5 -39.5q0 -44 -34.5 -77.5t-130.5 -83.5l280 -149v488zM540 -15v15l-374 197v75q7 3 19 8.5t43 20.5t54.5 28.5t42.5 30.5t19 29q0 7 -12 18.5t-31 25t-41.5 28.5t-45.5 28.5t-42 24.5t-31 17l-12 7l16 35
h-159v63h697v-63h-70v-750h-75v82q-13 -9 -36 -22.5t-80.5 -36.5t-100.5 -23q-34 0 -57.5 2.5t-65 24t-69.5 62.5q-37 54 -70 165l42 22l82 -131q46 -73 141 -73q40 0 94 22.5t88 44.5zM259 -20v57q0 21 20 21h54q21 0 21 -21v-57q0 -19 -21 -19h-54q-20 0 -20 19z" />
    <glyph glyph-name="bnK_SS_RA" horiz-adv-x="950" 
d="M584 446v127h-97v-99q0 -28 28 -28h69zM584 377q-39 0 -61.5 1.5t-50.5 12.5t-40 32q-10 17 -10.5 54.5t3.5 66.5l4 29h-145q31 -27 31 -55q0 -9 -4.5 -21t-9.5 -20l-5 -8q2 -1 5.5 -3t13.5 -8.5t19 -12.5t21 -14.5t22 -16t18 -15.5t12 -14q5 -7 5.5 -19t-2 -23.5t-6 -22
t-5.5 -17.5l-3 -6l188 -76v156zM584 43v115q-238 78 -289 95q-18 7 -28.5 3t-22.5 -24q-22 -37 3 -59l67 -61l-31 -42q-52 24 -86 56q-36 34 -39 66.5t24 77.5q22 36 42.5 47.5t45.5 11.5q8 0 23 -3.5t26 -6.5l11 -3q1 1 2 3.5t3.5 9.5t3.5 13t1 13t-3 12q-6 9 -70 39
t-101 44q-28 10 -41 -13q-14 -25 7 -44l38 -37l-23 -39q-29 14 -65 42q-53 41 -12 109q33 58 71 58q13 0 35.5 -7.5t38.5 -14.5l16 -8q13 19 13 35q0 7 -6 17.5t-12 17.5l-7 7h-233v63h984v-63h-313v-127h126q59 0 90 -32t30.5 -78t-27.5 -91q-11 -19 -32 -44.5t-36 -41.5
l-15 -16l-49 31l66 100q27 39 17.5 71t-56.5 32h-114v-495h-75v84q-20 -9 -52 -23t-106.5 -37.5t-118.5 -23.5q-34 0 -58 2.5t-65 24t-69 62.5q-37 54 -70 165l42 22l82 -131q45 -72 141 -72q40 0 109 22t118 44z" />
    <glyph glyph-name="bnJ_NY_RA" horiz-adv-x="950" 
d="M506 391l-101 89l-16 -103q64 14 117 14zM626 173h150q22 0 30 8.5t8 32.5q0 35 -10.5 48t-42.5 13h-30v60h30q29 0 41 10.5t12 38.5q0 30 -7 42t-32 12q-18 0 -57 -21l-86 -49q1 0 2.5 -1t5.5 -4.5t8 -7.5t9 -10.5t8 -14.5t5.5 -19.5t2.5 -23.5q0 -24 -11.5 -52.5
t-23.5 -45.5zM582 409q14 12 37.5 29t79 46t91.5 29q94 0 94 -119q0 -80 -43 -86q20 -3 30.5 -20.5t12 -32.5t1.5 -40q0 -31 -8.5 -53t-19.5 -33.5t-30.5 -17.5t-33 -7t-34.5 -1l-75 4v-246h-73v84q-18 -10 -46.5 -24t-97 -37.5t-113.5 -23.5q-130 0 -192 90q-37 54 -70 165
l42 22l82 -131q45 -72 141 -72q40 0 103 22.5t108 45t43 22.5v89l-39 5q-31 -29 -48 -44q-27 -23 -60 -35t-70 -12q-103 0 -182 111q-29 41 -63.5 114t-54 123.5t-19.5 52.5l47 18q102 -193 156 -268q55 -77 116 -77q53 0 97 39q108 95 108 144q0 20 -15.5 27.5t-55.5 7.5
q-24 0 -79 -4t-99 -8l-43 -4l43 270h-365v63h977v-63h-542l-3 -18z" />
    <glyph glyph-name="bnYAc2" horiz-adv-x="215" 
d="M87 573h-101v63h238v-63h-67q-16 -31 -34 -67q-18 -35 -18 -66q0 -39 20.5 -85t40.5 -91t20 -81q0 -32 -16.5 -67.5t-47.5 -66.5l-73 -62l-36 35l57 70q42 52 42 87q0 16 -6 38t-15.5 44t-20 47t-20 47.5t-15.5 45t-6 39.5q0 32 28 84z" />
    <glyph glyph-name="bnK_BA" horiz-adv-x="695" 
d="M280 257l56 21v189l-208 -90zM203 228l-143 113v88l276 113v31h-348v63h716v-63h-295v-35l141 -38q21 -5 38.5 -15.5t31.5 -25.5t22 -36t8 -45q0 -6 -0.5 -12.5t-2 -14t-3.5 -14.5t-5.5 -15t-7.5 -15q-8 -13 -14 -22.5t-13.5 -19.5t-12 -15t-15 -17t-15.5 -18l-50 31
l44 76q21 37 21 55q0 24 -19.5 39t-57.5 25l-89 24v-545h-75l-249 174v85zM336 201l-181 -72l181 -126v198z" />
    <glyph glyph-name="bnKH_BA" horiz-adv-x="665" 
d="M464 386l-258 -115l330 -186v551l-5 66h44l23 -66h74v-63h-63v-573h-73l-409 233v83l255 111q-14 33 -23 56q-5 12 -14 12q-6 0 -36 -13.5t-64.5 -26.5t-52.5 -13q-22 0 -35 6.5t-30 23.5q-13 14 -23 36.5t-10 41.5t6.5 35.5t19.5 28.5q15 14 39.5 20t41.5 4l17 -1
l12 -40q-18 -7 -46 -20q-21 -10 -21 -28q0 -7 9 -24q4 -7 6 -10t8 -6t16 -3q16 0 82.5 33.5t86.5 33.5q31 0 41 -27zM609 -290h-74l-249 174v91l250 103h73v-368zM535 -205v205l-181 -75z" />
    <glyph glyph-name="bnG_BA" horiz-adv-x="572" 
d="M429 -101v205l-181 -75zM431 502l-137 29q-3 1 -10 2.5t-12 2.5t-13.5 3t-15 3t-14.5 2.5t-14.5 2.5t-13 1.5t-11.5 0.5q-11 0 -25 -14.5t-23.5 -34.5t-9.5 -33q0 -12 13.5 -20t48 -18t51.5 -17q27 -11 38 -21t19 -30l2.5 -7.5t3 -11.5t3.5 -14.5t3.5 -16t3 -16.5
t2 -16.5t0.5 -14.5q0 -19 -41.5 -51.5t-82.5 -54.5l-42 -23l-32 51l7.5 5t17.5 12t24.5 17.5t26 19.5t25 20t17.5 17.5t7 12.5q0 12 -2 21.5t-8 19t-17 13.5q-12 5 -42 15q-92 32 -115 58q-13 15 -13 31q0 26 13.5 60t29.5 58.5t27 33.5q26 22 69 22q78 0 242 -58v72l-8 66
h41l26 -66h91v-63h-78v-759h-74l-249 174v91l251 103v320z" />
    <glyph glyph-name="bnJ_BA" horiz-adv-x="886" 
d="M679 -173v205l-181 -75zM675 491q-38 12 -112.5 28t-129.5 26l-55 10v18zM753 69v-327h-74l-249 174v91l248 102q47 160 62 213q20 72 -53 93l-309 78v-117q50 6 88 6q30 0 57 -3t55.5 -10.5t45.5 -23.5t17 -39q0 -105 -141 -224q-17 -14 -35.5 -25t-43 -19t-48.5 -8
q-80 0 -170 101q-55 62 -94.5 122t-52.5 89l-12 30l45 25q92 -121 154 -196q26 -31 40 -46.5t39.5 -31.5t50.5 -16q39 0 89 42q99 83 99 128q0 13 -7.5 21t-23.5 11.5t-31 4.5t-39 1t-63 -2.5t-65 -4.5l-27 -2v267h-320v63h909v-63h-516v-18q211 -37 297 -64l9 -3
q18 -5 27 -8t24.5 -9t24 -10.5t20 -11.5t17.5 -14t12.5 -16.5t9 -21t2.5 -24.5q0 -9 -1.5 -19.5t-4.5 -24.5z" />
    <glyph glyph-name="bnNN_BA" horiz-adv-x="585" 
d="M432 4v205l-181 -75zM505 573v-654h-73l-249 174v91l249 103v175q-14 8 -38 20t-82 32.5t-99 20.5q-33 0 -62 -37t-29 -69q0 -24 24.5 -60t48.5 -60l25 -24l-36 -40q-53 30 -91 73q-20 22 -33 50.5t-13 57.5q0 36 23 80t47 65q8 6 15 11t13.5 9t13.5 6.5t14 4.5t14.5 3
t14.5 1.5t16 0.5q33 0 63 -8q34 -9 72 -23.5t59 -25.5l20 -10v96l22 83h51v-83h89v-63h-89z" />
    <glyph glyph-name="bnT_BA" horiz-adv-x="650" 
d="M460 -77v205l-181 -75zM660 573h-674v63h674v-63zM263 125q-47 23 -102 79q-33 34 -62.5 75.5t-42.5 65.5l-12 24l37 27l130 -140q75 -81 145 -81q28 0 53 12q79 36 109 116q11 29 11 57q0 46 -32 65.5t-102 19.5h-189l-8 53q134 19 214 19q94 0 142 -46t48 -113
q0 -33 -12 -71q-22 -69 -56 -115v-334h-74l-249 174v91z" />
    <glyph glyph-name="bnTH_BA" horiz-adv-x="610" 
d="M473 -81v205l-181 -75zM304 132l-215 126v87q5 1 13.5 2t33.5 5.5t47.5 10.5t50 15t47 19.5t33 25.5t13.5 31q0 25 -3 38t-14.5 23.5t-33 14t-60.5 3.5h-149l-8 53q84 19 158 19q59 0 95.5 -9.5t55.5 -31.5t25 -49.5t6 -73.5q0 -22 -12.5 -42t-32.5 -34.5t-44.5 -26.5
t-49 -19.5t-44.5 -13t-33 -7.5l-13 -2l220 -128l84 34v509h46l19 -75h82v-63h-73v-739h-75l-249 174v91z" />
    <glyph glyph-name="bnD_BA" horiz-adv-x="530" 
d="M362 -55v205l-181 -75zM363 228l18 129l-271 -119l-45 56v279h-75v63h551v-63h-402v-241l279 120l45 -25l-27 -213v-354h-74l-249 174v91z" />
    <glyph glyph-name="bnDH_BA" horiz-adv-x="950" 
d="M434 94v360l-303 -140zM817 94v360l-303 -140zM507 0h-73l-378 281v79l136 62q-5 1 -13.5 4.5t-29.5 14.5t-37.5 24t-30 33.5t-13.5 41.5q0 39 26.5 80t62.5 41q24 0 53 -6t46 -12l17 -6l-10 -42q-52 10 -83 10q-21 0 -35 -19.5t-14 -43.5q0 -20 33.5 -41.5t67.5 -33.5
l34 -12l168 75v106l-4 66h44l23 -66h469v-63h-76v-573h-73l-310 224v-224zM817 573h-310v-181l310 140v41z" />
    <glyph glyph-name="bnN_BA" horiz-adv-x="586" 
d="M454 -43v205l-181 -75zM528 -128h-74l-249 174v91l250 103v135q-21 8 -53.5 20t-101.5 31.5t-100 19.5q-11 0 -20.5 -3t-17.5 -8.5t-14 -13t-10 -16.5t-6 -18.5t-2 -18.5v-5.5t0.5 -5t1 -4.5t1 -4.5t1.5 -5t2 -4.5l2 -4q12 -20 34.5 -46t39.5 -41l16 -16l-35 -45
q-70 52 -91 73q-46 47 -46 116q0 65 44 104q24 22 50.5 30.5t63.5 8.5q34 0 94 -19t104.5 -38t42.5 -19v130h-467v63h609v-63h-69v-701z" />
    <glyph glyph-name="bnB_BA" horiz-adv-x="950" 
d="M433 94v360l-303 -140zM809 94v360l-303 -140zM506 0h-73l-378 273v89l378 170v41h-449v63h977v-63h-79v-573h-73l-303 220v-220zM809 573h-303v-177l303 136v41z" />
    <glyph glyph-name="bnM_BA" horiz-adv-x="575" 
d="M422 68v205l-181 -75zM393 339q-219 78 -240 78q-14 0 -30 -15t-16 -40q0 -11 12.5 -26.5t24.5 -25.5l12 -9l-25 -39q-44 20 -61 33q-36 27 -36 62q0 51 35.5 92t69.5 41q8 0 19 -2.5t18 -5.5l7 -2q1 2 2 4.5t2.5 8.5t1.5 11q0 9 -17 26.5t-34 29.5l-17 13h-131v63h604
v-63h-82q41 -81 41 -111q0 -22 -14.5 -50t-28.5 -46l-14 -17v-366h-74l-249 174v91zM250 459q158 -60 178 -60q17 0 35.5 24t18.5 41q0 13 -8 40t-16 48l-9 21h-248q7 -4 17 -10t27 -23t17 -30q0 -11 -3 -23.5t-6 -20.5z" />
    <glyph glyph-name="bnR_BA" horiz-adv-x="945" 
d="M433 94v360l-303 -140zM809 94v360l-303 -140zM506 0h-73l-378 273v89l378 170v41h-449v63h977v-63h-79v-573h-73l-303 220v-220zM809 573h-303v-177l303 136v41zM128 11v57q0 21 20 21h54q21 0 21 -21v-57q0 -11 -5.5 -15t-15.5 -4h-54q-9 0 -14.5 5t-5.5 14z" />
    <glyph glyph-name="bnL_BA" horiz-adv-x="725" 
d="M587 -28v205l-181 -75zM661 -113h-74l-249 174v91l250 103v62q0 27 -3.5 45t-19.5 33.5t-45 15.5q-54 0 -79.5 -18.5t-36.5 -74.5l-12 -63h-56l-2 29q-2 44 -7.5 68t-23.5 37t-40 16t-67 3q-74 0 -74 -79q0 -21 7.5 -59.5t14.5 -65.5l8 -28l-49 -17q-6 9 -15.5 26
t-25 66.5t-15.5 97.5q0 41 13 69t35.5 42t45 19.5t48.5 5.5q38 0 61 -1.5t51.5 -8t45.5 -21.5t24 -39q19 41 52.5 53.5t91.5 12.5q25 0 43.5 -7t23.5 -14l6 -7v120h-602v63h755v-63h-80v-686z" />
    <glyph glyph-name="bnSH_BA" horiz-adv-x="600" 
d="M453 -39v205l-181 -75zM527 -124h-74l-249 174v91l250 103v266q0 21 -34.5 36.5t-70.5 15.5q-77 0 -77 -84q0 -47 7 -65.5t33 -33.5q16 -9 38.5 -20t37.5 -17l14 -6l-18 -54q-40 6 -77 21q-18 7 -35 16.5t-25 14.5l-8 6q-20 -19 -66 -37q-18 -7 -43 -13t-40 -8l-16 -3
l-15 55q45 16 87 36q32 15 40.5 36.5t8.5 76.5q0 38 -12 56t-40 21q-119 13 -157 13l1 63h170q60 0 90 -37q19 22 37 28.5t48 6.5q67 0 122 -26v28l22 81h47v-81h85v-63h-81v-697z" />
    <glyph glyph-name="bnSS_BA" horiz-adv-x="615" 
d="M548 573v-573h-73l-374 197v75q7 3 19 8.5t43 20.5t54.5 28.5t42.5 30.5t19 29q0 14 -53.5 51.5t-107.5 67.5l-54 30l16 35h-93v63h645v-63h-84zM286 487q113 -58 189 -58v144h-360q101 -50 171 -86zM358 374q0 -3 -1 -7.5t-10 -19.5t-24.5 -30.5t-50 -38.5t-81.5 -45
l284 -148v268q-23 0 -52.5 5t-46.5 11zM548 -291h-74l-249 174v91l250 103h73v-368zM474 -206v205l-181 -75z" />
    <glyph glyph-name="bnS_BA" horiz-adv-x="710" 
d="M500 47v205l-181 -75zM574 -38h-74l-249 174v91l250 103l-205 93q-5 -11 -14.5 -28t-36.5 -45t-51 -28q-28 0 -64 13t-58 27l-23 13l19 48q69 -26 114 -26q17 0 43.5 44t44.5 88l18 44h-298v63h728v-63h-101q36 -68 36 -112q0 -19 -8 -40t-19.5 -37t-23.5 -29.5
t-20 -20.5l-8 -7v-365zM325 482q175 -82 201 -82q14 0 33 23t19 40q0 18 -6 45.5t-12 45.5l-6 19h-189z" />
    <glyph glyph-name="bnH_BA" horiz-adv-x="920" 
d="M789 94v360l-303 -140zM442 252q-40 -35 -111 -61t-152 -40q41 -24 114.5 -66t125.5 -73l53 -30l-25 -47q-27 11 -72 30.5t-150 71t-171 93.5l8 78h1q210 28 296 80q42 26 43 54q0 29 -5 48t-12.5 29.5t-23 16t-29 6.5t-38.5 1h-210l-8 53q129 21 224 21q41 0 72.5 -8.5
t48.5 -20.5t28.5 -29t14.5 -29t5.5 -25.5t2.5 -14.5l317 142v41h-803v63h952v-63h-76v-573h-73z" />
    <glyph glyph-name="bnGH_BA" horiz-adv-x="693" 
d="M260 573q-2 -3 -5 -8.5t-11.5 -20t-15 -26.5t-12 -25.5t-5.5 -20.5q0 -17 8 -26q5 -5 16.5 -8.5t29 -5.5t36.5 -2.5t44 -0.5h39h40h16l21 -87l-206 -117l301 -143v491h-296zM629 573v-573h-73l-384 185v75l198 105h-50q-137 0 -169 43q-13 18 -13 43q0 23 14.5 53.5
t28.5 49.5l14 19h-112v63h621v-63h-75zM630 -290h-74l-249 174v91l250 103h73v-368zM556 -205v205l-181 -75z" />
    <glyph glyph-name="bnNG_BA" horiz-adv-x="700" 
d="M319 290v148q-74 21 -128 49l-36 19l23 46l141 -52q0 72 26 102q17 19 38 27t64 8q31 0 48.5 -1t38 -6.5t31 -16.5t17.5 -31t7 -50q0 -53 -19 -77t-73 -24h-113v-82q113 11 155 11q26 0 48 -7t36.5 -19.5t23 -30t8.5 -36.5q0 -60 -48.5 -116t-122.5 -101
q-25 -15 -56.5 -24.5t-54.5 -9.5q-79 0 -159 90q-42 47 -84.5 120.5t-63.5 123.5l-22 51l47 18q104 -180 172 -255q34 -38 59 -56t51 -18q14 0 33 5t36 15q141 80 141 147q0 33 -65 33h-199zM384 491h96q47 0 47 34q0 32 -10.5 39t-62.5 7q-48 0 -59 -11.5t-11 -68.5z
M520 -263h-74l-249 174v91l250 103h73v-368zM446 -178v205l-181 -75z" />
    <glyph glyph-name="bnC_BA" horiz-adv-x="610" 
d="M238 405v-239q0 -47 14.5 -71t50.5 -24q43 0 114 48.5t111 109.5q30 46 30 78q0 24 -13.5 33t-44.5 15zM238 463q71 -8 109 -12q144 -17 172 -22q110 -19 110 -117q0 -39 -25 -86q-49 -92 -140.5 -159t-162.5 -67q-26 0 -49 8t-43.5 25.5t-32 49.5t-11.5 76v414h-94v63
h645v-63h-478v-110zM388 -263h-74l-249 174v91l250 103h73v-368zM314 -178v205l-181 -75z" />
    <glyph glyph-name="bnCH_BA" horiz-adv-x="660" 
d="M348 344q20 17 20 41q0 19 -14 30t-25 13.5t-41 7.5l-137 24v-140q1 -29 16 -41.5t33 -12.5q54 0 148 78zM435 405q4 -15 4 -24q0 -44 -59 -92q-112 -91 -188 -91q-38 0 -76 29t-38 85v261h-87v63h686v-63h-526v-57q88 -12 146 -20q123 -18 183 -32q58 -14 87 -40t29 -79
q0 -31 -12 -98q-4 -22 -31.5 -45.5t-63 -40.5t-71.5 -31t-59.5 -21t-24.5 -7l246 -99l-16 -47q-235 66 -331 118v72q11 3 29.5 7.5t66 19.5t84.5 30t69.5 36.5t37.5 41.5q6 25 6 59q0 21 -8.5 31.5t-36.5 20.5q-12 5 -24 8t-17 4zM435 -305h-74l-249 174v91l250 103h73v-368
zM361 -220v205l-181 -75z" />
    <glyph glyph-name="bnJH_BA" horiz-adv-x="769" 
d="M522 271l121 -44v409l-5 66h44l23 -66h91v-63h-80v-534h-73v121l-121 38v-198h-73l-378 281v81l378 170v41h-461v63h534v-365zM449 82v377l-307 -143zM522 -290h-74l-249 174v91l250 103h73v-368zM448 -205v205l-181 -75z" />
    <glyph glyph-name="bnNY_BA" horiz-adv-x="890" 
d="M607 500q9 2 23 5t45 8.5t47 5.5q31 0 46.5 -2t35 -12t28 -34.5t8.5 -65.5v-8q0 -79 -45 -86q44 -8 44 -87v-9q0 -32 -7.5 -54.5t-16.5 -33.5t-27.5 -16.5t-30.5 -6.5t-35 -1q-24 0 -53 4.5t-45 8.5l-17 5v-121h-74v84q-14 -9 -37 -23t-80.5 -37.5t-99.5 -23.5
q-34 0 -57.5 2.5t-65 24t-69.5 62.5q-37 54 -70 165l40 25l84 -134q46 -73 141 -73q40 0 93.5 22t87.5 44l33 22v297q0 18 -7.5 35t-20.5 31t-33.5 22t-43.5 8q-22 0 -55.5 -13.5t-66 -33.5t-61.5 -39.5t-47 -32.5l-18 -14l-30 38q63 72 134.5 122t136.5 50q32 0 60 -7
t46.5 -18.5t33.5 -25.5t23 -28t13.5 -25.5t7.5 -18.5zM607 174q75 -8 115 -8q46 0 46 42v21q0 28 -12 38.5t-41 10.5h-53v60h53q29 0 41 10.5t12 38.5v25q0 42 -44 42q-18 0 -47.5 -2.5t-49.5 -5.5l-20 -2v-270zM607 -223h-74l-249 174v91l250 103h73v-368zM533 -138v205
l-181 -75z" />
    <glyph glyph-name="bnTT_BA" horiz-adv-x="600" 
d="M411 403q52 0 81 -30t29 -77q0 -30 -22 -82q-40 -93 -135 -153.5t-161 -60.5q-55 0 -91.5 37t-36.5 122v414h-96v63h448q0 96 -64 96h-375l-4 53q317 14 385 14q44 0 74 -25t42 -60.5t12 -77.5h115v-63h-464v-404q0 -49 12 -72t47 -23q45 0 109.5 39.5t103.5 99.5
q30 46 30 78q0 46 -58 46h-98l-6 60q89 6 123 6zM379 -267h-74l-249 174v91l250 103h73v-368zM305 -182v205l-181 -75z" />
    <glyph glyph-name="bnTTH_BA" horiz-adv-x="585" 
d="M530 225q0 -30 -22.5 -69.5t-57 -74t-81.5 -58t-91 -23.5t-89.5 34.5t-76 81.5t-49.5 92.5t-19 70.5q114 55 150 95q17 19 25.5 36t8.5 34q0 13 -7 26t-26 39q-2 2 -3 4q-22 31 -22 60h-182v63h183q2 23 27 51q24 26 62.5 58t64.5 51.5t27 19.5l32 -37q-97 -90 -128 -121
q-2 -2 -4 -4.5t-3.5 -4.5l-3 -4t-2.5 -3.5t-2 -2.5t-1 -2v-1h355v-63h-353q0 -22 45 -67.5t99 -90.5t99 -99t45 -91zM454 222q0 14 -17 38t-41 48t-48.5 46t-41.5 35l-17 14q0 -28 -37 -71q-19 -22 -50 -45t-51.5 -34.5t-21.5 -11.5q3 -7 8 -18t20.5 -39t32 -49.5t41 -39
t47.5 -17.5q55 0 115.5 54t60.5 90zM428 -272h-74l-249 174v91l250 103h73v-368zM354 -187v205l-181 -75z" />
    <glyph glyph-name="bnDD_BA" horiz-adv-x="735" 
d="M748 636v-63h-359v-161q84 16 152 16q45 0 77 -17t47 -43t15 -57q0 -138 -152 -265q-56 -46 -125 -46q-81 0 -167 97q-109 124 -166 285l-5 16l47 18q103 -174 164 -249q9 -10 14.5 -17t14 -16.5t15.5 -15.5t15.5 -13.5t16 -12t16.5 -8.5t18.5 -6t19.5 -2q43 0 87 39
q116 101 116 185q0 56 -74 56q-54 0 -219 -16v233h-328v63h760zM558 -272h-74l-249 174v91l250 103h73v-368zM484 -187v205l-181 -75z" />
    <glyph glyph-name="bnDDH_BA" horiz-adv-x="620" 
d="M700 636v-63h-473v-404q0 -49 12.5 -72t46.5 -23q21 0 49 10t57.5 27.5t58.5 44t48 57.5q30 46 30 78q0 17 -8.5 27.5t-21 14.5t-28.5 4h-98l-6 60q89 6 123 6q52 0 81 -30t29 -77q0 -30 -22 -82q-17 -40 -46.5 -75.5t-62.5 -60t-68.5 -43t-66 -27t-52.5 -8.5
q-55 0 -91.5 37t-36.5 122v414h-87v63h633zM453 -269h-74l-249 174v91l250 103h73v-368zM379 -184v205l-181 -75z" />
    <glyph glyph-name="bnP_BA" horiz-adv-x="650" 
d="M623 -151h-74l-249 174v91l250 103h73v-368zM549 -66v205l-181 -75zM476 464q-30 29 -51 46q-47 38 -82 38q-24 0 -65 -25q-7 -4 -18.5 -12.5t-23 -18t-22.5 -18t-17 -14.5l-7 -5l120 -143zM622 0h-73v399l-22 21l-203 -187l-45 7l-145 177l-44 -30l-36 47
q112 101 190 152q54 35 96 35q43 0 88 -31q23 -16 53.5 -42t48.5 -44l19 -18v150l-7 66h42l26 -66h95v-63h-83v-573z" />
    <glyph glyph-name="bnPH_BA" horiz-adv-x="840" 
d="M113 573q101 -44 171 -86q22 -13 35.5 -23.5t26 -29t12.5 -39.5q0 -45 -34 -78.5t-129 -82.5l272 -149v408h168q156 0 156 -123q0 -30 -21 -72q-10 -20 -31 -46t-37 -42l-17 -16l-51 34q42 62 62 93q19 29 19 54q0 46 -77 46h-98v-421h-73l-367 197v75q7 3 19 8.5
t42.5 20.5t54 28.5t42.5 30.5t19 29q0 14 -53.5 51.5t-107.5 67.5l-54 30l16 35h-88v63h869v-63h-746zM540 -292h-74l-249 174v91l250 103h73v-368zM466 -207v205l-181 -75z" />
    <glyph glyph-name="bnBH_BA" horiz-adv-x="825" 
d="M435 264q-83 0 -123 26t-40 93q0 91 27 117q17 16 69 16q15 0 36 -2.5t34 -4.5l13 -3l-6 -54h-74q-25 0 -25 -76q0 -24 19.5 -30.5t63.5 -6.5q22 0 46 16.5t42 35.5t39.5 35.5t39.5 16.5q43 0 97 -64t54 -102q0 -49 -65.5 -112.5t-143.5 -103.5q-57 -29 -114 -29
q-100 0 -208 108q-36 36 -74 87.5t-58 84.5l-20 33l42 31l150 -166q88 -99 164 -99q47 0 92 24q53 28 102.5 70t49.5 72q0 16 -25.5 48t-44.5 32q-8 0 -23.5 -14.5t-32 -32t-44.5 -32t-59 -14.5zM837 573h-845v63h845v-63zM565 -239h-74l-249 174v91l250 103h73v-368z
M491 -154v205l-181 -75z" />
    <glyph glyph-name="bnY_BA" horiz-adv-x="620" 
d="M600 573v-573h-73l-374 197v75q178 74 178 117q0 7 -12 18.5t-31 25t-41.5 28.5t-45.5 28.5t-42 24.5t-31 17l-12 7l16 35h-103v63h641v-63h-70zM527 573h-360q101 -44 171 -86q22 -13 35.5 -23.5t26 -29t12.5 -39.5q0 -44 -34.5 -77.5t-130.5 -83.5l280 -149v488z
M560 -292h-74l-249 174v91l250 103h73v-368zM486 -207v205l-181 -75z" />
    <glyph glyph-name="bnK_KA" horiz-adv-x="680" 
d="M312 29v207l-175 -76zM503 275l28 47q21 36 21 55q0 24 -17 38t-60 26l-89 24v-158zM570 254q6 -4 15.5 -12t25 -36t15.5 -59q0 -11 -1.5 -21.5t-6 -24t-11.5 -25.5q-10 -17 -27.5 -40t-29.5 -38l-13 -14l-50 31l44 76q21 37 21 55q0 24 -17 38t-60 26l-89 24v-287h-74
l-246 181v82l89 37l-119 94v88l276 113v31h-324v63h705v-63h-308v-35l141 -38q44 -12 72 -43.5t28 -78.5q0 -18 -4 -35.5t-15 -35.5zM312 311v156l-208 -90l126 -100z" />
    <glyph glyph-name="bnK_NA" horiz-adv-x="750" 
d="M404 212v255l-208 -90zM478 465v-552h-74v108q-15 8 -40 20t-81 31.5t-87.5 19.5t-51.5 -24t-20 -54q0 -12 17 -34l37 -46l-34 -39q-29 18 -50 38q-17 17 -25.5 28.5t-13.5 26t-5 34.5q0 63 46 104q23 21 48 30t64 9q68 0 193 -74l3 -2v34l-276 218v88l276 113v31h-416
v63h775v-63h-286v-35l141 -38q44 -12 72 -43.5t28 -78.5q0 -8 -1 -16t-3 -17.5t-6 -19t-9 -18.5q-12 -20 -29.5 -43t-29.5 -36l-11 -13l-50 31l44 76q21 37 21 55q0 24 -17.5 38.5t-59.5 25.5z" />
    <glyph glyph-name="bnDDx_BA" horiz-adv-x="735" 
d="M119 -6v67q0 10 2.5 13t12.5 3h64q11 0 13.5 -3t2.5 -13v-67q0 -10 -3 -12.5t-13 -2.5h-64q-9 0 -12 3t-3 12zM747 636v-63h-359v-161q84 16 152 16q45 0 77 -17t47 -43t15 -57q0 -138 -152 -265q-56 -46 -125 -46q-81 0 -167 97q-109 124 -166 285l-5 16l47 18
q103 -174 164 -249q9 -10 14.5 -17t14 -16.5t15.5 -15.5t15.5 -13.5t16 -12t16.5 -8.5t18.5 -6t19.5 -2q43 0 87 39q116 101 116 185q0 56 -74 56q-54 0 -219 -16v233h-328v63h760zM573 -266h-74l-249 174v91l250 103h73v-368zM499 -181v205l-181 -75z" />
    <glyph glyph-name="bnDDHx_BA" horiz-adv-x="620" 
d="M702 636v-63h-473v-404q0 -49 12.5 -72t46.5 -23q21 0 49 10t57.5 27.5t58.5 44t48 57.5q30 46 30 78q0 17 -8.5 27.5t-21 14.5t-28.5 4h-98l-6 60q89 6 123 6q52 0 81 -30t29 -77q0 -30 -22 -82q-17 -40 -46.5 -75.5t-62.5 -60t-68.5 -43t-66 -27t-52.5 -8.5
q-55 0 -91.5 37t-36.5 122v414h-87v63h633zM108 -85v67q0 10 2.5 13t12.5 3h64q11 0 13.5 -3t2.5 -13v-67q0 -10 -3 -12.5t-13 -2.5h-64q-9 0 -12 3t-3 12zM587 -304h-74l-249 174v91l250 103h73v-368zM513 -219v205l-181 -75z" />
    <glyph glyph-name="bnYx_BA" horiz-adv-x="665" 
d="M603 573v-573h-73l-374 197v75q178 74 178 117q0 7 -12 18.5t-31 25t-41.5 28.5t-45.5 28.5t-42 24.5t-31 17l-12 7l16 35h-103v63h641v-63h-70zM530 573h-360q101 -44 171 -86q22 -13 35.5 -23.5t26 -29t12.5 -39.5q0 -44 -34.5 -77.5t-130.5 -83.5l280 -149v488z
M186 15v67q0 10 2.5 13t12.5 3h64q11 0 13.5 -3t2.5 -13v-67q0 -10 -3 -12.5t-13 -2.5h-64q-9 0 -12 3t-3 12zM603 -290h-74l-249 174v91l250 103h73v-368zM529 -205v205l-181 -75z" />
    <glyph glyph-name="bnK_SS_BA" horiz-adv-x="960" 
d="M657 377v-377h-73v158q-227 78 -278 95q-18 7 -30 2.5t-24 -23.5q-22 -37 3 -59l67 -61l-31 -42q-52 24 -86 56q-36 34 -39 66.5t24 77.5q22 36 42.5 47.5t45.5 11.5q8 0 21 -3.5t22 -6.5l9 -3q1 1 2 3.5t3.5 9.5t3.5 13t1 13t-3 12q-6 9 -70 39t-101 44q-29 10 -41 -13
q-14 -25 7 -44l38 -37l-23 -39q-29 14 -65 42q-53 41 -12 109q33 58 71 58q13 0 35.5 -7.5t38.5 -14.5l16 -8q13 19 13 35q0 7 -6 17.5t-12 17.5l-7 7h-233v63h984v-63h-313v-127h126q59 0 90.5 -32t30.5 -78t-28 -91q-11 -19 -32 -44.5t-36 -41.5l-15 -16l-49 31l66 100
q27 39 17.5 71t-56.5 32h-114zM584 446v127h-97v-99q0 -28 28 -28h69zM584 377q-39 0 -61.5 1.5t-50.5 12.5t-40 32q-10 17 -10.5 54.5t3.5 66.5l4 29h-145q31 -26 31 -55q0 -9 -4.5 -21t-9.5 -20l-5 -8q10 -6 26 -16t46.5 -32.5t38.5 -35.5q5 -7 5.5 -19t-2 -23.5t-6 -22
t-5.5 -17.5l-3 -6l188 -76v156zM657 -218h-74l-249 174v91l250 103h73v-368zM583 -133v205l-181 -75z" />
    <glyph glyph-name="bnJ_NY_BA" horiz-adv-x="945" 
d="M566 -241h-74l-249 174v91l250 103h73v-368zM492 -156v205l-181 -75zM420 573l-3 -18l165 -146q14 12 37.5 29t79 46t91.5 29q94 0 94 -119q0 -80 -43 -86q20 -3 30.5 -20.5t12 -32.5t1.5 -40q0 -31 -8.5 -53t-19.5 -33.5t-30.5 -17.5t-33 -7t-34.5 -1q-38 0 -83.5 3.5
t-71.5 7.5l-26 4q-37 -29 -54 -44q-27 -23 -60 -35t-70 -12q-103 0 -182 111q-29 41 -63.5 114t-54 123.5t-19.5 52.5l47 18q102 -193 156 -268q55 -77 116 -77q53 0 97 39q56 49 79 80.5t23 56.5q0 21 -14.5 30t-53.5 9q-24 0 -78.5 -6t-96.5 -12l-43 -5l43 280h-365v63
h977v-63h-542zM506 389l-101 91l-16 -110q64 19 117 19zM626 173h150q22 0 30 8.5t8 32.5q0 35 -10.5 48t-42.5 13h-30v60h30q29 0 41 10.5t12 38.5q0 30 -6.5 40.5t-30.5 10.5q-20 0 -59 -21l-86 -46q1 0 2.5 -1t5.5 -4.5t8 -7.5t9 -10.5t8 -14.5t5.5 -19.5t2.5 -23.5
q0 -24 -11.5 -52.5t-23.5 -45.5z" />
    <glyph glyph-name="bnK_TA" horiz-adv-x="770" 
d="M783 573h-795v63h795v-63zM537 269q5 -5 12 -13.5t19 -33t12 -46.5q0 -79 -112 -147q-48 -29 -99 -29q-122 0 -202 134q-31 51 -54.5 100.5t-31.5 73.5l-8 24l43 24l104 -171q67 -110 145 -110q52 0 99 39q40 34 40 63q0 23 -25 57.5t-48 34.5h-103v64h83q28 0 35.5 9.5
t10.5 45.5q3 33 -14.5 45.5t-70.5 12.5h-159l-8 50q70 20 167 20q98 0 129 -27.5t27 -95.5l-9 -60h84q59 0 96.5 -28t37.5 -72q0 -9 -1 -17l-2 -16t-3 -15l-4 -14t-5.5 -16.5t-7 -18t-7 -17.5t-7 -17t-6 -14t-4.5 -9l-1 -4l-53 14l24 93q7 30 7 46q0 14 -6.5 23t-21.5 12.5
t-29.5 4.5t-39.5 1h-33z" />
    <glyph glyph-name="bnK_T_BA" horiz-adv-x="774" 
d="M783 573h-795v63h795v-63zM537 269q5 -5 12 -13.5t19 -33t12 -46.5q0 -79 -112 -147q-48 -29 -99 -29q-122 0 -202 134q-31 51 -54.5 100.5t-31.5 73.5l-8 24l43 24l104 -171q67 -110 145 -110q52 0 99 39q40 34 40 63q0 23 -25 57.5t-48 34.5h-103v64h83q28 0 35.5 9.5
t10.5 45.5q3 33 -14.5 45.5t-70.5 12.5h-159l-8 50q70 20 167 20q98 0 129 -27.5t27 -95.5l-9 -60h84q59 0 96.5 -28t37.5 -72q0 -9 -1 -17l-2 -16t-3 -15l-4 -14t-5.5 -16.5t-7 -18t-7 -17.5t-7 -17t-6 -14t-4.5 -9l-1 -4l-53 14l24 93q7 30 7 46q0 14 -6.5 23t-21.5 12.5
t-29.5 4.5t-39.5 1h-33zM518 -274h-74l-249 174v91l250 103h73v-368zM444 -189v205l-181 -75z" />
    <glyph glyph-name="bnK_T_RA" horiz-adv-x="773" 
d="M783 573h-795v63h795v-63zM537 269q5 -5 12 -13.5t19 -33t12 -46.5q0 -79 -112 -147q-48 -29 -99 -29q-122 0 -202 134q-31 51 -54.5 100.5t-31.5 73.5l-8 24l43 24l104 -171q67 -110 145 -110q52 0 99 39q40 34 40 63q0 23 -25 57.5t-48 34.5h-103v64h83q28 0 35.5 9.5
t10.5 45.5q3 33 -14.5 45.5t-70.5 12.5h-159l-8 50q70 20 167 20q98 0 129 -27.5t27 -95.5l-9 -60h84q59 0 96.5 -28t37.5 -72q0 -9 -1 -17l-2 -16t-3 -15l-4 -14t-5.5 -16.5t-7 -18t-7 -17.5t-7 -17t-6 -14t-4.5 -9l-1 -4l-53 14l24 93q7 30 7 46q0 14 -6.5 23t-21.5 12.5
t-29.5 4.5t-39.5 1h-33zM505 -83q-5 -3 -13 -9t-33 -20.5t-49.5 -25.5t-58.5 -20t-63 -9q-34 0 -57.5 2.5t-65 24t-69.5 62.5q-37 54 -70 165l42 22l82 -131q45 -72 141 -72q40 0 93.5 21.5t87.5 43.5l33 22v167l73 35v-362h-73v84z" />
    <glyph glyph-name="bnK_MA" horiz-adv-x="750" 
d="M690 140q0 -36 -39 -89.5t-73 -53.5q-20 0 -159.5 50.5t-151.5 50.5q-13 0 -29 -15.5t-16 -40.5q0 -11 14 -26t28 -24l13 -9l-25 -42q-50 20 -67 33q-36 27 -36 65q0 51 35.5 92t69.5 41q8 0 18 -2t16 -4l6 -3l-246 197v81l246 101v31h-306v63h774v-63h-72v-433zM617 142
v431h-250v-35l93 -25q27 -7 51 -24t41 -43.5t17 -56.5q0 -17 -4.5 -34.5t-14.5 -35.5q-12 -20 -29.5 -43t-28.5 -36l-12 -13l-50 31q65 101 65 131q0 43 -79 63l-48 13v-324q173 -72 193 -72q16 0 36 27.5t20 45.5zM294 251v216l-178 -77z" />
    <glyph glyph-name="bnK_LA" horiz-adv-x="840" 
d="M502 -13q0 19 -2 33t-9 29t-21.5 23t-36.5 8q-45 0 -61.5 -13.5t-24.5 -61.5l-5 -30h-62q-4 70 -25 87.5t-80 17.5q-37 0 -51.5 -15.5t-14.5 -63.5q0 -28 14 -82l-50 -17q-37 69 -37 119q0 133 136 133q69 0 98.5 -11.5t43.5 -58.5q11 40 35.5 53t78.5 13q25 0 43.5 -7
t24.5 -14l5 -7v29l-276 198v80l276 113v31h-513v63h861v-63h-275v-35l141 -38q28 -8 50 -23.5t36 -41t14 -57.5q0 -18 -4.5 -35.5t-14.5 -35.5q-12 -20 -29.5 -43t-28.5 -36l-12 -13l-50 31q65 100 65 131q0 17 -9.5 29.5t-25.5 20t-42 14.5l-89 24v-507h-73v29zM501 233
v234l-200 -87z" />
    <glyph glyph-name="bnK_TTA" horiz-adv-x="670" 
d="M413 636q0 96 -64 96h-305l-4 54q249 14 315 14q44 0 74 -25.5t42 -61t12 -77.5h199v-63h-285v-35l120 -32q41 -11 70.5 -41.5t29.5 -80.5q0 -7 -0.5 -13t-2 -13.5t-3.5 -14.5t-5 -15t-8 -15q-22 -35 -50 -64l-53 32l27 47q21 40 21 55q0 26 -19.5 40t-57.5 24l-68 18
v-159l-86 -209q-30 -91 57 -91q82 0 151 64q34 32 34 57q0 12 -6.5 19t-19.5 10t-22 3.5t-25 0.5h-62l-6 58q63 9 104 9q112 0 112 -86q0 -47 -33 -89q-51 -64 -115 -92t-125 -28t-108 43t-20 116l31 83l-211 167v88l276 113v31h-336v63h425zM290 240l34 83v144l-208 -90z
" />
    <glyph glyph-name="bnK_TT_RA" horiz-adv-x="690" 
d="M535 -10q0 -2 -21.5 -15t-65.5 -28t-89 -15q-39 0 -74 17t-54.5 52.5t0.5 89.5l31 83l-211 167v88l276 113v31h-339v63h425q0 96 -64 96h-305l-4 53q246 14 315 14q44 0 74 -25t42 -60.5t12 -77.5h219v-63h-302v-35l120 -32q26 -7 47 -21t37 -40.5t16 -60.5
q0 -7 -0.5 -13t-2 -13.5t-3.5 -14.5t-5 -15t-8 -15q-19 -30 -50 -64l-53 32l27 47q21 37 21 55q0 27 -19 40.5t-58 23.5l-68 18v-159l-85 -207q-19 -46 -1 -69.5t57 -23.5q82 0 151 64q34 32 34 57q0 12 -6.5 19t-19.5 10t-22 3.5t-25 0.5h-62l-6 58q62 9 104 9
q112 0 112 -86q0 -41 -24 -81v-268h-73v84q-5 -3 -13 -9t-33 -20.5t-49.5 -25.5t-58.5 -20t-63 -9q-19 0 -31 0.5t-36.5 5t-43.5 13.5t-41.5 27t-39.5 43q-37 54 -70 165l42 22l82 -131q46 -73 141 -73q40 0 93.5 22t87.5 44l33 22v38zM293 240l34 83v144l-208 -90z" />
    <glyph glyph-name="bnK_SA" horiz-adv-x="770" 
d="M638 32q-216 89 -254 89q-2 0 -4.5 -1t-5 -3t-5.5 -5t-5 -6t-5 -8t-5 -8.5t-6 -9t-6 -9.5q-45 -72 -123 -72q-23 0 -53 11t-48 22l-19 12l21 55q79 -28 95 -28q32 0 61.5 37.5t29.5 60.5l-238 191v81l246 101v31h-326v63h792v-63h-69v-611h-73v70zM638 103v470h-251v-35
l93 -25q42 -11 75.5 -45.5t33.5 -78.5q0 -17 -4.5 -34.5t-14.5 -35.5q-12 -20 -29.5 -43t-28.5 -36l-12 -13l-50 31q7 10 18 27t29 52t18 52q0 42 -79 63l-48 13v-262q24 0 86.5 -25t113.5 -50zM314 251v216l-178 -78z" />
    <glyph glyph-name="bnK_SS_NNA" horiz-adv-x="960" 
d="M584 446v127h-97v-99q0 -28 28 -28h69zM584 377q-39 0 -61.5 1.5t-50.5 12.5t-40 32q-10 17 -10.5 54.5t3.5 66.5l4 29h-145q31 -27 31 -55q0 -9 -4.5 -21t-9.5 -20l-5 -8q2 -1 5.5 -3t13.5 -8.5t19 -12.5t21 -14.5t22 -16t18 -15.5t12 -14q5 -7 5.5 -19t-2 -23.5t-6 -22
t-5.5 -17.5l-3 -6l188 -76v156zM657 -169h-73v98l-69 35q-74 33 -114 34q-32 0 -52 -22.5t-20 -53.5q0 -11 17 -33l37 -46l-34 -39q-29 17 -50 38q-25 25 -34.5 42.5t-9.5 46.5q0 60 48 107q17 16 38.5 23.5t49.5 7.5q32 0 80.5 -18.5t80.5 -36.5l32 -19v163
q-238 78 -289 95q-18 7 -28.5 3t-22.5 -24q-22 -37 3 -59l67 -61l-31 -42q-52 24 -86 56q-36 34 -39 66.5t24 77.5q22 36 42.5 47.5t45.5 11.5q8 0 23 -3.5t26 -6.5l11 -3q1 1 2 3.5t3.5 9.5t3.5 13t1 13t-3 12q-6 9 -70 39t-101 44q-28 10 -41 -13q-14 -25 7 -44l38 -37
l-23 -39q-29 14 -65 42q-53 41 -12 109q33 58 71 58q13 0 35.5 -7.5t38.5 -14.5l16 -8q13 19 13 35q0 7 -6 17.5t-12 17.5l-7 7h-233v63h984v-63h-313v-127h126q59 0 90.5 -32t30.5 -78t-28 -91q-11 -19 -32 -44.5t-36 -41.5l-15 -16l-49 31l66 100q27 39 17.5 71t-56.5 32
h-114v-546z" />
    <glyph glyph-name="bnK_SS_MA" horiz-adv-x="1070" 
d="M584 446v127h-97v-99q0 -28 28 -28h69zM584 377q-39 0 -61.5 1.5t-50.5 12.5t-40 32q-10 17 -10.5 54.5t3.5 66.5l4 29h-145q31 -28 31 -55q0 -9 -4.5 -21t-9.5 -20l-5 -8q2 -1 5.5 -3t13.5 -8.5t19 -12.5t21 -14.5t22 -16t18 -15.5t12 -14q5 -7 5.5 -19t-2 -23.5t-6 -22
t-5.5 -17.5l-3 -6l188 -76v156zM1020 573v-507q0 -35 -40.5 -87.5t-74.5 -52.5q-20 0 -177.5 58t-169.5 58q-13 0 -29.5 -17.5t-16.5 -39.5q0 -21 50 -54l-26 -44q-44 20 -61 33q-36 27 -36 62q0 51 35.5 92t69.5 41q8 0 18 -2.5t16 -4.5l6 -2v52q-238 78 -289 95
q-18 7 -28.5 3t-22.5 -24q-22 -37 3 -59l67 -61l-31 -42q-52 24 -86 56q-36 34 -39 66.5t24 77.5q22 36 42.5 47.5t45.5 11.5q8 0 23 -3.5t26 -6.5l11 -3q1 1 2 3.5t3.5 9.5t3.5 13t1 13t-3 12q-6 9 -70 39t-101 44q-28 10 -41 -13q-14 -25 7 -44l38 -37l-23 -39
q-29 14 -65 42q-53 41 -12 109q33 58 71 58q13 0 35.5 -7.5t38.5 -14.5l16 -8q13 19 13 35q0 7 -6 17.5t-12 17.5l-7 7h-233v63h1094v-63h-60zM947 573h-290v-127h126q59 0 90.5 -32t30.5 -78t-28 -91q-11 -19 -32 -44.5t-36 -41.5l-15 -16l-49 31l66 100q27 39 17.5 71
t-56.5 32h-114v-293q214 -85 234 -85q16 0 36 26.5t20 44.5v503z" />
    <glyph glyph-name="bnG_GA" horiz-adv-x="535" 
d="M389 213l-137 29q-82 18 -111 18q-9 0 -21 -13.5t-12 -22.5q0 -6 4 -10t14.5 -8.5t18.5 -7.5t27.5 -9t31.5 -10q4 -1 13.5 -4t12 -4t9 -3.5t9 -4.5t6.5 -5.5t6.5 -7.5t4.5 -9q13 -28 13 -64q0 -17 -23 -36t-46 -30l-23 -11l-26 41q56 31 56 51q0 5 -1 8.5t-2 5.5t-5 4
t-5.5 2.5t-9 2.5t-10.5 3q-33 10 -52 16t-48 18t-43.5 26t-14.5 30q0 21 19 55.5t34 47.5q17 14 33.5 17.5t51.5 3.5q6 4 15 9t23.5 18.5t14.5 21.5q0 3 -0.5 5.5t-1.5 4.5l-1.5 3t-2.5 2.5t-3.5 2.5t-5 2t-5 1.5l-6 2l-7.5 2.5q-4 1 -13 4q-32 10 -50 16.5t-44 17.5
t-38.5 24t-12.5 28q0 21 19 55.5t34 47.5q27 22 69 22t102.5 -15.5t100.5 -30.5l39 -15v75l-8 66h41l26 -66h102v-63h-89v-573h-72v213zM389 502l-137 29q-82 18 -111 18q-6 0 -14 -6.5t-13.5 -15t-5.5 -14.5t4 -10.5t14 -8.5t19.5 -7t27.5 -8.5t31 -10.5q5 -2 15.5 -5.5
l13.5 -4.5t9.5 -4t9.5 -6t6.5 -7.5t6.5 -10.5q6 -12 9.5 -27t3.5 -37q0 -9 -9 -21t-18 -20l-9 -7q35 -7 68.5 -18t78.5 -28v230z" />
    <glyph glyph-name="bnG_DA" horiz-adv-x="835" 
d="M385 571v65h460v-63h-386v-241l279 120l45 -25l-60 -462h-74l52 392l-271 -119l-45 57v214l-115 24q-3 1 -11.5 3t-14.5 3t-15.5 3t-17.5 3.5t-16.5 3t-16 2t-12.5 0.5q-16 0 -37 -30.5t-21 -51.5q0 -12 14 -19.5t47.5 -18t51.5 -17.5q28 -11 39 -21.5t18 -29.5
q1 -3 2.5 -8t3 -11.5t3.5 -14t3.5 -16t3 -16.5t2 -16.5t0.5 -14.5q0 -9 -9 -21t-24 -23.5t-32.5 -24t-35 -23t-32.5 -19t-24 -13.5l-9 -5l-32 51l7.5 5t17.5 12t24.5 17.5t26 19.5t25 20t17.5 17.5t7 12.5q0 19 -6 33.5t-21 20.5q-13 5 -45 16q-90 32 -113 57q-12 15 -12 31
q0 37 25.5 87t44.5 65q26 22 69 22q42 0 97 -13.5t89 -26.5z" />
    <glyph glyph-name="bnG_DHA" horiz-adv-x="710" 
d="M424 102l-181 -72l181 -126v198zM424 182v320l-137 29q-3 1 -11.5 3t-14.5 3t-15.5 3t-17.5 3.5t-16.5 3t-16 2t-12.5 0.5q-7 0 -15 -5.5t-15.5 -15t-13.5 -20.5t-10 -22t-4 -19q0 -6 4.5 -11.5t12 -9.5t19 -8t22.5 -7.5t27 -8.5t28 -10q27 -11 38 -21t19 -30l2.5 -7.5
t3 -11.5t3.5 -14.5t3.5 -16t3 -16.5t2 -16.5t0.5 -14.5q0 -19 -41.5 -51.5t-82.5 -54.5l-42 -23l-32 51l7.5 5t17.5 12t24.5 17.5t26 19.5t25 20t17.5 17.5t7 12.5q0 19 -5.5 33.5t-21.5 20.5q-12 5 -42 15q-92 32 -115 58q-13 15 -13 31q0 37 25.5 87t44.5 65q26 22 69 22
q42 0 102.5 -15.5t99.5 -30.5l40 -15v75l-8 66h41l26 -66h233v-63h-220v-391q71 0 115 -31t44 -97q0 -27 -3.5 -84t-6.5 -100l-4 -44l-59 4v215q0 64 -86 64v-290h-71l-249 174v87z" />
    <glyph glyph-name="bnG_NA" horiz-adv-x="566" 
d="M421 112v390l-137 29q-3 1 -11.5 3t-14.5 3t-15.5 3t-17.5 3.5t-16.5 3t-16 2t-12.5 0.5q-15 0 -34.5 -26.5t-19.5 -35.5q0 -8 4.5 -13t14.5 -9.5t21 -7.5t28.5 -8.5t31.5 -11.5q19 -8 30 -15t16.5 -15t10.5 -21t9.5 -35.5t4.5 -43.5q0 -44 -137 -111l-23 -11l-32 51
q3 2 7 4.5t16.5 10.5t24 15.5t25.5 17.5t24 18.5t17 16t7 12.5q0 11 -2 18t-8 13.5t-17 11.5q-13 6 -38.5 14t-43 14.5t-36 16.5t-28 23.5t-9.5 31.5q0 25 24.5 68.5t41.5 57.5q26 22 69 22q42 0 102.5 -15.5t99.5 -30.5l40 -15v76l-8 65h41l26 -66h91v-63h-78v-641h-72v111
q-16 6 -41 15t-81.5 24.5t-88 15.5t-51 -23.5t-19.5 -54.5q0 -21 15 -45.5t24.5 -33t15.5 -13.5l-36 -43q-2 1 -5.5 3.5t-13 10.5t-18 17t-19.5 22.5t-18.5 27t-13 30.5t-5.5 33q0 62 45 103q25 22 51 31t63 9q32 0 84 -16.5t75 -26.5t37 -17z" />
    <glyph glyph-name="bnG_MA" horiz-adv-x="750" 
d="M619 573h-126v-526q61 -23 70 -23q16 0 36 27.5t20 45.5v476zM692 573v-478q0 -36 -39 -90t-73 -54q-20 0 -159.5 51t-151.5 51q-13 0 -29 -15.5t-16 -40.5q0 -11 14 -26t27 -24l14 -9l-25 -42q-50 20 -67 33q-36 27 -36 65q0 51 35.5 92t69.5 41q8 0 21 -3t28 -7.5
t31.5 -10t31 -11t26.5 -10t19 -7.5l8 -3v427l-137 29q-3 1 -11.5 3t-14.5 3t-15.5 3t-17.5 3.5t-16.5 3t-16 2t-12.5 0.5q-4 0 -9 -2t-9.5 -6.5t-9.5 -10t-9.5 -12t-8 -13.5t-6.5 -13.5t-4.5 -13t-1.5 -11.5q0 -12 13.5 -19.5t48.5 -18.5t51 -17q28 -11 39 -21.5t18 -29.5
q5 -13 11.5 -44.5t6.5 -52.5q0 -19 -41.5 -51.5t-82.5 -54.5l-42 -23l-32 51l77 55q48 37 48 49q0 19 -6 33.5t-21 20.5q-13 5 -43 16q-92 33 -115 58q-12 15 -12 30q0 37 25.5 87t44.5 65q26 22 69 22q42 0 102.5 -15.5t99.5 -30.5l40 -15v75l-8 66h41l26 -66h278v-63h-66z
" />
    <glyph glyph-name="bnG_LA" horiz-adv-x="590" 
d="M442 140v362l-137 29q-3 1 -8 2t-9 2l-10 2.5t-11.5 2.5t-12 2t-12 2t-11.5 2t-11 2t-10 1h-9q-15 0 -34.5 -26.5t-19.5 -35.5q0 -6 3.5 -11t9.5 -8.5t16 -7t20 -6.5t24.5 -7.5t26.5 -9.5t20 -9t14 -8t10 -9.5t7 -11t6 -13.5q5 -13 9.5 -35.5t4.5 -43.5q0 -44 -137 -111
l-23 -11l-32 51q3 2 7 4.5t16.5 10.5t24 15.5t25.5 17.5t24 18.5t17 16t7 12.5q0 11 -2 18t-8 13.5t-17 11.5q-13 6 -38.5 14t-43 14.5t-36 16.5t-28 23.5t-9.5 31.5q0 25 24.5 68.5t41.5 57.5q26 22 69 22q42 0 102.5 -15.5t99.5 -30.5l40 -15v75l-8 66h41l26 -66h99v-63
h-86v-605h-72v92q0 1 -0.5 2t-1.5 4t-2.5 6t-5.5 6.5t-9 6t-13.5 4t-18.5 1.5q-11 0 -19.5 -1t-15 -4t-11 -5t-8 -8.5t-5.5 -9.5t-4 -14t-3 -15t-2.5 -19t-2.5 -21h-62q0 63 -12.5 80t-63.5 17q-35 0 -52.5 -13t-17.5 -51q0 -16 3.5 -36.5t6.5 -33.5l4 -13l-50 -17
q-35 58 -35 120q0 40 12 66t35.5 36t42 13t48.5 3q53 0 80 -14t33 -50q5 36 27.5 47.5t68.5 11.5q11 0 20.5 -2t15 -4.5t10 -5.5t6.5 -5z" />
    <glyph glyph-name="bnGH_NA" horiz-adv-x="600" 
d="M536 -149h-73v108q-16 8 -42.5 19.5t-85.5 31t-90.5 19.5t-51.5 -23.5t-20 -53.5q0 -12 17 -34l37 -46l-34 -39q-29 18 -50 38q-11 10 -19 21t-13.5 22t-8.5 23t-3 23q0 63 46 104q23 20 47.5 29t64.5 9q32 0 87 -20.5t79.5 -33.5t39.5 -21v34l-384 185v75l188 85
q-55 0 -87 2t-67 10t-51.5 26.5t-16.5 47.5q0 23 11.5 43.5t23.5 28.5l12 9h-102v63h621v-63h-75v-722zM170 573q-8 -5 -16.5 -13t-21 -25.5t-12.5 -32.5q0 -20 35.5 -26t96.5 -6h22.5h25.5h23h17h7l21 -87l-206 -97l301 -143v430h-293z" />
    <glyph glyph-name="bnGH_LA" horiz-adv-x="625" 
d="M575 -132h-73v29q0 27 -3.5 44.5t-19.5 33t-45 15.5q-45 0 -61.5 -13.5t-24.5 -61.5l-5 -30h-62q-4 70 -25 87.5t-80 17.5q-37 0 -51.5 -15.5t-14.5 -63.5q0 -12 3.5 -32.5t6.5 -34.5l4 -15l-50 -17q-37 69 -37 119q0 133 136 133q69 0 98.5 -11.5t43.5 -58.5
q11 40 35.5 53t78.5 13q25 0 43.5 -7t23.5 -14l6 -7v29l-384 185v75l188 85q-55 0 -87 2t-67 10t-51.5 26.5t-16.5 47.5q0 23 12 43.5t23 28.5l12 9h-141v63h644v-63h-59v-705zM209 573q-8 -5 -16.5 -13t-21 -25.5t-12.5 -32.5q0 -20 35.5 -26t96.5 -6h22.5h25.5h23h17h7
l21 -87l-206 -97l301 -143v430h-293z" />
    <glyph glyph-name="bnNG_GA" horiz-adv-x="710" 
d="M67 424l-14 54q101 38 199 38q42 0 73 -23t31 -62q0 -37 -31 -87l-42 -68l256 164h103l5 -49l-78 -24l-58 -435h-71l55 389l-370 -227l-26 53l53 53l103 154q29 41 29 66q0 15 -11 22t-31 7q-45 0 -175 -25zM647 573q-67 -65 -95 -85q-12 -9 -23.5 -14.5t-22 -8
t-20.5 -2.5q-22 0 -65.5 27.5t-77 55t-32.5 27.5h-325v63h735v-63h-74zM561 573h-154q7 -5 18 -12.5t33.5 -20t31.5 -12.5q4 0 7.5 1t7.5 3z" />
    <glyph glyph-name="bnNG_KH" horiz-adv-x="1020" 
d="M414 636q45 0 64.5 -23t19.5 -69q0 -47 -16.5 -72.5t-68.5 -25.5h-122v-50q117 16 159 16q21 0 39.5 -3.5t26.5 -6.5l8 -4q16 14 40.5 20t41.5 4l16 -1l12 -40q-18 -6 -46 -20q-21 -10 -21 -28q0 -7 9 -24q4 -7 6 -10t8 -6t16 -3q16 0 62.5 19t65.5 19q31 0 41 -27
q44 -117 44 -124l-182 -80l241 -91v630l-5 66h44l23 -66h89v-63h-78v-641h-73l-321 124v79l179 79q-1 2 -2 5.5t-4.5 11.5t-4.5 12q-5 12 -14 12q-7 0 -27 -7.5t-44.5 -14.5t-43.5 -7q-15 0 -25.5 3t-13.5 5t-16 12q-34 -59 -141 -101q-56 -22 -104 -22q-40 0 -83 21t-73 70
q-33 54 -57 110.5t-31 85.5l-8 29l47 19q55 -107 100 -188q42 -76 108 -76q27 0 68 16q127 49 127 105q0 26 -62 27h-204v179q0 14 2 27t4 19l2 6h-246v63h424zM291 505h105q47 0 47 37q0 26 -12 34.5t-66 8.5q-49 0 -61.5 -12t-12.5 -68z" />
    <glyph glyph-name="bnNG_GH" horiz-adv-x="1075" 
d="M660 573q-49 -76 -49 -101q0 -17 8 -26q6 -7 25.5 -11t43 -5t57.5 -1h38.5h40.5h16l21 -87l-206 -117l301 -143v491h-296zM595 573h-100q3 -10 3 -29q0 -54 -15.5 -76t-69.5 -22h-122v-50q117 16 159 16q56 0 84.5 -25t28.5 -66q0 -106 -163 -176q-52 -22 -104 -22
q-40 0 -83 21t-73 70q-33 54 -57 110.5t-31 85.5l-8 29l47 19q55 -107 100 -188q42 -76 108 -76q27 0 68 16q127 49 127 105q0 26 -62 27h-204v179q0 14 2 27t4 19l2 6h-246v63h1095v-63h-56v-573h-73l-384 185v75l198 105h-50q-137 0 -169 43q-13 18 -13 43q0 52 57 122z
M291 505h105q47 0 47 37q0 32 -10 37.5t-68 5.5q-49 0 -61.5 -12t-12.5 -68z" />
    <glyph glyph-name="bnNG_K_SS" horiz-adv-x="1430" 
d="M1081 446v127h-97v-99q0 -28 28 -28h69zM1081 377q-39 0 -61.5 1.5t-50.5 12.5t-40 32q-10 17 -10.5 54.5t3.5 66.5l4 29h-145q31 -28 31 -55q0 -9 -5 -21t-9 -20l-5 -8q92 -54 111 -84q5 -7 5.5 -19t-2 -23.5t-6 -22t-5.5 -17.5l-3 -6l188 -76v156zM-10 637l1450 -1v-63
h-286v-127h126q59 0 90.5 -32t30.5 -78t-28 -91q-11 -19 -32 -44.5t-36 -41.5l-15 -16l-49 31l66 100q27 39 17.5 71t-56.5 32h-114v-377h-73v158q-238 78 -289 95q-18 7 -28.5 3t-22.5 -24q-22 -37 3 -59l67 -61l-31 -42q-52 24 -86 56q-36 34 -39 66.5t24 77.5
q22 36 42.5 47.5t45.5 11.5q8 0 23 -3.5t26 -6.5l11 -3q1 1 2 3.5t3.5 9.5t3.5 13t1 13t-3 12q-4 7 -38.5 24.5t-72.5 34t-60 24.5q-28 10 -41 -13q-14 -25 7 -44l38 -37l-23 -39q-29 14 -65 42q-53 41 -12 109q33 58 71 58q13 0 35.5 -7.5t38.5 -14.5l16 -8q13 19 13 35
q0 7 -6.5 17.5t-12.5 17.5l-6 7h-221q3 -10 3 -29q0 -54 -15.5 -76t-69.5 -22h-122v-50q117 16 159 16q56 0 84.5 -25t28.5 -66q0 -106 -163 -176q-52 -22 -104 -22q-40 0 -83 21t-73 70q-33 54 -57 110.5t-31 85.5l-8 29l47 19q55 -107 100 -188q42 -76 108 -76q27 0 68 16
q127 49 127 105q0 26 -62 27h-204v179q0 14 2 27t4 19l2 6h-246v64zM291 505h105q47 0 47 37q0 32 -10 37.5t-68 5.5q-49 0 -61.5 -12t-12.5 -68z" />
    <glyph glyph-name="bnNG_MA" horiz-adv-x="750" 
d="M762 636v-63h-69v-488q0 -36 -39 -88t-73 -52q-20 0 -140 52t-132 52q-13 0 -29 -15.5t-16 -40.5q0 -11 14 -26t28 -24l13 -9l-25 -42q-50 20 -67 33q-36 27 -36 65q0 51 35.5 92t69.5 41q-40 0 -83 21t-73 70q-33 54 -57 110.5t-31 85.5l-8 29l47 19q55 -107 100 -188
q42 -76 108 -76q27 0 68 16q127 49 127 105q0 26 -62 27h-204v179q0 14 2 27t4 19l2 6h-246v63h772zM620 573h-125q3 -10 3 -29q0 -54 -15.5 -76t-69.5 -22h-122v-50q117 16 159 16q56 0 84.5 -25t28.5 -66q0 -51 -37.5 -93.5t-85.5 -66t-104 -37.5q208 -106 228 -106
q16 0 36 27.5t20 45.5v482zM291 505h105q47 0 47 37q0 32 -10 37.5t-68 5.5q-49 0 -61.5 -12t-12.5 -68z" />
    <glyph glyph-name="bnC_CA" horiz-adv-x="960" 
d="M137 464v-160q0 -47 15 -71t50 -24q38 0 91 24t95 72q35 40 35 67q0 7 -1 13t-4.5 10.5t-6 7.5t-9 6t-10 5t-11.5 4t-11.5 2.5t-13.5 2t-13 2.5zM510 405v-239q0 -31 6 -51.5t20.5 -32t38.5 -11.5q28 0 70 21.5t85.5 58.5t69.5 78q30 46 30 78q0 5 -0.5 9.5t-2 8.5t-3 7
t-5 5.5t-5.5 4.5t-6.5 3.5l-7.5 2.5t-9 2.5t-9 2.5t-10 2l-45 9t-49.5 9.5t-49.5 9.5t-46 9t-37 7t-26 4zM64 573h-74v63h982v-63h-462v-110q72 -8 109 -12q144 -17 172 -22q110 -19 110 -117q0 -39 -25 -86q-49 -92 -140 -159t-163 -67q-26 0 -49 8t-43 25.5t-32 49.5
t-12 76v98q-50 -58 -117 -90.5t-122 -32.5q-56 0 -95 37.5t-39 121.5v280zM137 573v-57q72 -8 109 -12q12 -1 28.5 -3t24.5 -3l20 -2.5t18 -2.5t14 -2t12.5 -1.5t9.5 -1.5t9 -1.5t8 -1.5q7 -1 13 -2.5t10.5 -3t8.5 -2.5t6.5 -2t4.5 -2t3 -1h1v101h-300z" />
    <glyph glyph-name="bnC_CHA" horiz-adv-x="1000" 
d="M689 344q20 17 20 41q0 19 -14 30t-25 13.5t-41 7.5l-137 24v-140q1 -29 16 -41.5t33 -12.5q54 0 148 78zM133 464v-160q0 -47 15 -71t50 -24q38 0 91 24t95 72q35 40 35 67q0 7 -1 13t-4.5 10.5t-6 7.5t-9 6t-10 5t-11.5 4t-11.5 2.5t-13.5 2t-13 2.5zM432 256
q-48 -55 -114.5 -88.5t-123.5 -33.5q-56 0 -95 37.5t-39 121.5v280h-70v63h1022v-63h-520v-57q88 -12 146 -20q123 -18 183 -32q58 -14 87 -40t29 -79q0 -31 -12 -98q-4 -22 -31.5 -45.5t-63 -40.5t-71.5 -31t-59.5 -21t-24.5 -7l246 -99l-16 -47q-235 66 -331 118v72
q11 3 29.5 7.5t66 19.5t84.5 30t69.5 36.5t37.5 41.5q6 25 6 59q0 21 -8.5 31.5t-36.5 20.5l-46 13q0 -2 1 -4.5t2 -9t1 -10.5q0 -44 -59 -92q-112 -91 -188 -91q-31 0 -56.5 14.5t-34.5 29.5zM419 477v96h-286v-57q72 -8 109 -12q15 -2 35.5 -4.5t30 -3.5t22.5 -2.5
t19.5 -2.5t14 -2t12.5 -2l10 -2z" />
    <glyph glyph-name="bnC_NYA" horiz-adv-x="965" 
d="M129 464v-160q0 -47 15 -71t50 -24q38 0 91 24t95 72q35 40 35 67q0 7 -1 13t-4.5 10.5t-6 7.5t-9 6t-10 5t-11.5 4t-11.5 2.5t-13.5 2t-13 2.5zM273 150q-2 -1 -5 -2t-12 -3.5t-18.5 -5t-22.5 -4t-25 -1.5q-56 0 -95 37.5t-39 121.5v280h-66v63h987v-63h-848v-57
q71 -8 109 -12q57 -6 76.5 -8.5t36 -5t31.5 -5.5q26 -5 45 -12.5t25 -12.5l6 -6q3 3 8 6.5t20.5 13.5t30.5 17.5t36 13.5t40 6q33 0 59.5 -8.5t41.5 -21t25 -25t13 -20.5l4 -9q27 6 64 6q60 0 84.5 -19t24.5 -89q0 -21 -1.5 -33t-9.5 -24t-24 -15q39 -8 39 -81
q0 -62 -25.5 -80.5t-82.5 -18.5l-60 4v-77h-74v76q-12 -9 -32.5 -21.5t-73 -33.5t-93.5 -21q-106 0 -173 98q-5 7 -11.5 20t-10.5 22.5zM335 179l15 -25q49 -82 125 -82q36 0 85 20t80 40l31 20v214q0 35 -21.5 55t-59.5 20q-22 0 -48 -10.5t-41 -20.5l-15 -10
q5 -52 -21 -94q-24 -39 -56.5 -71t-53.5 -44zM745 135h48q21 0 30.5 1.5t17.5 12t8 31.5q0 23 -10 31.5t-41 8.5h-9v62h9q29 0 40 7t11 28q0 36 -11 43.5t-55 7.5h-38v-233z" />
    <glyph glyph-name="bnC_NA" horiz-adv-x="575" 
d="M159 464v-160q0 -47 15 -71t50 -24q38 0 91 24t95 72q35 40 35 67q0 7 -1 13t-4.5 10.5t-6 7.5t-9 6t-10 5t-11.5 4t-11.5 2.5t-13.5 2t-13 2.5zM475 277v-405h-73v101q-17 8 -43 19.5t-85 31t-90.5 19.5t-51.5 -23.5t-20 -53.5q0 -12 17 -34l37 -46l-34 -39
q-29 18 -50 38q-44 41 -44 89q0 63 46 104q23 20 47.5 29t64.5 9q32 0 87 -20.5t79.5 -33.5t39.5 -21v163q-4 -3 -10 -8t-26.5 -17t-40.5 -21t-49 -16.5t-56 -7.5q-56 0 -95 37.5t-39 121.5v280h-96v63h598v-63h-429v-57q72 -8 109 -12q2 0 5 -1q70 -7 94.5 -10.5t44.5 -7.5
q55 -11 80 -33.5t25 -65.5q0 -40 -22 -80z" />
    <glyph glyph-name="bnC_CH_BA" horiz-adv-x="1000" 
d="M697 18l-181 -72l181 -126v198zM689 344q20 17 20 41q0 19 -14 30t-25 13.5t-41 7.5l-137 24v-140q1 -29 16 -41.5t33 -12.5q54 0 148 78zM133 464v-160q0 -47 15 -71t50 -24q38 0 91 24t95 72q35 40 35 67q0 7 -1 13t-4.5 10.5t-6 7.5t-9 6t-10 5t-11.5 4t-11.5 2.5
t-13.5 2t-13 2.5zM419 477v96h-286v-57q72 -8 109 -12q15 -2 35.5 -4.5t30 -3.5t22.5 -2.5t19.5 -2.5t14 -2t12.5 -2l10 -2zM770 -1v-261h-73l-249 174v81l158 65l-32 16v72q11 3 29.5 7.5t66 19.5t84.5 30t69.5 36.5t37.5 41.5q6 25 6 59q0 21 -8.5 31.5t-36.5 20.5l-46 13
q0 -2 1 -4.5t2 -9t1 -10.5q0 -44 -59 -92q-112 -91 -188 -91q-31 0 -56.5 14.5t-34.5 29.5l-10 14q-49 -55 -115 -88.5t-123 -33.5q-56 0 -95 37.5t-39 121.5v280h-70v63h1022v-63h-520v-57q88 -12 146 -20q123 -18 183 -32q58 -14 87 -40t29 -79q0 -29 -12 -98
q-6 -36 -68.5 -72t-122.5 -55l-59 -18l246 -99l-16 -47z" />
    <glyph glyph-name="bnC_CH_RA" horiz-adv-x="1000" 
d="M689 344q20 17 20 41q0 19 -14 30t-25 13.5t-41 7.5l-137 24v-140q1 -29 16 -41.5t33 -12.5q54 0 148 78zM133 464v-160q0 -47 15 -71t50 -24q38 0 91 24t95 72q35 40 35 67q0 7 -1 13t-4.5 10.5t-6 7.5t-9 6t-10 5t-11.5 4t-11.5 2.5t-13.5 2t-13 2.5zM419 477v96h-286
v-57q72 -8 109 -12q15 -2 35.5 -4.5t30 -3.5t22.5 -2.5t19.5 -2.5t14 -2t12.5 -2l10 -2zM686 26v-178h-73v84q-19 -9 -49.5 -23t-103.5 -37.5t-119 -23.5q-33 0 -56.5 2.5t-64.5 24t-69 62.5t-59 144l47 22l62 -103q52 -81 138 -81q40 0 114 25.5t107 41t53 25.5v44
q-19 8 -39 19v72q11 3 29.5 7.5t66 19.5t84.5 30t69.5 36.5t37.5 41.5q6 25 6 59q0 21 -8.5 31.5t-36.5 20.5l-46 13q0 -2 1 -4.5t2 -9t1 -10.5q0 -44 -59 -92q-112 -91 -188 -91q-31 0 -56.5 14.5t-34.5 29.5l-10 14q-48 -55 -114 -88.5t-124 -33.5q-56 0 -95 37.5
t-39 121.5v280h-70v63h1022v-63h-520v-57q88 -12 146 -20q123 -18 183 -32q58 -14 87 -40t29 -79q0 -18 -12 -98q-3 -22 -30 -45t-63.5 -40.5t-72 -31t-59.5 -20.5l-25 -8l246 -99l-16 -47q-124 35 -219 70z" />
    <glyph glyph-name="bnJ_JA" horiz-adv-x="1255" 
d="M550 129q38 -51 100 -126q25 -30 40 -46t40 -31t50 -15q41 0 89 40q49 41 74 72.5t25 55.5q0 9 -3.5 15.5t-11 10.5t-16 6.5t-21 3.5t-23.5 1.5t-26 0.5q-24 0 -63 -2.5t-65 -4.5l-27 -2v222q0 41 -11.5 62t-46.5 31l-276 70v-117q50 6 88 6q30 0 57 -3t55.5 -10.5
t45.5 -23.5t17 -39q0 -20 -5 -40.5t-13 -37t-18 -32.5t-19.5 -28t-17.5 -21t-13 -13zM500 80q-14 -11 -32.5 -21.5t-45 -19.5t-49.5 -9q-80 0 -170 101q-55 62 -94.5 122t-52.5 89l-12 30l45 25q92 -121 154 -196q25 -30 40 -46t40 -31t50 -15q41 0 89 40q99 83 99 128
q0 13 -7.5 21t-23.5 11.5t-31 4.5t-39 1t-63 -2.5t-65 -4.5l-27 -2v267h-320v63h1287v-63h-894v-18q178 -29 264 -56q24 -8 32 -10.5t28.5 -10t28 -12.5t21 -14.5t19 -19t10 -22.5t4.5 -29v-24q201 -37 287 -64l9 -3q28 -9 42.5 -14t36 -15.5t32 -21t18.5 -27t8 -37.5
q0 -20 -6 -44l-101 -345h-70q69 246 96 338q21 71 -53 93l-299 78v-117q50 6 88 6q30 0 57 -3t55.5 -10.5t45.5 -23.5t17 -39q0 -37 -11.5 -69t-42 -70.5t-83.5 -83.5q-26 -22 -61 -37.5t-70 -15.5q-79 0 -170 101q-32 35 -59.5 72t-38.5 56z" />
    <glyph glyph-name="bnJ_JH" horiz-adv-x="995" 
d="M688 53l-180 -72l180 -126v198zM761 120v-157l105 -43v653h-488v-18q211 -37 297 -64l9 -3q18 -5 27 -8t24.5 -9t24 -10.5t20 -11.5t17.5 -14t12.5 -16.5t9 -21t2.5 -24.5q0 -10 -1.5 -21t-4.5 -23zM684 129q30 102 56 193q20 72 -53 93l-309 78v-117q50 6 88 6
q30 0 57 -3t55.5 -10.5t45.5 -23.5t17 -39q0 -33 -13 -66t-44.5 -73t-83.5 -85q-26 -22 -59 -37t-68 -15q-80 0 -170 101q-55 62 -94.5 122t-52.5 89l-12 30l45 25q92 -121 154 -196q26 -31 40 -46.5t39.5 -31.5t50.5 -16q39 0 89 42q99 83 99 128q0 13 -7.5 21t-23.5 11.5
t-31 4.5t-39 1t-63 -2.5t-65 -4.5l-27 -2v267h-320v63h1024v-63h-70v-773h-73v54l-105 36v-117h-73l-249 174v81z" />
    <glyph glyph-name="bnJ_JA_BA" horiz-adv-x="1245" 
d="M1134 38l-181 -72l181 -126v198zM525 123q33 -45 95 -120q26 -31 40 -46.5t39.5 -31.5t50.5 -16q36 0 86 42q51 42 76.5 73t25.5 55q0 13 -7.5 21t-23.5 11.5t-31 4.5t-39 1t-63 -2.5t-65 -4.5l-27 -2v222q0 20 -0.5 28.5t-2.5 21.5t-7 19.5t-14.5 13t-23.5 10.5l-276 70
v-117q50 6 88 6q30 0 57 -3t55.5 -10.5t45.5 -23.5t17 -39q0 -27 -10.5 -56t-23 -49.5t-29 -41t-23 -27t-10.5 -9.5zM1013 66l121 50v7q0 39 -15.5 60.5t-51.5 32.5l-312 79v-117q50 5 88 5q175 0 175 -75q0 -8 -0.5 -15t-1.5 -11.5t-1.5 -8t-1.5 -5.5v-2zM910 -86
q-20 -19 -33 -30q-60 -52 -127 -52q-79 0 -170 101q-32 35 -58.5 71t-37.5 54l-11 18q-10 -8 -22.5 -15.5t-28 -15t-34 -11.5t-35.5 -4q-80 0 -170 101q-55 62 -94.5 122t-52.5 89l-12 30l45 25q92 -121 154 -196q26 -31 40 -46.5t39.5 -31.5t50.5 -16q39 0 89 42
q99 83 99 128q0 13 -7.5 21t-23.5 11.5t-31 4.5t-39 1t-63 -2.5t-65 -4.5l-27 -2v267h-300v63h1270v-63h-897v-18q178 -29 264 -56q28 -9 43 -14.5t35.5 -15.5t30 -21t17 -28t7.5 -39v-24q214 -38 300 -65q27 -9 45 -15.5t40 -17.5t35.5 -22t22.5 -27.5t9 -35.5v-416h-73z
" />
    <glyph glyph-name="bnNY_CA" horiz-adv-x="760" 
d="M391 453v183h73v-152q82 13 119 13q56 0 85.5 -24t29.5 -98v-3q0 -31 -8.5 -49.5t-36.5 -22.5q44 -8 44 -87v-4q0 -65 -30.5 -87.5t-83.5 -22.5l-119 10v-109h-73l-335 203v81l267 140q-34 42 -94 96q-11 10 -20.5 13t-19 0t-19.5 -14q-28 -28 -33 -44q-3 -8 0.5 -15.5
t12.5 -15.5l32 -27l-27 -41q-65 32 -79 55q-18 28 -6 65q6 21 30.5 49.5t42.5 41.5q59 41 110 1q28 -22 62.5 -56t54.5 -56zM464 171h116q43 0 43 42v5q0 28 -11 38.5t-39 10.5h-26v60h26q28 0 39 10.5t11 38.5v6q0 42 -41 42h-118v-253zM391 90v285l-256 -133z" />
    <glyph glyph-name="bnNY_CH" horiz-adv-x="790" 
d="M323 558q54 85 100 91q38 5 85 -33l9.5 -7.5t12.5 -10.5t12.5 -11t13 -13t10.5 -13t9 -15t4.5 -15t0.5 -15.5t-7 -14.5q8 5 16 8.5t15 3.5t14 -0.5t14.5 -4t13.5 -7t13 -9.5t13 -11t13 -12q35 -35 50 -60t10 -53t-35 -59q-8 -8 -17 -16.5t-17 -15.5t-15.5 -13
t-13.5 -10.5t-10.5 -8t-7.5 -4.5l-2 -2q-7 -30 -19 -78q-7 -26 -43 -46t-70 -27l-33 -7l208 -110l-22 -48q-169 62 -305 139l20 71q3 1 9 1.5t24 4t34 7t36.5 9t35.5 11.5t27 14t14 16q9 28 12 45q3 16 -6.5 28.5t-33.5 33.5q-6 5 -9 7q-2 -20 -31 -49t-68 -53
q-64 -39 -133 -45q-35 -2 -66 13t-47 40.5t-18 58t20 64.5l118 178q-2 1 -5 4.5t-19.5 17.5t-39.5 32q-19 14 -29 15.5t-30 -10.5q-10 -8 -23.5 -22t-15.5 -20q-6 -14 10 -33l29 -30l-32 -37l-43 31q-23 19 -29 31q-15 30 0 66q9 20 36 46t46 36q24 13 46 13.5t35 -5.5
t29 -18q10 -7 21.5 -16.5t21 -17.5t17.5 -15t13 -11zM376 261q13 8 22 14.5t17 13t12.5 11.5t7.5 11t4 11q-1 6 0.5 8t-1.5 7t-2.5 6.5t-3 6.5t-4 6t-5 6t-5.5 6t-5.5 6t-5.5 6q-6 6 -26.5 22.5t-38.5 30.5l-17 13q-3 -4 -8 -12t-18.5 -29.5t-25 -39.5t-24.5 -37.5
t-19 -29.5q-17 -25 -12.5 -41.5t19.5 -25.5t35 -9q46 0 104 39zM607 297q1 1 3 2.5t7.5 6t10.5 9t11 9.5t10 10q10 9 15 17.5t4.5 17t-2.5 15t-8 14t-10.5 11.5t-11.5 11q-20 17 -33.5 22.5t-27 0.5t-30.5 -23l-48 39q14 18 19.5 30.5t0.5 23.5t-12 18t-25 21q-5 4 -7 5.5
t-8 5.5t-10 6t-9.5 4t-10.5 1t-10 -3q-9 -5 -24 -24t-26 -36l-11 -16q101 -81 150 -121q15 -13 30.5 -25.5t26 -21.5t19 -16t12.5 -10z" />
    <glyph glyph-name="bnNY_JA" horiz-adv-x="865" 
d="M753 351q2 -1 6 -3.5t13.5 -11t16.5 -18.5t13 -25.5t6 -31.5q0 -20 -6 -44l-90 -305h-71q64 220 86 298q10 35 -3 55.5t-50 37.5l-296 118l-20 -109q54 2 92 2q30 0 59.5 -3.5t61.5 -13t51.5 -28.5t19.5 -46q0 -52 -30 -93.5t-113 -114.5q-9 -8 -20.5 -15.5t-24.5 -14.5
t-27 -12t-29.5 -8t-29.5 -3q-41 0 -81 22t-86 75q-55 62 -94.5 122t-52.5 89l-12 30l45 25q92 -121 154 -196q24 -29 38.5 -44.5t39 -29.5t49.5 -14q41 0 89 40q99 83 99 128q0 8 -5.5 14t-17 10t-22.5 6t-29 3t-28.5 1h-29.5h-6l-145 -3l40 226q-3 2 -9 5t-27 13t-47 18
q-20 9 -33.5 7.5t-24.5 -19.5q-24 -40 -25 -52q-2 -16 19 -28l36 -20l-18 -45q-69 19 -88 38q-22 21 -19 63q1 21 19.5 53t34.5 50q14 15 28 23t29.5 8t25.5 -2t25 -7q11 -3 25 -8.5t25.5 -10.5t21.5 -9.5t15 -7.5l6 -2q9 34 26.5 65t36.5 39q38 16 93 -4q2 0 7 -2
q16 -6 25 -9.5t25.5 -11.5t25 -16t14.5 -21t3 -26q14 19 34.5 24t37.5 0t43 -17q33 -15 53.5 -30t32 -33t10.5 -39.5t-15 -47.5zM697 377q11 18 19 38q6 14 6.5 25.5t-3 19.5t-11.5 14.5t-15 10t-17 7.5q-35 15 -54 8.5t-35 -39.5l-58 21q5 12 6.5 22.5t1.5 18t-3 13.5
t-7 10.5t-11.5 8.5t-15 6.5t-18.5 6.5q-44 15 -58 0q-3 -4 -6.5 -10t-6.5 -13.5t-5.5 -15.5t-5 -15.5t-4 -13.5l-2.5 -10l-1 -3q122 -43 181 -64z" />
    <glyph glyph-name="bnNY_JHA" horiz-adv-x="800" 
d="M471 105l-180 -72l180 -126v198zM472 308v174q0 36 -24.5 58.5t-56.5 22.5q-30 0 -75.5 -21.5t-76.5 -42.5l-31 -21l-37 42q61 56 113 86t107 30q32 0 59 -9.5t42.5 -23.5t26 -28t14.5 -23l4 -10q43 10 85 10q57 0 83 -18t26 -80q0 -21 -1.5 -32t-9.5 -22t-24 -14
q39 -8 39 -70q0 -20 -3.5 -36t-8.5 -25.5t-10.5 -16t-8.5 -8.5l-4 -3v-366h-71v52l-85 29v-117h-73l-249 174v81l250 103v49q-4 -3 -10.5 -8.5t-27 -19t-41.5 -23.5t-50.5 -18.5t-55.5 -8.5q-98 0 -170 105q-39 57 -65 144l41 21l71 -109q30 -48 64 -67.5t62 -19.5
q36 0 81.5 20t72.5 40zM629 211l-85 5v-201l85 -35v231zM545 281h70q29 0 39 7t10 36q0 21 -11.5 26.5t-47.5 5.5v56q33 0 46 6t13 28q0 28 -8.5 33.5t-50.5 5.5h-60v-204z" />
    <glyph glyph-name="bnTT_TTA" horiz-adv-x="650" 
d="M528 246q2 -4 5.5 -10.5t11.5 -25t12 -35t3 -35.5t-11 -32q-63 -80 -186 -116q-48 -14 -83 -14q-41 0 -77.5 13.5t-72.5 55.5q-18 21 -38.5 58.5t-31.5 64.5l-12 26l45 24q43 -59 79 -110q41 -58 102 -58q31 0 72 12.5t81 35.5t61 50q5 9 2.5 20.5t-7.5 21.5l-6 9
q-4 -2 -10 -7t-26 -16.5t-39 -20t-46 -16t-51 -7.5q-56 0 -95 37.5t-39 121.5v280h-184v63h490q0 28 -6 42.5t-19.5 20.5t-38.5 6h-293l-4 53q245 14 303 14q66 0 97 -36.5t31 -99.5h116v-63h-419v-269q0 -47 15 -71t50 -24q33 0 87.5 28t92.5 68q43 45 43 76q0 46 -114 46
h-65l-6 54q83 8 118 8q66 0 102 -29t36 -79q0 -40 -30 -82q-10 -14 -21.5 -27.5t-17.5 -19.5z" />
    <glyph glyph-name="bnTT_MA" horiz-adv-x="675" 
d="M625 573v-477q0 -36 -39 -88t-76 -52q-20 0 -150.5 52t-142.5 52q-13 0 -29 -15.5t-16 -40.5q0 -11 14 -26t28 -24l13 -9l-25 -42q-50 20 -67 33q-36 27 -36 65q0 51 35.5 92t69.5 41q-56 0 -95 37.5t-39 121.5v280h-83v63h413q0 24 -1.5 38.5t-6 29.5t-15.5 21.5
t-28 6.5h-305l-4 54l309 14h6q115 0 115 -164h217v-63h-62zM552 573h-409v-269q0 -47 15 -71t50 -24q33 0 87.5 28t92.5 68q43 45 43 76q0 46 -114 46h-65l-6 54q83 8 118 8q66 0 102 -29t36 -79q0 -40 -30 -82q-46 -64 -107.5 -105.5t-126.5 -58.5q238 -106 258 -106
q16 0 36 27.5t20 45.5v471z" />
    <glyph glyph-name="bnNN_TTA" horiz-adv-x="860" 
d="M340 580v56h250q0 96 -64 96h-272l-4 54q214 14 282 14q44 0 74 -25.5t42 -61t12 -77.5h213v-63h-460v-404q0 -49 12 -72t47 -23q45 0 109.5 39.5t103.5 99.5q30 46 30 78q0 46 -58 46h-98l-6 60q89 6 123 6q52 0 81 -30t29 -77q0 -30 -22 -82q-40 -93 -135 -153.5
t-161 -60.5q-55 0 -91.5 37t-36.5 122v347q-3 1 -8 3t-20.5 6.5t-30 8.5t-34 7t-34.5 3q-33 0 -62 -37t-29 -68q0 -24 24.5 -60t48.5 -60l25 -24l-36 -40q-53 31 -91 73q-13 14 -23 30.5t-16.5 37t-6.5 40.5q0 36 23 80t47 65q8 6 15 11t13.5 9t13.5 6.5t14 4.5t14.5 3
t14.5 1.5t16 0.5q25 0 55 -7t49 -13z" />
    <glyph glyph-name="bnN_TTA" horiz-adv-x="855" 
d="M368 374q-126 45 -186 45q-21 0 -37.5 -11.5t-24 -29t-7.5 -37.5q0 -9 2 -17.5t6 -15.5q8 -13 20 -28.5t23.5 -28t22 -23.5t17 -17l6.5 -6l-31 -46q-75 52 -95 73q-46 48 -46 117q0 64 44 103q23 21 49 30.5t65 9.5q27 0 70 -11.5t73 -23.5l29 -12v128h-378v63h602
q0 44 -15 70t-49 26h-305l-4 54q247 14 315 14q44 0 74 -25.5t42 -61t12 -77.5h206v-63h-427v-404q0 -49 12 -72t47 -23q45 0 109.5 39.5t103.5 99.5q30 46 30 78q0 46 -58 46h-98l-6 60q89 6 123 6q52 0 81 -30t29 -77q0 -30 -22 -82q-40 -93 -135 -153.5t-161 -60.5
q-55 0 -91.5 37t-36.5 122v215z" />
    <glyph glyph-name="bnP_TTA" horiz-adv-x="1035" 
d="M447 466q-28 28 -50 45q-48 37 -83 37q-24 0 -65 -25q-11 -7 -27.5 -19t-28.5 -21l-11 -8l109 -140zM770 636q0 96 -64 96h-272l-4 54q214 14 282 14q27 0 49 -9.5t36.5 -25.5t24.5 -37.5t14 -44t4 -47.5h213v-63h-470v-404q0 -49 12 -72t47 -23q45 0 109.5 39.5
t103.5 99.5q30 46 30 78q0 46 -58 46h-98l-6 60q89 6 123 6q52 0 81 -30t29 -77q0 -30 -22 -82q-40 -93 -135 -153.5t-161 -60.5q-55 0 -91.5 37t-36.5 122v253l-12 11l-195 -166l-45 7l-136 177l-46 -31l-32 44q91 85 171 131q62 36 96 36q42 0 88 -32q23 -16 51 -39.5
t44 -39.5l16 -15v141h260z" />
    <glyph glyph-name="bnPH_TTA" horiz-adv-x="825" 
d="M612 636h226v-63h-725q39 -3 104 -31q35 -15 50 -40t11 -47t-18 -38q-8 -9 -33.5 -24t-46.5 -25l-22 -11l195 -86v245h159q48 0 82.5 -34.5t34.5 -88.5q0 -34 -26 -71l-31 -40l-50 25q37 62 37 87q0 27 -21.5 44t-55.5 17h-56v-387q0 -49 12 -72t47 -23q33 0 90.5 28.5
t95.5 68.5q35 37 35 76q0 46 -58 46h-98l-6 60q88 6 123 6q50 0 80 -29t30 -78t-28 -87q-56 -77 -133.5 -121t-134.5 -44q-55 0 -91.5 37t-36.5 122v131l-286 127v75q80 38 110 54q50 26 0 46q-122 48 -124 48l11 34h-74v63h552q-2 96 -65 96h-305l-4 53q247 14 315 14
q44 0 74.5 -25t42 -60t12.5 -78z" />
    <glyph glyph-name="bnL_TTA" horiz-adv-x="980" 
d="M765 636h232v-63h-427v-404q0 -49 12 -72t47 -23q45 0 109.5 39.5t103.5 99.5q30 46 30 78q0 46 -58 46h-98l-6 60q89 6 123 6q52 0 81 -30t29 -77q0 -30 -22 -82q-40 -93 -135 -153.5t-161 -60.5q-55 0 -91.5 37t-36.5 122v138q0 27 -3.5 44.5t-19.5 33t-45 15.5
q-45 0 -61.5 -13.5t-24.5 -61.5l-5 -30h-62q-4 71 -22.5 88t-76.5 17q-38 0 -54 -16t-16 -63q0 -12 3 -32.5t6 -34.5l3 -14l-50 -18q-37 69 -37 119q0 133 142 133q68 0 95 -11.5t41 -58.5q11 40 35.5 53t78.5 13q25 0 43.5 -7t24.5 -14l5 -7v141h-509v63h707q-2 96 -65 96
h-305l-4 53q247 14 315 14q44 0 74.5 -25t42 -60t12.5 -78z" />
    <glyph glyph-name="bnSS_TTA" horiz-adv-x="840" 
d="M590 636q0 96 -64 96h-272l-4 54q214 14 282 14q44 0 74 -25.5t42 -61t12 -77.5h196v-63h-418q34 -72 34 -102q0 -31 -18.5 -107t-37.5 -137l-18 -61q-11 -45 7.5 -68.5t57.5 -23.5q48 0 111.5 40.5t101.5 98.5q30 46 30 78q0 46 -58 46h-98l-6 60q88 6 123 6
q56 0 90 -28.5t34 -77.5q0 -41 -24 -84q-41 -74 -101 -124.5t-111.5 -69.5t-95.5 -19q-67 0 -109.5 43.5t-19.5 129.5l35 129q-10 -4 -54 -2t-93 6.5t-96.5 21t-64.5 39.5q-9 12 -12.5 30.5t-2.5 37.5t4.5 39t9 37.5t10 31.5t8.5 22l3 8h-91v63h604zM119 505
q-1 -3 -2.5 -8.5t-5 -20t-5 -27t-1 -25.5t4.5 -19q6 -9 32 -15.5t58.5 -10t64.5 -6t53 -2.5l22 -1zM385 422q17 26 17 48q0 12 -8 38t-17 45l-8 20h-228l-6 -14z" />
    <glyph glyph-name="bnS_TTA" horiz-adv-x="995" 
d="M721 636q0 96 -64 96h-272l-4 54q214 14 282 14q44 0 74 -25.5t42 -61t12 -77.5h219v-63h-427v-404q0 -49 12 -72t47 -23q45 0 109.5 39.5t103.5 99.5q30 46 30 78q0 46 -58 46h-98l-6 60q89 6 123 6q52 0 81 -30t29 -77q0 -30 -22 -82q-40 -93 -135 -153.5t-161 -60.5
q-55 0 -91.5 37t-36.5 122v171q-18 0 -72.5 23t-99.5 47l-46 23q-5 -11 -14.5 -28t-36.5 -45t-51 -28q-28 0 -64 13t-58 27l-23 13l19 48q69 -23 114 -23q17 0 43.5 43t44.5 87l18 43h-298v63h735zM510 573h-149l-40 -91q146 -72 189 -72v163z" />
    <glyph glyph-name="bnNN_TT_RA" horiz-adv-x="835" 
d="M591 636q-2 96 -65 96h-272l-4 54q214 14 282 14q34 0 59.5 -14.5t40 -38.5t22 -52t7.5 -59h183v-63h-431v-404q0 -49 12 -72t47 -23q45 0 109.5 39.5t103.5 99.5q30 46 30 78q0 46 -58 46h-98l-6 60q89 6 123 6q52 0 81 -30t29 -77t-42 -121v-327h-73v84q-13 -9 -35 -23
t-79.5 -37.5t-102.5 -23.5q-34 0 -57.5 2.5t-65 24t-69.5 62.5q-37 54 -70 165l42 22l82 -131q45 -72 141 -72q40 0 93.5 21.5t87.5 43.5l33 22v84q-12 -10 -32.5 -25.5t-74 -41t-96.5 -25.5q-55 0 -91.5 37t-36.5 122v347q-3 1 -8 3t-20.5 6.5t-30 8.5t-34 7t-34.5 3
q-33 0 -62 -37t-29 -68q0 -24 24.5 -60t48.5 -60l25 -24l-36 -40q-53 31 -91 73q-13 14 -23 30.5t-16.5 37t-6.5 40.5q0 36 23 80t47 65q8 6 15 11t13.5 9t13.5 6.5t14 4.5t14.5 3t14.5 1.5t16 0.5q25 0 55 -7t49 -13l18 -7v56h251z" />
    <glyph glyph-name="bnN_TT_RA" horiz-adv-x="855" 
d="M662 636h206v-63h-427v-404q0 -49 12 -72t47 -23q45 0 109.5 39.5t103.5 99.5q30 46 30 78q0 46 -58 46h-98l-6 60q89 6 123 6q52 0 81 -30t29 -77q0 -44 -41 -119v-329h-73v84q-13 -9 -35 -23t-79.5 -37.5t-102.5 -23.5q-34 0 -57.5 2.5t-65 24t-69.5 62.5
q-37 54 -70 165l42 22l82 -131q45 -72 141 -72q40 0 93.5 21.5t86.5 43.5l34 22v85q-12 -10 -32.5 -25.5t-74.5 -41.5t-97 -26q-56 0 -92 37t-36 122v215q-126 45 -186 45q-21 0 -37.5 -11.5t-24 -29t-7.5 -37.5q0 -9 2 -17.5t6 -15.5q8 -13 20 -28.5t23.5 -28t22 -23.5
t17 -17l6.5 -6l-31 -46q-75 52 -95 73q-46 48 -46 117q0 64 44 103q23 21 49 30.5t65 9.5q27 0 70 -11.5t73 -23.5l29 -12v128h-378v63h602q0 44 -15 70t-49 26h-305l-4 54q247 14 315 14q44 0 74 -25.5t42 -61t12 -77.5z" />
    <glyph glyph-name="bnL_TT_RA" horiz-adv-x="980" 
d="M765 636h232v-63h-427v-404q0 -49 12 -72t47 -23q45 0 109.5 39.5t103.5 99.5q30 46 30 78q0 46 -58 46h-98l-6 60q89 6 123 6q52 0 81 -30t29 -77q0 -44 -40 -117v-331h-73v84q-13 -9 -35 -23t-79.5 -37.5t-102.5 -23.5q-34 0 -57.5 2.5t-65 24t-69.5 62.5
q-37 54 -70 165l42 22l82 -131q45 -72 141 -72q40 0 93.5 21.5t86.5 43.5l34 22v86q-5 -4 -13 -10t-32 -22.5t-47.5 -29t-55 -22.5t-57.5 -10q-55 0 -91.5 37t-36.5 122v138q0 27 -3.5 44.5t-19.5 33t-45 15.5q-45 0 -61.5 -13.5t-24.5 -61.5l-5 -30h-62q-4 71 -22.5 88
t-76.5 17q-38 0 -54 -16t-16 -63q0 -12 3 -32.5t6 -34.5l3 -14l-50 -18q-37 69 -37 119q0 133 142 133q68 0 95 -11.5t41 -58.5q11 40 35.5 53t78.5 13q25 0 43.5 -7t24.5 -14l5 -7v141h-509v63h707q-2 96 -65 96h-305l-4 53q247 14 315 14q44 0 74.5 -25t42 -60t12.5 -78z
" />
    <glyph glyph-name="bnSS_TT_RA" horiz-adv-x="840" 
d="M119 505q-1 -3 -2.5 -8.5t-5 -20t-5 -27t-1 -25.5t4.5 -19q6 -9 32 -15.5t58.5 -10t64.5 -6t53 -2.5l22 -1zM385 422q17 26 17 48q0 12 -8 38t-17 45l-8 20h-228l-6 -14zM660 636h196v-63h-418q34 -72 34 -102q0 -31 -18.5 -107t-37.5 -137l-18 -61q-11 -45 7.5 -68.5
t57.5 -23.5q48 0 111.5 40.5t101.5 98.5q30 46 30 78q0 46 -58 46h-98l-6 60q88 6 123 6q56 0 90 -28.5t34 -77.5q0 -48 -40 -111v-338h-73v84q-13 -9 -35 -23t-79.5 -37.5t-102.5 -23.5q-34 0 -57.5 2.5t-65 24t-69.5 62.5q-37 54 -70 165l42 22l82 -131q45 -72 141 -72
q40 0 93.5 21.5t86.5 43.5l34 22v90q-4 -4 -11.5 -10.5t-31.5 -23.5t-48.5 -30t-59.5 -23.5t-67 -10.5q-67 0 -110 43.5t-20 129.5l35 129q-10 -4 -54 -2t-93 6.5t-96.5 21t-64.5 39.5q-9 12 -12.5 30.5t-2.5 37.5t4.5 39t9 37.5t10 31.5t8.5 22l3 8h-91v63h604q0 96 -64 96
h-272l-4 54q214 14 282 14q44 0 74 -25.5t42 -61t12 -77.5z" />
    <glyph glyph-name="bnS_TT_RA" horiz-adv-x="995" 
d="M510 573h-149l-40 -91q146 -72 189 -72v163zM791 636h219v-63h-427v-404q0 -49 12 -72t47 -23q45 0 109.5 39.5t103.5 99.5q30 46 30 78q0 46 -58 46h-98l-6 60q89 6 123 6q52 0 81 -30t29 -77q0 -45 -41 -119v-329h-73v84q-13 -9 -35 -23t-79.5 -37.5t-102.5 -23.5
q-34 0 -57.5 2.5t-65 24t-69.5 62.5q-37 54 -70 165l42 22l82 -131q45 -72 141 -72q40 0 93.5 21.5t86.5 43.5l34 22v85q-4 -4 -12 -10t-31.5 -22t-47 -28.5t-55 -22.5t-58.5 -10q-55 0 -91.5 37t-36.5 122v167q-18 0 -72.5 24t-99.5 48l-46 25q-5 -11 -14.5 -28t-36.5 -45
t-51 -28q-28 0 -64 13t-58 27l-23 13l19 48q69 -23 114 -23q17 0 43.5 43t44.5 87l18 43h-298v63h735q0 96 -64 96h-272l-4 54q214 14 282 14q44 0 74 -25.5t42 -61t12 -77.5z" />
    <glyph glyph-name="bnDD_DDA" horiz-adv-x="1050" 
d="M345 573v-107q48 12 108 12q58 0 81.5 -28t23.5 -68q0 -23 -9.5 -48.5t-18.5 -39.5l-10 -14q54 -82 80 -113q18 -22 29.5 -34.5t29 -27.5t35 -22t36.5 -7q43 0 87 39q116 101 116 185q0 56 -74 56q-24 0 -78.5 -4t-97.5 -8l-43 -4v233h-295zM272 573h-286v63h1077v-63
h-350v-161q84 16 152 16q66 0 102.5 -34.5t36.5 -82.5q0 -138 -152 -265q-16 -14 -35 -24t-42.5 -16t-47.5 -6q-81 0 -167 97q-18 20 -40.5 51.5t-36 52.5l-13.5 21q-8 -8 -21.5 -19t-49.5 -30t-65 -19q-45 0 -83 21.5t-83 75.5q-27 32 -49 68t-31 56l-8 20l40 28
q37 -50 101 -132q51 -65 103 -65q47 0 105 52t58 94q0 19 -9 28.5t-38 9.5q-24 0 -66 -3t-72 -7l-30 -3v176z" />
    <glyph glyph-name="bnDD_MA" horiz-adv-x="730" 
d="M681 573v-445q0 -43 -41.5 -91.5t-73.5 -48.5q-20 0 -150.5 52t-142.5 52q-13 0 -29 -15.5t-16 -40.5q0 -11 14 -25.5t28 -24.5l13 -9l-25 -42q-50 20 -67 33q-36 27 -36 65q0 46 33 88.5t66 42.5q-47 13 -108 87q-27 32 -49 68t-31 56l-8 20l40 28q37 -50 101 -132
q51 -65 103 -65q47 0 105 52t58 94q0 19 -9 28.5t-38 9.5q-24 0 -66 -3t-72 -7l-30 -3v176h-264v63h759v-63h-64zM608 573h-285v-107q48 12 108 12q58 0 81.5 -28t23.5 -68q0 -70 -72 -144.5t-141 -83.5q209 -93 229 -93q16 0 36 27.5t20 45.5v439z" />
    <glyph glyph-name="bnDDx_GA" horiz-adv-x="1060" 
d="M914 502l-137 29q-82 18 -104 18q-16 0 -37 -30.5t-21 -51.5q0 -12 14 -19.5t47.5 -18t51.5 -17.5q28 -11 39 -21.5t18 -29.5q5 -12 11.5 -44t6.5 -53q0 -19 -41.5 -51.5t-82.5 -54.5l-42 -23l-32 51l77 55q47 37 48 49q0 19 -6 33.5t-21 20.5q-10 4 -25 9t-27.5 9.5
t-28 10.5t-27.5 11.5t-24 12.5t-20 14.5t-13 17t-5 19.5q0 37 25.5 87t44.5 65q26 22 69 22q42 0 102.5 -15.5t99.5 -30.5l40 -15v75l-8 66h41l26 -66h101v-63h-88v-573h-72v502zM312 154q-40 0 -78.5 19t-87.5 78q-26 32 -48 68t-31 56l-9 20l40 28q37 -50 101 -132
q51 -65 103 -65q47 0 105 52t58 94q0 19 -9 28.5t-38 9.5q-24 0 -66 -3t-72 -7l-30 -3v176h-264v63h548v-63h-211v-107q48 12 108 12q58 0 81.5 -28t23.5 -68q0 -72 -78 -150t-146 -78zM241 20v57q0 9 5.5 15t15.5 6h53q21 0 21 -21v-57q-1 -19 -21 -20h-53q-6 0 -11 2.5
t-7.5 7t-2.5 10.5z" />
    <glyph glyph-name="bnDD_GA" horiz-adv-x="1090" 
d="M952 502l-137 29q-82 18 -104 18q-16 0 -37 -30.5t-21 -51.5q0 -12 14 -19.5t47.5 -18t51.5 -17.5q28 -11 39 -21.5t18 -29.5q5 -12 11.5 -44t6.5 -53q0 -19 -41.5 -51.5t-82.5 -54.5l-42 -23l-32 51l77 55q47 37 48 49q0 6 -0.5 10.5t-1.5 10t-3 10.5t-5 9.5t-7 8
t-10 5.5q-12 5 -40 14.5t-47 17t-40 18.5t-32 24.5t-11 29.5q0 37 25.5 87t44.5 65q26 22 69 22q42 0 102.5 -15.5t99.5 -30.5l40 -15v75l-8 66h41l26 -66h87v-63h-74v-573h-72v502zM596 636v-63h-249v-161q84 16 152 16q45 0 77 -17t47 -43t15 -57q0 -138 -152 -265
q-16 -14 -35 -24t-42.5 -16t-47.5 -6q-81 0 -167 97q-109 124 -166 285q-3 10 -5 16l47 18q103 -174 164 -249q24 -29 39.5 -45.5t40.5 -31t50 -14.5q43 0 87 39q116 101 116 185q0 56 -74 56q-15 0 -43 -1.5t-57.5 -4t-56.5 -5t-45 -3.5l-17 -2v233h-289v63h611z" />
    <glyph glyph-name="bnN_DDA" horiz-adv-x="779" 
d="M374 399l-27 9t-46.5 14.5t-62 15.5t-50.5 6q-11 0 -20.5 -3t-17 -8.5t-13.5 -13t-10 -16.5t-6 -18.5t-2 -18.5q0 -8 4 -17t10 -17l38 -43l-31 -46q-33 22 -54 42t-31.5 42.5t-10.5 46.5q0 64 44 103q23 21 49 30.5t65 9.5q10 0 22 -1.5t24.5 -4t25.5 -6t25 -7.5t23.5 -8
t20.5 -7.5t16 -6.5t11 -4l4 -2v103h-389v63h807v-63h-345v-161q84 16 152 16q45 0 77 -17t47 -43t15 -57q0 -138 -152 -265q-56 -46 -125 -46q-38 0 -81.5 22.5t-85.5 74.5q-14 18 -29 42t-25.5 45.5t-19 40.5t-12.5 30l-4 11l47 22q3 -5 8.5 -14.5t27 -41.5t47.5 -65
q34 -43 64 -67t66 -24q43 0 87 39q116 101 116 185q0 56 -74 56q-24 0 -78.5 -4t-97.5 -8l-43 -4v59z" />
    <glyph glyph-name="bnN_DD_RA" horiz-adv-x="779" 
d="M725 229v-381h-73v84q-15 -9 -40.5 -23t-88.5 -37.5t-108 -23.5q-34 0 -57.5 2.5t-65 24t-69.5 62.5q-37 54 -70 165l42 22l82 -131q45 -72 141 -72q40 0 102.5 25.5t89 41t42.5 25.5v97q-8 -14 -66 -64q-54 -46 -125 -46q-38 0 -81.5 22.5t-85.5 74.5q-14 18 -29 42
t-25.5 45.5t-19 40.5t-12.5 30l-4 11l47 22q3 -5 8.5 -14.5t27 -41.5t47.5 -65q34 -43 64 -67t66 -24q43 0 87 39q116 101 116 185q0 56 -74 56q-24 0 -78.5 -4t-97.5 -8l-43 -4v59l-27 9t-46.5 14.5t-62 15.5t-50.5 6q-11 0 -20.5 -3t-17 -8.5t-13.5 -13t-10 -16.5
t-6 -18.5t-2 -18.5q0 -8 4 -17t10 -17l38 -43l-31 -46q-33 22 -54 42t-31.5 42.5t-10.5 46.5q0 64 44 103q23 21 49 30.5t65 9.5q10 0 22 -1.5t24.5 -4t25.5 -6t25 -7.5t23.5 -8t20.5 -7.5t16 -6.5t11 -4l4 -2v103h-389v63h807v-63h-345v-161q84 16 152 16q45 0 77 -17
t47 -43t15 -57q0 -21 -3 -41.5t-7 -30.5z" />
    <glyph glyph-name="bnL_DDA" horiz-adv-x="910" 
d="M504 340q0 27 -3.5 44.5t-19.5 33t-45 15.5q-45 0 -61.5 -13.5t-24.5 -61.5l-5 -30h-62q-4 71 -22.5 88t-76.5 17q-38 0 -54 -16t-16 -63q0 -12 3 -32.5t6 -34.5l3 -14l-50 -18q-37 69 -37 119q0 133 142 133q68 0 95 -11.5t41 -58.5q11 40 35.5 53t78.5 13q25 0 43.5 -7
t23.5 -14l6 -7v98h-519v63h937v-63h-345v-161q84 16 152 16q45 0 77 -17t47 -43t15 -57q0 -138 -152 -265q-56 -46 -125 -46q-24 0 -49.5 8t-57.5 31t-60 58q-23 29 -45.5 71t-33.5 70l-11 28l47 22q3 -5 8.5 -14.5t27 -41.5t47.5 -65q34 -43 64 -67t66 -24q43 0 87 39
q116 101 116 185q0 56 -74 56q-52 0 -218 -16h-1z" />
    <glyph glyph-name="bnL_DD_RA" horiz-adv-x="910" 
d="M716 46q-54 -46 -125 -46q-24 0 -49.5 8t-57.5 31t-60 58q-23 29 -45.5 71t-33.5 70l-11 28l47 22q3 -5 8.5 -14.5t27 -41.5t47.5 -65q34 -43 64 -67t66 -24q43 0 87 39q116 101 116 185q0 56 -74 56q-52 0 -218 -16h-1q0 27 -3.5 44.5t-19.5 33t-45 15.5
q-45 0 -61.5 -13.5t-24.5 -61.5l-5 -30h-62q-4 71 -22.5 88t-76.5 17q-38 0 -54 -16t-16 -63q0 -12 3 -32.5t6 -34.5l3 -14l-50 -18q-37 69 -37 119q0 133 142 133q68 0 95 -11.5t41 -58.5q11 40 35.5 53t78.5 13q25 0 43.5 -7t23.5 -14l6 -7v98h-519v63h937v-63h-345v-161
q84 16 152 16q20 0 37 -3.5t31 -9.5t25.5 -14.5t20 -18.5t14 -21.5t8.5 -24t3 -25.5t-1 -25.5t-3 -21.5t-4 -16.5t-3 -10.5l-1 -4v-385h-73v84q-15 -9 -40.5 -23t-88.5 -37.5t-108 -23.5q-34 0 -57.5 2.5t-65 24t-69.5 62.5q-37 54 -70 165l42 22l82 -131q45 -72 141 -72
q40 0 98.5 23t96.5 46l39 23v98q-7 -13 -67 -65z" />
    <glyph glyph-name="bnNN_DDA" horiz-adv-x="625" 
d="M346 506q-3 2 -8 6.5t-20 15t-29 18t-32.5 14.5t-33.5 7q-30 0 -48 -20.5t-21 -39.5q-4 -17 10 -32l57 -63l-37 -41q-37 20 -72 57q-35 38 -27 90q8 47 46 82q39 36 93 36q28 0 60 -14.5t50 -28.5l18 -14l61 57q45 0 77.5 -25.5t32.5 -64.5q0 -38 -2 -63q0 -5 -1.5 -23.5
t-2.5 -27t-3 -22.5t-6 -22t-10 -12q31 -10 55 -57t24 -84q0 -45 -34.5 -93.5t-102.5 -88.5q-47 -28 -101 -28q-66 0 -117.5 24t-98.5 93q-11 17 -30.5 55t-32.5 68l-14 30l42 25l84 -116q15 -21 21 -28.5t23.5 -26.5t32 -27t38.5 -16t50 -8q50 0 110 52q53 46 53 96
q0 24 -24 55.5t-53 31.5h-125v64h103q19 0 28.5 11t12.5 24t5 42q2 23 2 42q0 12 -2.5 21.5t-6.5 14t-7.5 7.5t-5.5 4h-3z" />
    <glyph glyph-name="bnNN_DD_RA" horiz-adv-x="690" 
d="M490 53q-45 -28 -101 -28q-66 0 -117.5 24t-98.5 93q-11 17 -30.5 55t-32.5 68l-14 30l42 25l84 -116q19 -26 28 -37t30.5 -31t47.5 -29t59 -9q50 0 110 52q53 46 53 96q0 24 -24 55.5t-53 31.5h-125v64h103q19 0 28.5 11t12.5 24t5 42q2 23 2 42q0 12 -2.5 21.5t-6.5 14
t-7.5 7.5t-5.5 4h-3l-78 -57q-3 2 -8 6.5t-20 15t-29 18t-32.5 14.5t-33.5 7q-30 0 -48 -20.5t-21 -39.5q-4 -17 10 -32l57 -63l-37 -41q-37 20 -72 57q-35 38 -27 90q4 23 14.5 42.5t31.5 39.5q39 36 93 36q28 0 60 -14.5t50 -28.5l18 -14l61 57q45 0 77.5 -25.5
t32.5 -64.5q0 -38 -2 -63q0 -5 -1.5 -23.5t-2.5 -27t-3 -22.5t-6 -22t-10 -12q31 -10 55 -57t24 -84v-384h-73v84q-15 -9 -39.5 -23t-86.5 -37.5t-107 -23.5q-34 0 -57.5 2.5t-65 24t-69.5 62.5q-37 54 -70 165l42 22l82 -131q45 -72 141 -72q40 0 101.5 25.5t87.5 41
t41 25.5v84q-19 -19 -64 -47z" />
    <glyph glyph-name="bnNN_TTH" horiz-adv-x="745" 
d="M378 486q-4 2 -11.5 5t-29.5 11.5t-42.5 14.5t-47 11.5t-46.5 5.5q-23 0 -45 -18.5t-34 -42.5t-12 -44q0 -46 66 -113q1 -2 2 -3l-36 -40q-45 25 -76 67t-31 86q0 37 23 80.5t47 64.5q25 21 47.5 28.5t53.5 7.5q26 0 59 -7.5t53 -15.5l20 -8q-2 8 -3.5 20.5t7 44.5
t32.5 56q25 25 61.5 55t60.5 47l24 17l32 -37q-97 -90 -128 -121q-5 -5 -9 -10.5t-5 -8.5l-2 -3h345v-63h-343q0 -18 29.5 -50.5t72 -70t85 -76.5t72 -80t29.5 -71t-23.5 -69.5t-59.5 -74t-84 -58t-92 -23.5q-38 0 -80.5 34.5t-74 81.5t-52 93t-20.5 70q114 55 150 95
q34 38 34 70q0 10 -4.5 20.5t-9.5 15.5zM625 222q0 12 -17.5 35.5t-42.5 49t-50 49t-42 38.5l-18 15q0 -29 -36 -71q-19 -22 -50.5 -46t-52.5 -36l-22 -13q3 -7 9 -18.5t24 -40.5t35 -51t40.5 -40.5t43.5 -18.5q54 0 116.5 58t62.5 90z" />
    <glyph glyph-name="bnN_TTH" horiz-adv-x="755" 
d="M393 382q-148 53 -212 53q-21 0 -37.5 -11.5t-24 -29t-7.5 -37.5q0 -10 1.5 -17.5t6.5 -15.5q5 -7 11.5 -15t12.5 -15t11.5 -12.5l9.5 -9.5l3 -3l-31 -46q-5 3 -12.5 9t-24.5 19.5t-27 22.5q-14 13 -22 29t-11 30.5t-3 31.5q0 64 44 103q15 14 30 22.5t36 13t48 4.5
q70 0 221 -67q0 23 -5 35t-25 37q-28 36 -28 60h-367v63h369q1 23 26 51q24 26 62.5 58t65.5 51l26 20l32 -37q-97 -90 -128 -121q-5 -5 -9 -10.5t-5 -8.5l-2 -3h338v-63h-336q0 -18 29.5 -50.5t72 -70t85 -76.5t72 -80t29.5 -71t-23.5 -69.5t-59.5 -74t-84 -58t-92 -23.5
q-38 0 -80.5 34.5t-74 81.5t-52 93t-20.5 70q125 63 161 103zM645 222q0 19 -42.5 66t-84.5 84l-43 37q0 -29 -36 -71q-19 -22 -50.5 -46t-52.5 -36l-22 -13q3 -7 9 -18.5t24 -40.5t35 -51t40.5 -40.5t43.5 -18.5q54 0 116.5 58t62.5 90z" />
    <glyph glyph-name="bnSS_TTH" horiz-adv-x="735" 
d="M125 505q-1 -3 -2.5 -8.5t-5 -20t-5 -27t-1 -25.5t4.5 -19q6 -9 32 -15.5t58.5 -10t64.5 -6t53 -2.5l22 -1zM625 222q0 12 -17.5 35.5t-42.5 49t-50 49t-42 38.5l-18 15q0 -29 -36 -71q-19 -22 -50.5 -46t-52.5 -36l-22 -13q3 -7 9 -18.5t24 -40.5t35 -51t40.5 -40.5
t43.5 -18.5q54 0 116.5 58t62.5 90zM338 573h-191l-6 -14l250 -137q3 14 3 22q0 7 -1.5 13.5t-8 17t-10 16t-15.5 22.5q-25 34 -21 60zM258 303q-6 0 -17 1t-39.5 5.5t-53 11t-49.5 18.5t-36 28q-12 17 -14 45t2 53t12.5 53t12.5 38.5t7 16.5h-97v63h354q1 23 26 51
q24 26 62.5 58t65.5 51l26 20l32 -37q-97 -90 -128 -121q-5 -5 -9 -10.5t-5 -8.5l-2 -3h338v-63h-336q0 -18 29.5 -50.5t72 -70t85 -76.5t72 -80t29.5 -71t-23.5 -69.5t-59.5 -74t-84 -58t-92 -23.5q-38 0 -80.5 34.5t-74 81.5t-52 93t-20.5 70z" />
    <glyph glyph-name="bnNN_DDHA" horiz-adv-x="830" 
d="M840 636v-63h-427v-404q0 -49 12 -72t47 -23q45 0 109.5 39.5t103.5 99.5q30 46 30 78q0 46 -58 46h-98l-6 60q89 6 123 6q52 0 81 -30t29 -77q0 -30 -22 -82q-40 -93 -135 -153.5t-161 -60.5q-55 0 -91.5 37t-36.5 122v347q-3 1 -8 3t-20.5 6.5t-30 8.5t-34 7t-34.5 3
q-33 0 -62 -37t-29 -68q0 -24 24.5 -60t48.5 -60l25 -24l-36 -40q-53 31 -91 73q-13 14 -23 30.5t-16.5 37t-6.5 40.5q0 36 23 80t47 65q8 6 15 11t13.5 9t13.5 6.5t14 4.5t14.5 3t14.5 1.5t16 0.5q25 0 55 -7t49 -13l18 -7v56h500z" />
    <glyph glyph-name="bnNN_NNA" horiz-adv-x="575" 
d="M432 229q-69 25 -119 25q-28 0 -55.5 -29t-27.5 -50q0 -24 22.5 -51t44.5 -41l22 -15l-36 -40q-58 28 -90.5 60.5t-32.5 83.5q0 19 8 42.5t21.5 44t27.5 32.5q25 21 47.5 28.5t53.5 7.5q23 0 51.5 -6t45.5 -12l17 -6v159q-3 2 -7.5 4.5t-19.5 10t-30.5 14.5t-37 15
t-41.5 14t-42.5 10.5t-40.5 4.5q-33 0 -62 -37t-29 -69q0 -24 16.5 -52.5t32 -45t16.5 -16.5l-36 -40q-47 27 -75.5 67.5t-28.5 83.5q0 36 23 80t47 65q8 6 15 11t13.5 9t13.5 6.5t14 4.5t14.5 3t14.5 1.5t16 0.5q32 0 63 -8q35 -9 72.5 -23.5t58.5 -25.5l20 -10v96l22 94
h47v-94h85v-63h-81v-573h-73v229z" />
    <glyph glyph-name="bnNN_NA" horiz-adv-x="575" 
d="M432 142q-125 44 -185 44q-32 0 -50.5 -23.5t-18.5 -54.5q1 -40 58 -99l-31 -46q-102 78 -102 153q0 64 44 103q25 22 51 31t63 9q12 0 28 -2.5t32 -6.5t32.5 -9t30.5 -10t24.5 -9t17.5 -6l6 -3v252q-2 1 -4.5 2.5t-12.5 6t-19.5 9.5t-24.5 11t-29 11.5t-31.5 11t-33 9.5
t-33 6.5t-31.5 2.5q-33 0 -62 -37t-29 -69q0 -24 16.5 -52.5t32 -45t16.5 -16.5l-36 -40q-47 27 -75.5 67.5t-28.5 83.5q0 36 23 80t47 65q8 6 15 11t13.5 9t13.5 6.5t14 4.5t14.5 3t14.5 1.5t16 0.5q32 0 63 -8q35 -9 72.5 -23.5t58.5 -25.5l20 -10v96l22 94h47v-94h85v-63
h-81v-573h-73v142z" />
    <glyph glyph-name="bnNN_MA" horiz-adv-x="750" 
d="M626 573h-121v-454q53 -24 65 -24q16 0 36 26.5t20 44.5v407zM699 573v-409q0 -35 -39 -86.5t-73 -51.5q-20 0 -127.5 39.5t-119.5 39.5q-13 0 -29 -15.5t-16 -40.5q0 -11 13.5 -26t27.5 -24l14 -9l-25 -42q-50 20 -67 33q-36 27 -36 65q0 51 35.5 92t69.5 41
q6 0 14.5 -1.5t18 -4t20 -5.5t19.5 -6.5t16.5 -6t12.5 -3.5l4 -2v312q-3 2 -7.5 4.5t-19.5 10t-30.5 14.5t-37 15t-41.5 14t-42.5 10.5t-40.5 4.5q-33 0 -62 -37t-29 -69q0 -24 24.5 -60t48.5 -60l25 -24l-36 -40q-53 31 -91 73q-13 14 -23 30.5t-16.5 37t-6.5 40.5
q0 36 23 80t47 65q8 6 15 11t13.5 9t13.5 6.5t14 4.5t14.5 3t14.5 1.5t16 0.5q32 0 63 -8q35 -9 72.5 -23.5t58.5 -25.5l20 -10v96l22 83h51v-83h261v-63h-67z" />
    <glyph glyph-name="bnT_TA" horiz-adv-x="600" 
d="M613 573h-625v63h625v-63zM481 303q3 -2 7.5 -5.5t16.5 -16.5t21 -26.5t16.5 -35t7.5 -43.5q0 -79 -112 -147q-48 -29 -99 -29q-122 0 -202 134q-31 51 -54.5 100.5t-31.5 73.5l-8 24l43 24l104 -171q67 -110 145 -110q52 0 99 39q40 34 40 63q0 23 -25 57.5t-48 34.5
h-103v64h83q28 0 35.5 9.5t10.5 45.5q3 33 -14.5 45.5t-70.5 12.5h-159l-8 50q70 20 167 20q67 0 101.5 -14t44.5 -38t10 -71q0 -32 -4 -54.5t-8 -28.5z" />
    <glyph glyph-name="bnT_T_BA" horiz-adv-x="600" 
d="M494 -270h-74l-249 174v91l250 103h73v-368zM420 -185v205l-181 -75zM613 573h-625v63h625v-63zM481 303q3 -2 7.5 -5.5t16.5 -16.5t21 -26.5t16.5 -35t7.5 -43.5q0 -79 -112 -147q-48 -29 -99 -29q-122 0 -202 134q-31 51 -54.5 100.5t-31.5 73.5l-8 24l43 24l104 -171
q67 -110 145 -110q52 0 99 39q40 34 40 63q0 23 -25 57.5t-48 34.5h-103v64h83q28 0 35.5 9.5t10.5 45.5q3 33 -14.5 45.5t-70.5 12.5h-159l-8 50q70 20 167 20q67 0 101.5 -14t44.5 -38t10 -71q0 -32 -4 -54.5t-8 -28.5z" />
    <glyph glyph-name="bnT_THA" horiz-adv-x="700" 
d="M561 86v625h46l19 -75h81v-63h-73v-573h-73l-405 231v87q5 1 13.5 3.5t33.5 10t47.5 15.5t50 20.5t47 25t33 29t13.5 32.5t1 31t1.5 25t0.5 15q0 16 -6.5 25.5t-13.5 11.5l-6 1l-78 -57q-3 2 -8 6.5t-20 15t-29 18t-32.5 14.5t-33.5 7q-13 0 -24.5 -5t-19 -12
t-13.5 -15.5t-8.5 -15t-3.5 -12.5q-1 -5 -1 -10t3 -10.5t8 -11.5l57 -63l-37 -41q-37 20 -72 57q-35 38 -27 90q8 47 46 82q39 36 93 36q28 0 60 -14.5t50 -28.5l18 -14l61 57q45 0 77.5 -25.5t32.5 -64.5q0 -5 -0.5 -20t-1.5 -30.5t-1.5 -31.5t-0.5 -23q0 -30 -23.5 -59
t-57 -48.5t-67.5 -35t-57 -22.5l-24 -7z" />
    <glyph glyph-name="bnT_NA" horiz-adv-x="665" 
d="M497 -46l-94 32q-76 23 -116 23q-32 0 -51.5 -23.5t-19.5 -54.5q0 -21 14 -44t27 -36l14 -12l-36 -43q-4 2 -10 7t-22 20.5t-28 31.5t-22.5 39.5t-10.5 45.5q0 62 45 103q13 11 25.5 18.5t26.5 12.5t29 7t33 2q32 0 84.5 -16.5t75 -26.5t36.5 -17v129q-33 -21 -58 -32
q-40 -18 -76 -18q-93 0 -193 101q-34 35 -63.5 76t-41.5 65l-12 24l37 27l130 -140q75 -81 145 -81q27 0 53 12q79 37 109 116q11 29 11 57q0 46 -32 65.5t-102 19.5h-189l-8 53q134 19 214 19q94 0 142 -46t48 -113q0 -65 -41 -141v-385h-73v123zM680 573h-691v63h691v-63z
" />
    <glyph glyph-name="bnT_MA" horiz-adv-x="765" 
d="M651 573h-662v63h788v-63h-53v-457q0 -38 -41 -90q-39 -49 -71 -50q-20 0 -130.5 44.5t-122.5 44.5q-13 0 -29 -15.5t-16 -40.5q0 -11 14 -25.5t28 -23.5l13 -10l-25 -42q-50 20 -67 33q-36 27 -36 65q0 24 12.5 51.5t24.5 42.5l13 15q-53 19 -121 88q-34 34 -63 75.5
t-41 65.5l-13 24l37 27l130 -140q75 -81 145 -81q27 0 53 12q79 37 109 116q11 29 11 57q0 46 -32 65.5t-102 19.5h-189l-8 53q134 19 214 19q94 0 142 -46t48 -113q0 -76 -51 -146t-123 -97q149 -65 161 -65q16 0 34.5 25.5t18.5 43.5v455z" />
    <glyph glyph-name="bnT_LA" horiz-adv-x="675" 
d="M690 573h-701v63h701v-63zM590 -122h-73v29q0 27 -3.5 44.5t-19.5 33t-45 15.5q-45 0 -61.5 -13.5t-24.5 -61.5l-5 -30h-62q-4 70 -25 87.5t-80 17.5q-37 0 -51.5 -15.5t-14.5 -63.5q0 -12 3.5 -32.5t7.5 -34.5l3 -15l-50 -17q-37 69 -37 119q0 133 136 133
q69 0 98.5 -11.5t43.5 -58.5q11 40 35.5 53t78.5 13q25 0 43.5 -7t24.5 -14l5 -7v112q-33 -23 -58 -34q-40 -18 -76 -18q-93 0 -193 101q-33 34 -62.5 75t-41.5 66l-13 24l37 27l130 -140q75 -81 145 -81q27 0 53 12q79 36 109 116q11 29 11 57q0 46 -32 65.5t-102 19.5
h-189l-8 53q134 19 214 19q94 0 142 -46t48 -113q0 -64 -41 -140v-339z" />
    <glyph glyph-name="bnD_GA" horiz-adv-x="915" 
d="M457 391l-56 -426h-74l52 392l-271 -119l-45 57v278h-74v63h415v-63h-267v-241l272 116q0 20 8 45t19.5 46t23 38t19.5 23q26 22 69 22q42 0 102.5 -15.5t99.5 -30.5l40 -15v75l-8 66h41l26 -66h77v-63h-64v-573h-72v502l-137 29q-82 18 -104 18q-7 0 -15 -5.5t-15.5 -15
t-13.5 -20.5t-10 -22t-4 -19q0 -12 14 -19.5t47.5 -18t51.5 -17.5q28 -11 39 -21.5t18 -29.5q5 -12 11.5 -44t6.5 -53q0 -19 -41.5 -51.5t-82.5 -54.5l-42 -23l-32 51l77 55q47 37 48 49q0 19 -5.5 34t-21.5 20q-36 12 -66.5 23.5t-42.5 17.5z" />
    <glyph glyph-name="bnD_GHA" horiz-adv-x="950" 
d="M532 573q-49 -76 -49 -101q0 -17 8 -26q6 -7 25.5 -11t43 -5t57.5 -1h38.5h40.5h16l21 -87l-187 -117l282 -143v491h-296zM456 384l-55 -419h-74l52 392l-271 -119l-45 57v278h-74v63h973v-63h-61v-573h-73l-365 185v75l179 105h-50q-43 0 -77 4.5t-47 9.5zM410 449
q0 11 3 24t8 24.5t11 23t12.5 21t11.5 16.5t8 11l3 4h-330v-241z" />
    <glyph glyph-name="bnD_NA" horiz-adv-x="555" 
d="M413 75q-15 6 -40 15t-81.5 24.5t-88 15.5t-51 -23.5t-19.5 -54.5q0 -13 5.5 -27.5t13.5 -25.5t16.5 -20t13.5 -14l6 -5l-36 -43l-31 26q-61 60 -62 118q0 62 45 103q25 22 51 31t63 9q71 0 196 -60v213l-271 -119l-45 57v278h-109v63h578v-63h-395v-241l269 116l45 -25
v-470h-73v122z" />
    <glyph glyph-name="bnD_DHA" horiz-adv-x="655" 
d="M449 141v-281h-74l-249 174v91l250 103l18 129l-271 -119l-45 56v279h-89v63h678v-63h-515v-241l279 120l45 -25l-27 -213q73 0 115 -31.5t42 -96.5q0 -27 -3.5 -84t-7.5 -100l-3 -44l-59 4v215q0 35 -21 49.5t-63 14.5zM375 -55v205l-181 -75z" />
    <glyph glyph-name="bnD_DH_BA" horiz-adv-x="655" 
d="M285 97l96 38v98l-181 -75zM211 62l-79 55v91l250 103l12 86l-271 -119l-45 56v239h-89v63h678v-63h-515v-201l279 120l45 -25l-21 -170q73 0 115 -31.5t42 -96.5q0 -27 -3.5 -84t-6.5 -101l-4 -43l-59 4v215q0 35 -20.5 49.5t-63.5 14.5v-426h-75l-239 144v91zM380 -112
v163l-157 -67z" />
    <glyph glyph-name="bnD_MA" horiz-adv-x="685" 
d="M564 573h-436v-241l269 116l45 -25v-304q54 -24 66 -24q16 0 36 26.5t20 44.5v407zM637 573v-409q0 -22 -17.5 -54.5t-44.5 -58t-50 -25.5q-20 0 -127.5 39.5t-119.5 39.5q-13 0 -29 -15.5t-16 -40.5q0 -11 13.5 -26t27.5 -24l14 -9l-25 -42q-50 20 -67 33q-36 27 -36 65
q0 51 35.5 92t69.5 41q12 0 38 -7.5t47 -14.5l20 -7v207l-271 -119l-45 57v278h-65v63h703v-63h-55z" />
    <glyph glyph-name="bnN_DA" horiz-adv-x="835" 
d="M383 444v129h-394v63h857v-63h-389v-241l279 120l45 -25l-60 -462h-74l52 392l-271 -119l-45 57v79q-127 45 -188 45q-21 0 -37.5 -11.5t-24 -29t-7.5 -37.5q0 -9 2 -17.5t6 -15.5q12 -20 34.5 -46t38.5 -41.5l16 -15.5l-31 -46q-75 52 -95 73q-46 47 -46 117
q0 64 44 103q23 21 49 30.5t65 9.5q27 0 70.5 -12t73.5 -24z" />
    <glyph glyph-name="bnN_D_RA" horiz-adv-x="815" 
d="M361 444v129h-372v63h837v-63h-391v-221l279 120l45 -25l-34 -269v-197h-72v84q-11 -9 -29.5 -23t-70.5 -37.5t-97 -23.5q-23 0 -38 1.5t-40 9t-48.5 27.5t-45.5 51q-37 54 -70 165l42 22l82 -131q16 -25 33 -41.5t34.5 -22.5t28 -7.5t25.5 -1.5q40 0 88.5 22t76.5 44
l29 22v58l24 178l-271 -119l-45 56v60q-127 45 -188 45q-21 0 -37.5 -11.5t-24 -29t-7.5 -37.5q0 -6 0.5 -11.5t2.5 -11t5 -10.5q12 -20 30 -42.5t30 -34.5l12 -12l-31 -46q-58 38 -78 59q-46 47 -46 117q0 64 44 103q23 21 49 30.5t65 9.5q59 0 174 -48z" />
    <glyph glyph-name="bnN_D_BA" horiz-adv-x="825" 
d="M680 -55v205l-181 -75zM383 363q-17 8 -38 17.5t-69 24.5t-79 15q-32 0 -52 -24t-20 -54q0 -8 4.5 -16t12.5 -18l37 -46l-34 -39q-29 18 -50 38q-14 13 -23.5 28t-14 30t-4.5 31q0 65 44 104q23 20 47.5 29t64.5 9q31 0 76.5 -15.5t64.5 -25t33 -17.5v139h-395v63h851
v-63h-382v-241l279 120l45 -25l-27 -213v-354h-74l-249 174v91l250 103l18 129l-271 -119l-45 56v69z" />
    <glyph glyph-name="bnM_DA" horiz-adv-x="895" 
d="M437 362q-24 -17 -41 -17q-20 0 -116.5 36t-108.5 36q-14 0 -30 -15t-16 -40q0 -11 12.5 -26.5t24.5 -25.5l12 -9l-25 -39q-44 20 -61 33q-36 27 -36 62q0 51 35.5 92t69.5 41q8 0 19 -2.5t18 -5.5l7 -2q1 2 2 4.5t2.5 8.5t1.5 11q0 9 -17 26.5t-33.5 30t-17.5 12.5h-149
v63h916v-63h-395v-241l279 120l45 -25l-60 -462h-74l52 392l-271 -119l-45 57v67zM437 573h-218q2 -1 6.5 -3.5t15 -10t18.5 -14.5t14.5 -17t6.5 -18q0 -11 -3 -23.5t-6 -20.5l-3 -7q98 -42 118 -42q18 0 34.5 16t16.5 34v106z" />
    <glyph glyph-name="bnL_DA" horiz-adv-x="960" 
d="M510 432v141h-521v63h984v-63h-389v-241l279 120l45 -25l-60 -462h-74l52 392l-271 -119l-45 57q0 20 -2 34t-8.5 29.5t-21 23.5t-36.5 8q-45 0 -61.5 -13.5t-24.5 -61.5l-5 -30h-62q-4 71 -22.5 88t-76.5 17q-38 0 -54 -16t-16 -63q0 -12 3 -32.5t6 -34.5l3 -14l-50 -18
q-37 69 -37 119q0 133 142 133q68 0 95 -11.5t41 -58.5q11 40 35.5 53t78.5 13q16 0 29.5 -3t21 -7t13 -8t7.5 -7z" />
    <glyph glyph-name="bnB_DA" horiz-adv-x="735" 
d="M279 312v156l-130 -55zM317 223h-38l-213 166v69l213 84v31h-291v63h754v-63h-389v-253l279 120l45 -25l-60 -462h-74l52 392z" />
    <glyph glyph-name="bnB_D_RA" horiz-adv-x="725" 
d="M279 312v156l-130 -55zM571 167l24 178l-278 -122h-38l-213 166v69l213 84v31h-291v63h754v-63h-389v-253l279 120l45 -25l-34 -269v-197h-72v84q-11 -9 -29.5 -23t-70.5 -37.5t-97 -23.5q-23 0 -38 1.5t-40 9t-48.5 27.5t-45.5 51q-37 54 -70 165l42 22l82 -131
q16 -25 33 -41.5t34.5 -22.5t28 -7.5t25.5 -1.5q40 0 88.5 22t76.5 44l29 22v58z" />
    <glyph glyph-name="bnDH_NA" horiz-adv-x="545" 
d="M407 175v279l-235 -108zM480 -113h-73v111q-16 6 -41 15.5t-81.5 25.5t-87.5 16q-16 0 -29.5 -7t-22.5 -18.5t-14 -25.5t-5 -29q0 -21 13.5 -44t27.5 -36l14 -12l-36 -43l-31 26q-60 60 -61 118q0 63 44 103q13 11 25.5 18.5t26.5 12.5t29 7t33 2q71 0 196 -60v17
l-321 239v62l122 56q-5 1 -13 4.5t-28.5 14.5t-36 23.5t-28.5 33t-13 41.5q0 40 23.5 77.5t59.5 37.5q24 0 53 -6t46 -12l17 -6l-10 -42q-52 10 -83 10q-21 0 -32 -16.5t-11 -40.5q0 -20 32.5 -41.5t65.5 -32.5l32 -12l125 56v106l-4 66h44l23 -66h87v-63h-77v-686z" />
    <glyph glyph-name="bnD_DA" horiz-adv-x="725" 
d="M404 485v-179l225 97l45 -25l-53 -410h-74l45 340l-217 -96l-45 57v144l-219 -97l-45 57v200h-77v63h749v-63h-598v-163l225 97z" />
    <glyph glyph-name="bnD_BHA" horiz-adv-x="700" 
d="M457 216l28 200l-271 -119l-45 56v220h-180v63h723v-63h-469v-182l279 120l45 -25l-31 -242q31 0 67 -45t36 -80q0 -50 -48.5 -101.5t-122.5 -89.5q-59 -30 -114 -30q-108 0 -223 138q-36 44 -78 111l42 31l91 -100q94 -103 165 -103q45 0 92 25q49 26 82.5 56.5
t33.5 58.5q0 13 -13.5 29.5t-27.5 16.5q-9 0 -34 -17t-63 -34t-77 -17q-80 0 -111.5 23t-31.5 88q0 56 27 78q14 11 26.5 13.5t40.5 2.5q15 0 39 -2.5t40 -4.5l16 -3l-6 -54h-86q-9 0 -14 -2t-7.5 -7t-3 -9t-0.5 -12q0 -27 14.5 -34t62.5 -7q17 0 44 13.5t45 26.5z" />
    <glyph glyph-name="bnD_D_BA" horiz-adv-x="735" 
d="M574 -104v205l-181 -75zM593 308l-218 -96l-45 57v144l-219 -97l-45 57v200h-77v63h759v-63h-608v-163l225 97l39 -22v-179l226 97l45 -25l-27 -213v-354h-74l-249 174v91l250 103z" />
    <glyph glyph-name="bnD_BH_RA" horiz-adv-x="665" 
d="M599 130v-249h-75v84q-16 -10 -42.5 -23.5t-91 -37t-109.5 -23.5q-19 0 -31 0.5t-36.5 5t-43.5 13.5t-41.5 26.5t-39.5 43.5q-37 53 -70 165l42 22l82 -131q10 -16 22.5 -28t26 -19.5t26.5 -12.5t26 -7t22.5 -3t17.5 -1q40 0 105 24.5t92.5 39.5t44.5 25v50q0 8 -6 18.5
t-16 19t-19 8.5q-8 0 -26 -10.5t-37 -23.5t-49.5 -23.5t-61.5 -10.5q-54 0 -84 9t-44.5 33.5t-14.5 68.5q0 56 27 78q14 11 26.5 13.5t40.5 2.5q10 0 23 -1t25.5 -2.5t23 -3l17.5 -2.5l6 -1l-6 -54h-86q-9 0 -14 -2t-7.5 -7t-3 -9t-0.5 -12q0 -28 14.5 -34.5t62.5 -6.5
q17 0 44 13t45 27l18 13l31 221l-271 -119l-45 56v220h-180v63h723v-63h-469v-182l279 120l45 -25l-34 -263q28 0 62 -39.5t34 -53.5z" />
    <glyph glyph-name="bnDH_MA" horiz-adv-x="720" 
d="M397 175v279l-235 -108zM668 573v-486q0 -36 -39 -90t-73 -54q-20 0 -159 51t-152 51t-29 -16t-16 -40q1 -25 55 -59l-25 -42q-50 20 -67 33q-36 27 -36 65q0 50 35.5 91.5t69.5 41.5q37 0 165 -52v17l-321 239v62l122 56q-5 1 -13 4.5t-28.5 14.5t-36 23.5t-28.5 33
t-13 41.5q0 40 23.5 77.5t59.5 37.5q24 0 53 -6t46 -12l17 -6l-10 -42q-52 10 -83 10q-21 0 -32 -16.5t-11 -40.5q0 -20 32.5 -41.5t65.5 -32.5l32 -12l125 56v106l-4 66h44l23 -66h273v-63h-65zM595 573h-125v-534l66 -23h3q17 0 36.5 27.5t19.5 45.5v484z" />
    <glyph glyph-name="bnN_THA" horiz-adv-x="600" 
d="M429 426q12 0 23 9.5t16.5 22t5.5 22.5q0 16 -7.5 39t-14.5 39l-8 15h-458v63h624v-63h-100q37 -57 37 -95q0 -25 -26.5 -64t-48.5 -46q4 0 9.5 -1t21 -9t27 -21t21 -40.5t9.5 -64.5q0 -27 -22 -53t-54 -43t-64 -30t-54 -19l-22 -6l228 -124l-25 -47q-217 86 -309 149
l7 70q5 1 13.5 3t34 9t48 14.5t50.5 18.5t48 21.5t34 23t14 24.5q0 16 -4.5 27t-10.5 16.5t-18.5 8t-21 3t-25.5 0.5h-10h-145l-8 60q68 14 137 14q-140 51 -204 51q-32 0 -50.5 -24t-18.5 -55q0 -16 12.5 -37.5t20 -30.5t12.5 -14l-31 -45q-89 66 -89 136q0 63 44 103
q25 22 51 31t63 9q34 0 87.5 -17.5t97.5 -35t53 -17.5z" />
    <glyph glyph-name="bnN_TH_RA" horiz-adv-x="694" 
d="M308 59l7 70q5 1 13.5 2.5t34 6.5t48 11t50.5 14.5t48 18t34 21t14 23.5q0 22 -4.5 34t-19 17t-25.5 6t-41 1h-145l-8 57q68 14 137 14q-16 8 -41 19t-80 30t-83 19q-32 0 -50.5 -24t-18.5 -55t45 -82l-31 -45q-40 30 -64.5 64.5t-24.5 71.5q0 63 44 103q25 22 51 31
t63 9q34 0 87.5 -17.5t97.5 -35t53 -17.5q20 0 32.5 18t12.5 36q0 16 -7.5 39.5t-14.5 38.5l-8 15h-524v63h714v-63h-124q37 -57 37 -95q0 -25 -26.5 -64t-48.5 -46q4 0 9.5 -1t21 -9t27 -21t21 -40.5t9.5 -64.5q0 -27 -22 -53t-54 -43t-64 -30t-54 -19l-22 -6l228 -124
l-25 -47l-23 9v-147h-73v84q-5 -3 -13 -9t-33 -20.5t-49.5 -25.5t-58.5 -20t-63 -9q-34 0 -57.5 2.5t-65 24t-69.5 62.5q-37 54 -70 165l42 22l82 -131q45 -72 141 -72q25 0 56.5 9t58.5 21.5t49.5 25.5t36 22l13.5 9v19q-113 45 -213 108z" />
    <glyph glyph-name="bnN_TA" horiz-adv-x="675" 
d="M485 381q6 -1 16 -2.5t35 -12t44.5 -25.5t35.5 -46t16 -70q0 -53 -18 -89q-83 -167 -230 -167q-92 0 -193 102q-33 34 -62.5 75t-42.5 66l-12 24l37 27l130 -140q75 -81 145 -81q30 0 58 13q58 27 86.5 76.5t28.5 95.5t-32 65.5t-102 19.5h-169l-8 53q119 19 162 19
q-16 8 -41 20t-79 32.5t-81 20.5q-15 0 -27 -4.5t-20.5 -12.5t-13 -19t-4.5 -23q0 -35 45 -82l-31 -45q-86 64 -86 133q0 55 42 92q35 31 91 31q37 0 93 -21.5t99 -43t47 -21.5q21 0 40 25.5t19 42.5q0 12 -6.5 28t-13.5 26l-7 10h-486v63h696v-63h-144q34 -36 34 -66
t-31.5 -75t-59.5 -51z" />
    <glyph glyph-name="bnN_DHA" horiz-adv-x="675" 
d="M401 243l-181 -72l181 -126v198zM401 391q-7 2 -18.5 6.5t-43 15t-59.5 18.5t-60 14.5t-52 6.5q-21 0 -37.5 -11.5t-24 -29t-7.5 -37.5q0 -9 3.5 -21t8.5 -18l47 -55l-32 -47q-43 29 -64 49q-18 16 -28 44.5t-10 55.5q0 64 44 103q15 14 30 22.5t36 13t48 4.5
q70 0 219 -66v114h-411v63h696v-63h-213v-250q71 0 115 -31t44 -97q0 -27 -3.5 -84t-6.5 -101l-4 -43l-59 4v215q0 64 -86 64v-290h-71l-249 174v87l248 102v68z" />
    <glyph glyph-name="bnN_NA" horiz-adv-x="530" 
d="M477 573v-600h-73v123q-16 6 -41 15t-81 24.5t-88 15.5t-51.5 -23.5t-19.5 -54.5q0 -21 14 -44t27 -36l14 -12l-36 -43l-31 26q-61 60 -62 118q0 62 45 103q13 11 25.5 18.5t26.5 12.5t29 7t33 2q70 0 196 -60v225q-18 7 -47 17t-92 27t-94 17q-21 0 -37.5 -11.5t-24 -29
t-7.5 -37.5q0 -9 3.5 -21t8.5 -18l47 -55l-32 -47q-43 29 -64 49q-12 11 -21 28.5t-13 36t-4 35.5q0 64 44 103q23 21 49 30.5t65 9.5q71 0 219 -66v115h-414v63h553v-63h-66z" />
    <glyph glyph-name="bnN_MA" horiz-adv-x="740" 
d="M602 573h-126v-486q61 -23 70 -23q16 0 36 27.5t20 45.5v436zM675 573v-438q0 -36 -39 -90t-73 -54q-20 0 -159.5 51t-151.5 51q-13 0 -29 -15.5t-16 -40.5q0 -11 13.5 -26t27.5 -24l14 -9l-25 -42q-50 20 -67 33q-36 27 -36 65q0 51 35.5 92t69.5 41q8 0 21 -3t28 -7.5
t31.5 -10t31 -11t26.5 -10t19 -7.5l8 -3v238q-149 55 -216 55q-21 0 -37.5 -11.5t-24 -29t-7.5 -37.5q0 -9 3.5 -21t8.5 -18l47 -55l-32 -47q-42 29 -64 49q-9 9 -16.5 21t-12 25.5t-7 27.5t-2.5 26q0 64 44 103q23 21 49 30.5t65 9.5q66 0 202 -59v151h-414v63h768v-63h-83
z" />
    <glyph glyph-name="bnN_SA" horiz-adv-x="800" 
d="M450 315q14 35 14 58q0 34 -80 91l-101 71l19 38h-311v63h830v-63h-68v-573h-73v263q-91 51 -122 51q-9 0 -14.5 -1.5t-15 -11t-16.5 -27.5q-32 -80 -61 -120.5t-74 -40.5q-23 0 -58.5 11.5t-58.5 22.5l-24 11l16 56q92 -26 108 -26q15 0 31 17t25 35l8 17q-18 7 -47 17
t-92 27t-94 17q-21 0 -37.5 -11.5t-24 -29t-7.5 -37.5q0 -24 12 -39l47 -55l-32 -47q-42 29 -64 49q-12 11 -20.5 28.5t-13 36t-4.5 35.5q0 64 44 103q25 22 51 31t63 9q34 0 100 -21t96 -34t49 -21zM680 341v232h-352q49 -25 62 -32q104 -59 128 -92q8 -11 13.5 -24
t6.5 -21l2 -7q13 0 32 -5.5t37 -13.5t32.5 -16t26.5 -14z" />
    <glyph glyph-name="bnN_T_BA" horiz-adv-x="680" 
d="M483 -212v205l-181 -75zM557 40v-337h-74l-249 174v91l58 25q-41 19 -101 78q-34 33 -63 75t-41.5 65t-12.5 25l37 27l130 -140q75 -81 145 -81q30 0 58 13q58 27 86.5 76.5t28.5 95.5t-32 65.5t-102 19.5h-169l-8 53q119 19 162 19q-16 8 -41 20t-79 32.5t-81 20.5
q-15 0 -27 -4.5t-20.5 -12.5t-13 -19t-4.5 -23q0 -35 45 -82l-31 -45q-86 64 -86 133q0 55 42 92q35 31 91 31q37 0 93 -21.5t99 -43t47 -21.5q21 0 40 25.5t19 42.5q0 12 -6.5 28t-13.5 26l-7 10h-486v63h700v-63h-148q34 -36 34 -66t-31.5 -75t-59.5 -51q6 -1 16 -2.5
t35 -12t44.5 -25.5t35.5 -46t16 -70q0 -45 -18 -89q-4 -10 -8.5 -20t-9 -18t-9 -15.5t-8 -13t-7.5 -10.5t-6.5 -8.5t-4.5 -6t-3 -3.5z" />
    <glyph glyph-name="bnN_T_RA" horiz-adv-x="665" 
d="M524 403q21 -7 37 -19.5t25 -26.5t14.5 -31.5t7.5 -31.5t2 -28v-335h-73v84q-13 -9 -34 -23t-74.5 -37.5t-93.5 -23.5q-34 0 -57.5 2.5t-65 24t-69.5 62.5q-37 54 -70 165l42 22l82 -131q45 -72 141 -72q24 0 53 9t54 22t46 25.5t34 21.5l12 9v169q0 80 -81 80
q-30 0 -79 -22t-85 -43.5t-34 -21.5l-32 41q34 31 67 54t49 30l16 8q-121 54 -171 54q-19 0 -34 -8t-23 -21t-8 -30q0 -10 5 -22.5t11 -21.5t13.5 -19t10.5 -13.5t5 -5.5l-31 -45q-86 64 -86 133q0 55 42 92q35 31 91 31q37 0 95.5 -21.5t104 -43t49.5 -21.5q21 0 40 25.5
t19 42.5q0 12 -6.5 32t-13.5 34l-7 15h-474v63h690v-63h-150q34 -53 34 -83q0 -21 -14.5 -48t-25.5 -39z" />
    <glyph glyph-name="bnN_DH_RA" horiz-adv-x="755" 
d="M481 243l-181 -72l181 -126v198zM553 -220h-71v84q-3 -3 -9.5 -9t-27 -20.5t-41 -25.5t-51 -20t-58.5 -9q-24 0 -39.5 1.5t-42.5 9t-52.5 27.5t-46.5 51q-37 54 -70 165l42 22l82 -131q45 -72 130 -72q19 0 39.5 5t38 12.5t34 16.5t29.5 18.5t22.5 17t14.5 12.5l6 5v20
l-249 174v87l248 102v68q-7 2 -18.5 6.5t-43 15t-59.5 18.5t-60 14.5t-52 6.5q-32 0 -50.5 -23.5t-18.5 -54.5q0 -9 3.5 -21t8.5 -18l47 -55l-32 -47q-43 29 -64 49q-12 11 -20.5 28.5t-13 36t-4.5 35.5q0 64 44 103q15 14 30 22.5t36 13t48 4.5q71 0 219 -66v114h-491v63
h776v-63h-213v-250q71 0 115 -31t44 -97q0 -27 -3.5 -84t-6.5 -101l-4 -43l-59 4v215q0 64 -86 64v-470z" />
    <glyph glyph-name="bnP_PA" horiz-adv-x="680" 
d="M485 116q-20 21 -39 35q-36 27 -67 27q-21 0 -51 -18q-6 -3 -13.5 -8.5t-14 -10.5t-12.5 -9.5t-10 -6.5l-3 -3l86 -111zM464 465q-31 29 -53 46q-48 37 -83 37q-24 0 -65 -25l-71 -49l112 -141zM534 151v251l-22 21l-195 -166l-45 7l-136 177l-46 -31l-32 44
q91 85 171 131q62 36 96 36q42 0 88 -32q23 -16 53.5 -42t49.5 -44l18 -18v151l-7 66h42l26 -66h95v-63h-83v-641h-73v147l-163 -138l-38 5l-111 145l-39 -25l-29 40q78 72 143 110q52 30 81 30q37 0 74 -27z" />
    <glyph glyph-name="bnP_NA" horiz-adv-x="675" 
d="M464 465q-31 29 -53 46q-48 37 -83 37q-24 0 -65 -25l-71 -49l112 -141zM534 87q-16 7 -41 16t-80.5 24t-86.5 15q-34 0 -63 -22.5t-29 -50.5q0 -20 8 -33q8 -12 15.5 -24t13.5 -19.5t11 -13.5t7 -9l3 -3l-31 -45q-36 17 -56 38q-46 47 -46 117q0 64 44 103q8 7 15 12
t15 10t17 8t19.5 5.5t22 3.5t25.5 1q32 0 85.5 -16t93.5 -32.5t38 -16.5v247l-22 21l-195 -166l-45 7l-136 177l-46 -31l-32 44q91 85 171 131q62 36 96 36q42 0 88 -32q23 -16 53.5 -42t49.5 -44l18 -18v151l-7 66h42l26 -66h95v-63h-83v-611h-73v125z" />
    <glyph glyph-name="bnP_TA" horiz-adv-x="800" 
d="M454 465q-31 29 -53 46q-48 37 -83 37q-24 0 -65 -25l-71 -49l112 -141zM597 259q6 -1 16.5 -2.5t36 -12t45 -25.5t35.5 -46t16 -70q0 -53 -18 -89q-84 -167 -230 -167q-94 0 -193 102q-33 34 -62.5 75.5t-42.5 65.5l-12 24l37 27l130 -140q75 -81 145 -81q30 0 58 13
q58 27 86.5 76.5t28.5 95.5t-32 65.5t-102 19.5h-169l-8 53q119 19 162 19v140l-22 21l-195 -166l-45 7l-136 177l-46 -31l-32 44q91 85 171 131q62 36 96 36q42 0 88 -32q23 -16 53.5 -42t49.5 -44l18 -18v151l-7 66h42l26 -66h225v-63h-213v-314z" />
    </font>
</defs>
</svg>
